<ttFont>
    <TTGlyph name=".notdef" xMin="80" yMin="0" xMax="468" yMax="720">
      <contour>
        <pt x="80" y="720" on="1"/>
        <pt x="468" y="720" on="1"/>
        <pt x="468" y="0" on="1"/>
        <pt x="80" y="0" on="1"/>
      </contour>
      <contour>
        <pt x="400" y="68" on="1"/>
        <pt x="400" y="652" on="1"/>
        <pt x="148" y="652" on="1"/>
        <pt x="148" y="68" on="1"/>
      </contour>
    </TTGlyph>
    <TTGlyph name="A" xMin="10" yMin="0" xMax="543" yMax="720">
      <contour>
        <pt x="453" y="0" on="1"/>
        <pt x="400" y="193" on="1"/>
        <pt x="148" y="193" on="1"/>
        <pt x="94" y="0" on="1"/>
        <pt x="10" y="0" on="1"/>
        <pt x="225" y="720" on="1"/>
        <pt x="329" y="720" on="1"/>
        <pt x="543" y="0" on="1"/>
      </contour>
      <contour>
        <pt x="167" y="258" on="1"/>
        <pt x="382" y="258" on="1"/>
        <pt x="276" y="642" on="1"/>
      </contour>
    </TTGlyph>
    <TTGlyph name="AE" xMin="10" yMin="0" xMax="760" yMax="720">
      <contour>
        <pt x="760" y="0" on="1"/>
        <pt x="457" y="0" on="1"/>
        <pt x="416" y="193" on="1"/>
        <pt x="163" y="193" on="1"/>
        <pt x="94" y="0" on="1"/>
        <pt x="10" y="0" on="1"/>
        <pt x="285" y="720" on="1"/>
        <pt x="725" y="720" on="1"/>
        <pt x="725" y="655" on="1"/>
        <pt x="397" y="655" on="1"/>
        <pt x="455" y="397" on="1"/>
        <pt x="720" y="397" on="1"/>
        <pt x="720" y="333" on="1"/>
        <pt x="469" y="333" on="1"/>
        <pt x="528" y="65" on="1"/>
        <pt x="760" y="65" on="1"/>
      </contour>
      <contour>
        <pt x="187" y="258" on="1"/>
        <pt x="402" y="258" on="1"/>
        <pt x="323" y="634" on="1"/>
      </contour>
    </TTGlyph>
    <TTGlyph name="Aacute" xMin="10" yMin="0" xMax="543" yMax="905">
      <component glyphName="A" x="0" y="0" flags="0x204"/>
      <component glyphName="acute.cap" x="179" y="0" flags="0x4"/>
    </TTGlyph>
    <TTGlyph name="Acircumflex" xMin="10" yMin="0" xMax="543" yMax="895">
      <component glyphName="A" x="0" y="0" flags="0x204"/>
      <component glyphName="circumflex.cap" x="88" y="0" flags="0x4"/>
    </TTGlyph>
    <TTGlyph name="Adieresis" xMin="10" yMin="0" xMax="543" yMax="875">
      <component glyphName="A" x="0" y="0" flags="0x204"/>
      <component glyphName="dieresis.cap" x="97" y="0" flags="0x4"/>
    </TTGlyph>
    <TTGlyph name="Agrave" xMin="10" yMin="0" xMax="543" yMax="905">
      <component glyphName="A" x="0" y="0" flags="0x204"/>
      <component glyphName="grave.cap" x="100" y="0" flags="0x4"/>
    </TTGlyph>
    <TTGlyph name="Aring" xMin="10" yMin="0" xMax="543" yMax="922">
      <component glyphName="A" x="0" y="0" flags="0x204"/>
      <component glyphName="ring.cap" x="128" y="0" flags="0x4"/>
    </TTGlyph>
    <TTGlyph name="Atilde" xMin="10" yMin="0" xMax="543" yMax="882">
      <component glyphName="A" x="0" y="0" flags="0x204"/>
      <component glyphName="tilde.cap" x="103" y="-2" flags="0x4"/>
    </TTGlyph>
    <TTGlyph name="B" xMin="90" yMin="0" xMax="519" yMax="720">
      <contour>
        <pt x="269" y="720" on="1"/>
        <pt x="381" y="720" on="0"/>
        <pt x="486" y="626" on="0"/>
        <pt x="486" y="543" on="1"/>
        <pt x="486" y="515" on="0"/>
        <pt x="469" y="464" on="0"/>
        <pt x="438" y="422" on="0"/>
        <pt x="395" y="391" on="0"/>
        <pt x="370" y="384" on="1"/>
        <pt x="397" y="380" on="0"/>
        <pt x="451" y="356" on="0"/>
        <pt x="493" y="313" on="0"/>
        <pt x="519" y="249" on="0"/>
        <pt x="519" y="204" on="1"/>
        <pt x="519" y="149" on="0"/>
        <pt x="478" y="71" on="0"/>
        <pt x="410" y="22" on="0"/>
        <pt x="323" y="0" on="0"/>
        <pt x="277" y="0" on="1"/>
        <pt x="90" y="0" on="1"/>
        <pt x="90" y="720" on="1"/>
      </contour>
      <contour>
        <pt x="175" y="351" on="1"/>
        <pt x="175" y="65" on="1"/>
        <pt x="275" y="65" on="1"/>
        <pt x="305" y="65" on="0"/>
        <pt x="360" y="79" on="0"/>
        <pt x="404" y="112" on="0"/>
        <pt x="430" y="165" on="0"/>
        <pt x="430" y="204" on="1"/>
        <pt x="430" y="276" on="0"/>
        <pt x="350" y="351" on="0"/>
        <pt x="271" y="351" on="1"/>
      </contour>
      <contour>
        <pt x="175" y="661" on="1"/>
        <pt x="175" y="412" on="1"/>
        <pt x="267" y="412" on="1"/>
        <pt x="336" y="412" on="0"/>
        <pt x="401" y="480" on="0"/>
        <pt x="401" y="540" on="1"/>
        <pt x="401" y="604" on="0"/>
        <pt x="328" y="661" on="0"/>
        <pt x="267" y="661" on="1"/>
      </contour>
    </TTGlyph>
    <TTGlyph name="C" xMin="70" yMin="-15" xMax="531" yMax="735">
      <contour>
        <pt x="531" y="119" on="1"/>
        <pt x="503" y="59" on="0"/>
        <pt x="405" y="-15" on="0"/>
        <pt x="325" y="-15" on="1"/>
        <pt x="285" y="-15" on="0"/>
        <pt x="196" y="16" on="0"/>
        <pt x="120" y="100" on="0"/>
        <pt x="70" y="246" on="0"/>
        <pt x="70" y="360" on="1"/>
        <pt x="70" y="472" on="0"/>
        <pt x="118" y="618" on="0"/>
        <pt x="193" y="702" on="0"/>
        <pt x="283" y="735" on="0"/>
        <pt x="326" y="735" on="1"/>
        <pt x="365" y="735" on="0"/>
        <pt x="428" y="715" on="0"/>
        <pt x="476" y="682" on="0"/>
        <pt x="511" y="638" on="0"/>
        <pt x="522" y="614" on="1"/>
        <pt x="447" y="585" on="1"/>
        <pt x="431" y="626" on="0"/>
        <pt x="374" y="668" on="0"/>
        <pt x="326" y="668" on="1"/>
        <pt x="292" y="668" on="0"/>
        <pt x="231" y="639" on="0"/>
        <pt x="185" y="568" on="0"/>
        <pt x="158" y="450" on="0"/>
        <pt x="158" y="360" on="1"/>
        <pt x="158" y="271" on="0"/>
        <pt x="186" y="153" on="0"/>
        <pt x="233" y="83" on="0"/>
        <pt x="294" y="53" on="0"/>
        <pt x="327" y="53" on="1"/>
        <pt x="382" y="53" on="0"/>
        <pt x="440" y="108" on="0"/>
        <pt x="458" y="150" on="1"/>
      </contour>
    </TTGlyph>
    <TTGlyph name="Ccedilla" xMin="70" yMin="-241" xMax="531" yMax="735">
      <contour>
        <pt x="428" y="-142" on="1"/>
        <pt x="428" y="-186" on="0"/>
        <pt x="362" y="-241" on="0"/>
        <pt x="311" y="-241" on="1"/>
        <pt x="282" y="-241" on="0"/>
        <pt x="233" y="-228" on="0"/>
        <pt x="214" y="-217" on="1"/>
        <pt x="239" y="-168" on="1"/>
        <pt x="250" y="-173" on="0"/>
        <pt x="283" y="-182" on="0"/>
        <pt x="298" y="-182" on="1"/>
        <pt x="321" y="-182" on="0"/>
        <pt x="355" y="-164" on="0"/>
        <pt x="355" y="-138" on="1"/>
        <pt x="355" y="-115" on="0"/>
        <pt x="306" y="-94" on="0"/>
        <pt x="269" y="-89" on="1"/>
        <pt x="283" y="-11" on="1"/>
        <pt x="245" y="-5" on="0"/>
        <pt x="170" y="38" on="0"/>
        <pt x="108" y="124" on="0"/>
        <pt x="70" y="260" on="0"/>
        <pt x="70" y="360" on="1"/>
        <pt x="70" y="472" on="0"/>
        <pt x="118" y="618" on="0"/>
        <pt x="193" y="702" on="0"/>
        <pt x="283" y="735" on="0"/>
        <pt x="326" y="735" on="1"/>
        <pt x="365" y="735" on="0"/>
        <pt x="428" y="715" on="0"/>
        <pt x="476" y="682" on="0"/>
        <pt x="511" y="638" on="0"/>
        <pt x="522" y="614" on="1"/>
        <pt x="447" y="585" on="1"/>
        <pt x="431" y="626" on="0"/>
        <pt x="374" y="668" on="0"/>
        <pt x="326" y="668" on="1"/>
        <pt x="292" y="668" on="0"/>
        <pt x="231" y="639" on="0"/>
        <pt x="185" y="568" on="0"/>
        <pt x="158" y="450" on="0"/>
        <pt x="158" y="360" on="1"/>
        <pt x="158" y="271" on="0"/>
        <pt x="186" y="153" on="0"/>
        <pt x="233" y="83" on="0"/>
        <pt x="294" y="53" on="0"/>
        <pt x="327" y="53" on="1"/>
        <pt x="382" y="53" on="0"/>
        <pt x="440" y="108" on="0"/>
        <pt x="458" y="150" on="1"/>
        <pt x="531" y="119" on="1"/>
        <pt x="505" y="64" on="0"/>
        <pt x="419" y="-7" on="0"/>
        <pt x="351" y="-14" on="1"/>
        <pt x="349" y="-51" on="1"/>
        <pt x="391" y="-60" on="0"/>
        <pt x="428" y="-110" on="0"/>
      </contour>
    </TTGlyph>
    <TTGlyph name="D" xMin="90" yMin="0" xMax="541" yMax="720">
      <contour>
        <pt x="218" y="720" on="1"/>
        <pt x="289" y="720" on="0"/>
        <pt x="408" y="687" on="0"/>
        <pt x="493" y="605" on="0"/>
        <pt x="541" y="466" on="0"/>
        <pt x="541" y="360" on="1"/>
        <pt x="541" y="257" on="0"/>
        <pt x="494" y="119" on="0"/>
        <pt x="408" y="35" on="0"/>
        <pt x="290" y="0" on="0"/>
        <pt x="220" y="0" on="1"/>
        <pt x="90" y="0" on="1"/>
        <pt x="90" y="720" on="1"/>
      </contour>
      <contour>
        <pt x="175" y="657" on="1"/>
        <pt x="175" y="66" on="1"/>
        <pt x="219" y="66" on="1"/>
        <pt x="280" y="66" on="0"/>
        <pt x="369" y="97" on="0"/>
        <pt x="427" y="167" on="0"/>
        <pt x="455" y="279" on="0"/>
        <pt x="455" y="360" on="1"/>
        <pt x="455" y="515" on="0"/>
        <pt x="341" y="657" on="0"/>
        <pt x="217" y="657" on="1"/>
      </contour>
    </TTGlyph>
    <TTGlyph name="E" xMin="90" yMin="0" xMax="440" yMax="720">
      <contour>
        <pt x="410" y="333" on="1"/>
        <pt x="175" y="333" on="1"/>
        <pt x="175" y="68" on="1"/>
        <pt x="440" y="68" on="1"/>
        <pt x="440" y="0" on="1"/>
        <pt x="90" y="0" on="1"/>
        <pt x="90" y="720" on="1"/>
        <pt x="440" y="720" on="1"/>
        <pt x="440" y="652" on="1"/>
        <pt x="175" y="652" on="1"/>
        <pt x="175" y="399" on="1"/>
        <pt x="410" y="399" on="1"/>
      </contour>
    </TTGlyph>
    <TTGlyph name="Eacute" xMin="90" yMin="0" xMax="440" yMax="908">
      <component glyphName="E" x="0" y="0" flags="0x204"/>
      <component glyphName="acute.cap" x="161" y="3" flags="0x4"/>
    </TTGlyph>
    <TTGlyph name="Ecircumflex" xMin="90" yMin="0" xMax="440" yMax="895">
      <component glyphName="E" x="0" y="0" flags="0x204"/>
      <component glyphName="circumflex.cap" x="78" y="0" flags="0x4"/>
    </TTGlyph>
    <TTGlyph name="Edieresis" xMin="90" yMin="0" xMax="440" yMax="875">
      <component glyphName="E" x="0" y="0" flags="0x204"/>
      <component glyphName="dieresis.cap" x="86" y="0" flags="0x4"/>
    </TTGlyph>
    <TTGlyph name="Egrave" xMin="90" yMin="0" xMax="440" yMax="905">
      <component glyphName="E" x="0" y="0" flags="0x204"/>
      <component glyphName="grave.cap" x="88" y="0" flags="0x4"/>
    </TTGlyph>
    <TTGlyph name="Eth" xMin="30" yMin="0" xMax="551" yMax="720">
      <contour>
        <pt x="30" y="416" on="1"/>
        <pt x="100" y="416" on="1"/>
        <pt x="100" y="720" on="1"/>
        <pt x="228" y="720" on="1"/>
        <pt x="299" y="720" on="0"/>
        <pt x="418" y="687" on="0"/>
        <pt x="503" y="605" on="0"/>
        <pt x="551" y="466" on="0"/>
        <pt x="551" y="360" on="1"/>
        <pt x="551" y="257" on="0"/>
        <pt x="504" y="119" on="0"/>
        <pt x="418" y="35" on="0"/>
        <pt x="300" y="0" on="0"/>
        <pt x="230" y="0" on="1"/>
        <pt x="100" y="0" on="1"/>
        <pt x="100" y="351" on="1"/>
        <pt x="30" y="351" on="1"/>
      </contour>
      <contour>
        <pt x="185" y="351" on="1"/>
        <pt x="185" y="66" on="1"/>
        <pt x="229" y="66" on="1"/>
        <pt x="290" y="66" on="0"/>
        <pt x="379" y="97" on="0"/>
        <pt x="437" y="167" on="0"/>
        <pt x="465" y="279" on="0"/>
        <pt x="465" y="360" on="1"/>
        <pt x="465" y="515" on="0"/>
        <pt x="351" y="657" on="0"/>
        <pt x="227" y="657" on="1"/>
        <pt x="185" y="657" on="1"/>
        <pt x="185" y="416" on="1"/>
        <pt x="369" y="416" on="1"/>
        <pt x="369" y="351" on="1"/>
      </contour>
    </TTGlyph>
    <TTGlyph name="Euro" xMin="25" yMin="-15" xMax="517" yMax="710">
      <contour>
        <pt x="424" y="389" on="1"/>
        <pt x="190" y="389" on="1"/>
        <pt x="189" y="378" on="0"/>
        <pt x="189" y="366" on="1"/>
        <pt x="189" y="322" on="1"/>
        <pt x="189" y="312" on="0"/>
        <pt x="190" y="302" on="1"/>
        <pt x="403" y="302" on="1"/>
        <pt x="388" y="242" on="1"/>
        <pt x="194" y="242" on="1"/>
        <pt x="200" y="188" on="0"/>
        <pt x="229" y="115" on="0"/>
        <pt x="269" y="69" on="0"/>
        <pt x="319" y="49" on="0"/>
        <pt x="346" y="49" on="1"/>
        <pt x="381" y="49" on="0"/>
        <pt x="432" y="76" on="0"/>
        <pt x="452" y="100" on="1"/>
        <pt x="503" y="53" on="1"/>
        <pt x="472" y="18" on="0"/>
        <pt x="393" y="-15" on="0"/>
        <pt x="343" y="-15" on="1"/>
        <pt x="311" y="-15" on="0"/>
        <pt x="239" y="5" on="0"/>
        <pt x="173" y="61" on="0"/>
        <pt x="122" y="162" on="0"/>
        <pt x="113" y="242" on="1"/>
        <pt x="25" y="242" on="1"/>
        <pt x="40" y="302" on="1"/>
        <pt x="109" y="302" on="1"/>
        <pt x="108" y="312" on="0"/>
        <pt x="108" y="322" on="1"/>
        <pt x="108" y="366" on="1"/>
        <pt x="108" y="378" on="0"/>
        <pt x="109" y="389" on="1"/>
        <pt x="25" y="389" on="1"/>
        <pt x="40" y="449" on="1"/>
        <pt x="114" y="449" on="1"/>
        <pt x="124" y="528" on="0"/>
        <pt x="171" y="629" on="0"/>
        <pt x="235" y="688" on="0"/>
        <pt x="310" y="710" on="0"/>
        <pt x="346" y="710" on="1"/>
        <pt x="407" y="710" on="0"/>
        <pt x="485" y="668" on="0"/>
        <pt x="517" y="634" on="1"/>
        <pt x="465" y="587" on="1"/>
        <pt x="439" y="618" on="0"/>
        <pt x="386" y="648" on="0"/>
        <pt x="349" y="648" on="1"/>
        <pt x="283" y="648" on="0"/>
        <pt x="206" y="552" on="0"/>
        <pt x="194" y="449" on="1"/>
        <pt x="439" y="449" on="1"/>
      </contour>
    </TTGlyph>
    <TTGlyph name="F" xMin="90" yMin="0" xMax="435" yMax="720">
      <contour>
        <pt x="395" y="312" on="1"/>
        <pt x="175" y="312" on="1"/>
        <pt x="175" y="0" on="1"/>
        <pt x="90" y="0" on="1"/>
        <pt x="90" y="720" on="1"/>
        <pt x="435" y="720" on="1"/>
        <pt x="435" y="652" on="1"/>
        <pt x="175" y="652" on="1"/>
        <pt x="175" y="380" on="1"/>
        <pt x="395" y="380" on="1"/>
      </contour>
    </TTGlyph>
    <TTGlyph name="G" xMin="70" yMin="-14" xMax="521" yMax="736">
      <contour>
        <pt x="521" y="0" on="1"/>
        <pt x="455" y="0" on="1"/>
        <pt x="450" y="45" on="1"/>
        <pt x="423" y="14" on="0"/>
        <pt x="350" y="-14" on="0"/>
        <pt x="310" y="-14" on="1"/>
        <pt x="260" y="-14" on="0"/>
        <pt x="173" y="24" on="0"/>
        <pt x="108" y="111" on="0"/>
        <pt x="70" y="255" on="0"/>
        <pt x="70" y="361" on="1"/>
        <pt x="70" y="468" on="0"/>
        <pt x="113" y="612" on="0"/>
        <pt x="185" y="699" on="0"/>
        <pt x="278" y="736" on="0"/>
        <pt x="328" y="736" on="1"/>
        <pt x="402" y="736" on="0"/>
        <pt x="494" y="677" on="0"/>
        <pt x="520" y="623" on="1"/>
        <pt x="448" y="590" on="1"/>
        <pt x="431" y="628" on="0"/>
        <pt x="377" y="671" on="0"/>
        <pt x="331" y="671" on="1"/>
        <pt x="292" y="671" on="0"/>
        <pt x="227" y="637" on="0"/>
        <pt x="182" y="563" on="0"/>
        <pt x="157" y="445" on="0"/>
        <pt x="157" y="361" on="1"/>
        <pt x="157" y="272" on="0"/>
        <pt x="180" y="154" on="0"/>
        <pt x="224" y="82" on="0"/>
        <pt x="284" y="52" on="0"/>
        <pt x="322" y="52" on="1"/>
        <pt x="405" y="52" on="0"/>
        <pt x="445" y="112" on="1"/>
        <pt x="445" y="329" on="1"/>
        <pt x="322" y="329" on="1"/>
        <pt x="322" y="397" on="1"/>
        <pt x="521" y="397" on="1"/>
      </contour>
    </TTGlyph>
    <TTGlyph name="H" xMin="90" yMin="0" xMax="530" yMax="720">
      <contour>
        <pt x="530" y="720" on="1"/>
        <pt x="530" y="0" on="1"/>
        <pt x="445" y="0" on="1"/>
        <pt x="445" y="330" on="1"/>
        <pt x="175" y="330" on="1"/>
        <pt x="175" y="0" on="1"/>
        <pt x="90" y="0" on="1"/>
        <pt x="90" y="720" on="1"/>
        <pt x="175" y="720" on="1"/>
        <pt x="175" y="398" on="1"/>
        <pt x="445" y="398" on="1"/>
        <pt x="445" y="720" on="1"/>
      </contour>
    </TTGlyph>
    <TTGlyph name="I" xMin="90" yMin="0" xMax="175" yMax="720">
      <contour>
        <pt x="175" y="720" on="1"/>
        <pt x="175" y="0" on="1"/>
        <pt x="90" y="0" on="1"/>
        <pt x="90" y="720" on="1"/>
      </contour>
    </TTGlyph>
    <TTGlyph name="IJ" xMin="90" yMin="-14" xMax="588" yMax="720">
      <component glyphName="I" x="0" y="0" flags="0x4"/>
      <component glyphName="J" x="265" y="0" flags="0x4"/>
    </TTGlyph>
    <TTGlyph name="Iacute" xMin="71" yMin="0" xMax="270" yMax="905">
      <component glyphName="I" x="0" y="0" flags="0x204"/>
      <component glyphName="acute.cap" x="26" y="0" flags="0x4"/>
    </TTGlyph>
    <TTGlyph name="Icircumflex" xMin="-25" yMin="0" xMax="291" yMax="895">
      <component glyphName="I" x="0" y="0" flags="0x204"/>
      <component glyphName="circumflex.cap" x="-55" y="0" flags="0x4"/>
    </TTGlyph>
    <TTGlyph name="Idieresis" xMin="-16" yMin="0" xMax="284" yMax="875">
      <component glyphName="I" x="0" y="0" flags="0x204"/>
      <component glyphName="dieresis.cap" x="-46" y="0" flags="0x4"/>
    </TTGlyph>
    <TTGlyph name="Igrave" xMin="-3" yMin="0" xMax="196" yMax="905">
      <component glyphName="I" x="0" y="0" flags="0x204"/>
      <component glyphName="grave.cap" x="-34" y="0" flags="0x4"/>
    </TTGlyph>
    <TTGlyph name="Itilde" xMin="-21" yMin="0" xMax="289" yMax="884">
      <component glyphName="I" x="0" y="0" flags="0x204"/>
      <component glyphName="tilde.cap" x="-41" y="0" flags="0x4"/>
    </TTGlyph>
    <TTGlyph name="J" xMin="5" yMin="-14" xMax="323" yMax="720">
      <contour>
        <pt x="238" y="720" on="1"/>
        <pt x="323" y="720" on="1"/>
        <pt x="323" y="165" on="1"/>
        <pt x="323" y="77" on="0"/>
        <pt x="232" y="-14" on="0"/>
        <pt x="154" y="-14" on="1"/>
        <pt x="99" y="-14" on="0"/>
        <pt x="23" y="33" on="0"/>
        <pt x="5" y="64" on="1"/>
        <pt x="70" y="108" on="1"/>
        <pt x="82" y="84" on="0"/>
        <pt x="127" y="56" on="0"/>
        <pt x="153" y="56" on="1"/>
        <pt x="193" y="56" on="0"/>
        <pt x="238" y="108" on="0"/>
        <pt x="238" y="170" on="1"/>
      </contour>
    </TTGlyph>
    <TTGlyph name="Jcircumflex" xMin="5" yMin="-14" xMax="437" yMax="895">
      <component glyphName="J" x="0" y="0" flags="0x204"/>
      <component glyphName="circumflex.cap" x="91" y="0" flags="0x4"/>
    </TTGlyph>
    <TTGlyph name="K" xMin="90" yMin="0" xMax="528" yMax="720">
      <contour>
        <pt x="424" y="0" on="1"/>
        <pt x="175" y="335" on="1"/>
        <pt x="175" y="0" on="1"/>
        <pt x="90" y="0" on="1"/>
        <pt x="90" y="720" on="1"/>
        <pt x="175" y="720" on="1"/>
        <pt x="175" y="406" on="1"/>
        <pt x="401" y="720" on="1"/>
        <pt x="496" y="720" on="1"/>
        <pt x="245" y="377" on="1"/>
        <pt x="528" y="0" on="1"/>
      </contour>
    </TTGlyph>
    <TTGlyph name="L" xMin="90" yMin="0" xMax="452" yMax="720">
      <contour>
        <pt x="175" y="720" on="1"/>
        <pt x="175" y="74" on="1"/>
        <pt x="452" y="74" on="1"/>
        <pt x="452" y="0" on="1"/>
        <pt x="90" y="0" on="1"/>
        <pt x="90" y="720" on="1"/>
      </contour>
    </TTGlyph>
    <TTGlyph name="Ldotaccent" xMin="90" yMin="0" xMax="452" yMax="720">
      <component glyphName="L" x="0" y="0" flags="0x204"/>
      <component glyphName="dotaccentcmb" x="393" y="-288" flags="0x4"/>
    </TTGlyph>
    <TTGlyph name="Lslash" xMin="20" yMin="0" xMax="462" yMax="720">
      <contour>
        <pt x="185" y="720" on="1"/>
        <pt x="185" y="449" on="1"/>
        <pt x="316" y="528" on="1"/>
        <pt x="350" y="474" on="1"/>
        <pt x="185" y="374" on="1"/>
        <pt x="185" y="74" on="1"/>
        <pt x="462" y="74" on="1"/>
        <pt x="462" y="0" on="1"/>
        <pt x="100" y="0" on="1"/>
        <pt x="100" y="323" on="1"/>
        <pt x="49" y="294" on="1"/>
        <pt x="20" y="351" on="1"/>
        <pt x="100" y="398" on="1"/>
        <pt x="100" y="720" on="1"/>
      </contour>
    </TTGlyph>
    <TTGlyph name="M" xMin="90" yMin="0" xMax="657" yMax="720">
      <contour>
        <pt x="341" y="95" on="1"/>
        <pt x="171" y="572" on="1"/>
        <pt x="171" y="0" on="1"/>
        <pt x="90" y="0" on="1"/>
        <pt x="90" y="720" on="1"/>
        <pt x="201" y="720" on="1"/>
        <pt x="381" y="204" on="1"/>
        <pt x="547" y="720" on="1"/>
        <pt x="657" y="720" on="1"/>
        <pt x="657" y="0" on="1"/>
        <pt x="573" y="0" on="1"/>
        <pt x="573" y="572" on="1"/>
        <pt x="416" y="95" on="1"/>
      </contour>
    </TTGlyph>
    <TTGlyph name="N" xMin="90" yMin="0" xMax="511" yMax="720">
      <contour>
        <pt x="511" y="720" on="1"/>
        <pt x="511" y="0" on="1"/>
        <pt x="401" y="0" on="1"/>
        <pt x="167" y="608" on="1"/>
        <pt x="167" y="0" on="1"/>
        <pt x="90" y="0" on="1"/>
        <pt x="90" y="720" on="1"/>
        <pt x="203" y="720" on="1"/>
        <pt x="436" y="121" on="1"/>
        <pt x="436" y="720" on="1"/>
      </contour>
    </TTGlyph>
    <TTGlyph name="Nacute" xMin="90" yMin="0" xMax="511" yMax="905">
      <component glyphName="N" x="0" y="0" flags="0x204"/>
      <component glyphName="acute.cap" x="217" y="0" flags="0x4"/>
    </TTGlyph>
    <TTGlyph name="Ntilde" xMin="90" yMin="0" xMax="511" yMax="886">
      <component glyphName="N" x="0" y="0" flags="0x204"/>
      <component glyphName="tilde.cap" x="129" y="2" flags="0x4"/>
    </TTGlyph>
    <TTGlyph name="O" xMin="70" yMin="-15" xMax="588" yMax="735">
      <contour>
        <pt x="70" y="360" on="1"/>
        <pt x="70" y="465" on="0"/>
        <pt x="114" y="608" on="0"/>
        <pt x="186" y="696" on="0"/>
        <pt x="279" y="735" on="0"/>
        <pt x="329" y="735" on="1"/>
        <pt x="379" y="735" on="0"/>
        <pt x="472" y="696" on="0"/>
        <pt x="544" y="608" on="0"/>
        <pt x="588" y="465" on="0"/>
        <pt x="588" y="360" on="1"/>
        <pt x="588" y="255" on="0"/>
        <pt x="544" y="112" on="0"/>
        <pt x="472" y="24" on="0"/>
        <pt x="378" y="-15" on="0"/>
        <pt x="329" y="-15" on="1"/>
        <pt x="279" y="-15" on="0"/>
        <pt x="186" y="24" on="0"/>
        <pt x="114" y="112" on="0"/>
        <pt x="70" y="255" on="0"/>
      </contour>
      <contour>
        <pt x="157" y="360" on="1"/>
        <pt x="157" y="208" on="0"/>
        <pt x="243" y="50" on="0"/>
        <pt x="329" y="50" on="1"/>
        <pt x="415" y="50" on="0"/>
        <pt x="501" y="208" on="0"/>
        <pt x="501" y="360" on="1"/>
        <pt x="501" y="512" on="0"/>
        <pt x="415" y="670" on="0"/>
        <pt x="329" y="670" on="1"/>
        <pt x="243" y="670" on="0"/>
        <pt x="157" y="512" on="0"/>
      </contour>
    </TTGlyph>
    <TTGlyph name="OE" xMin="70" yMin="-15" xMax="834" yMax="735">
      <contour>
        <pt x="834" y="0" on="1"/>
        <pt x="414" y="0" on="1"/>
        <pt x="373" y="-15" on="0"/>
        <pt x="329" y="-15" on="1"/>
        <pt x="279" y="-15" on="0"/>
        <pt x="186" y="24" on="0"/>
        <pt x="114" y="112" on="0"/>
        <pt x="70" y="255" on="0"/>
        <pt x="70" y="360" on="1"/>
        <pt x="70" y="465" on="0"/>
        <pt x="114" y="608" on="0"/>
        <pt x="186" y="696" on="0"/>
        <pt x="279" y="735" on="0"/>
        <pt x="329" y="735" on="1"/>
        <pt x="373" y="735" on="0"/>
        <pt x="414" y="720" on="1"/>
        <pt x="834" y="720" on="1"/>
        <pt x="834" y="655" on="1"/>
        <pt x="504" y="655" on="1"/>
        <pt x="538" y="614" on="0"/>
        <pt x="580" y="488" on="0"/>
        <pt x="584" y="397" on="1"/>
        <pt x="804" y="397" on="1"/>
        <pt x="804" y="333" on="1"/>
        <pt x="584" y="333" on="1"/>
        <pt x="581" y="237" on="0"/>
        <pt x="538" y="107" on="0"/>
        <pt x="504" y="65" on="1"/>
        <pt x="834" y="65" on="1"/>
      </contour>
      <contour>
        <pt x="157" y="360" on="1"/>
        <pt x="157" y="208" on="0"/>
        <pt x="243" y="50" on="0"/>
        <pt x="329" y="50" on="1"/>
        <pt x="415" y="50" on="0"/>
        <pt x="501" y="208" on="0"/>
        <pt x="501" y="360" on="1"/>
        <pt x="501" y="512" on="0"/>
        <pt x="415" y="670" on="0"/>
        <pt x="329" y="670" on="1"/>
        <pt x="243" y="670" on="0"/>
        <pt x="157" y="512" on="0"/>
      </contour>
    </TTGlyph>
    <TTGlyph name="Oacute" xMin="70" yMin="-15" xMax="588" yMax="905">
      <component glyphName="O" x="0" y="0" flags="0x204"/>
      <component glyphName="acute.cap" x="240" y="0" flags="0x4"/>
    </TTGlyph>
    <TTGlyph name="Ocircumflex" xMin="70" yMin="-15" xMax="588" yMax="895">
      <component glyphName="O" x="0" y="0" flags="0x204"/>
      <component glyphName="circumflex.cap" x="141" y="0" flags="0x4"/>
    </TTGlyph>
    <TTGlyph name="Odieresis" xMin="70" yMin="-15" xMax="588" yMax="875">
      <component glyphName="O" x="0" y="0" flags="0x204"/>
      <component glyphName="dieresis.cap" x="148" y="0" flags="0x4"/>
    </TTGlyph>
    <TTGlyph name="Ograve" xMin="70" yMin="-15" xMax="588" yMax="905">
      <component glyphName="O" x="0" y="0" flags="0x204"/>
      <component glyphName="grave.cap" x="142" y="0" flags="0x4"/>
    </TTGlyph>
    <TTGlyph name="Oslash" xMin="70" yMin="-108" xMax="588" yMax="826">
      <contour>
        <pt x="70" y="360" on="1"/>
        <pt x="70" y="465" on="0"/>
        <pt x="114" y="608" on="0"/>
        <pt x="186" y="696" on="0"/>
        <pt x="279" y="735" on="0"/>
        <pt x="329" y="735" on="1"/>
        <pt x="354" y="735" on="0"/>
        <pt x="403" y="726" on="0"/>
        <pt x="426" y="715" on="1"/>
        <pt x="468" y="826" on="1"/>
        <pt x="531" y="806" on="1"/>
        <pt x="483" y="678" on="1"/>
        <pt x="530" y="636" on="0"/>
        <pt x="588" y="482" on="0"/>
        <pt x="588" y="360" on="1"/>
        <pt x="588" y="255" on="0"/>
        <pt x="544" y="112" on="0"/>
        <pt x="472" y="24" on="0"/>
        <pt x="378" y="-15" on="0"/>
        <pt x="329" y="-15" on="1"/>
        <pt x="278" y="-15" on="0"/>
        <pt x="233" y="4" on="1"/>
        <pt x="192" y="-108" on="1"/>
        <pt x="129" y="-88" on="1"/>
        <pt x="176" y="40" on="1"/>
        <pt x="129" y="82" on="0"/>
        <pt x="70" y="237" on="0"/>
      </contour>
      <contour>
        <pt x="157" y="360" on="1"/>
        <pt x="157" y="191" on="0"/>
        <pt x="209" y="114" on="1"/>
        <pt x="403" y="650" on="1"/>
        <pt x="371" y="670" on="0"/>
        <pt x="329" y="670" on="1"/>
        <pt x="243" y="670" on="0"/>
        <pt x="157" y="512" on="0"/>
      </contour>
      <contour>
        <pt x="501" y="360" on="1"/>
        <pt x="501" y="524" on="0"/>
        <pt x="449" y="604" on="1"/>
        <pt x="254" y="70" on="1"/>
        <pt x="288" y="50" on="0"/>
        <pt x="329" y="50" on="1"/>
        <pt x="415" y="50" on="0"/>
        <pt x="501" y="208" on="0"/>
      </contour>
    </TTGlyph>
    <TTGlyph name="Otilde" xMin="70" yMin="-15" xMax="588" yMax="884">
      <component glyphName="O" x="0" y="0" flags="0x204"/>
      <component glyphName="tilde.cap" x="153" y="0" flags="0x4"/>
    </TTGlyph>
    <TTGlyph name="P" xMin="90" yMin="0" xMax="501" yMax="720">
      <contour>
        <pt x="252" y="720" on="1"/>
        <pt x="307" y="720" on="0"/>
        <pt x="399" y="693" on="0"/>
        <pt x="465" y="636" on="0"/>
        <pt x="501" y="550" on="0"/>
        <pt x="501" y="491" on="1"/>
        <pt x="501" y="432" on="0"/>
        <pt x="464" y="345" on="0"/>
        <pt x="398" y="288" on="0"/>
        <pt x="306" y="260" on="0"/>
        <pt x="251" y="260" on="1"/>
        <pt x="175" y="260" on="1"/>
        <pt x="175" y="0" on="1"/>
        <pt x="90" y="0" on="1"/>
        <pt x="90" y="720" on="1"/>
      </contour>
      <contour>
        <pt x="175" y="655" on="1"/>
        <pt x="175" y="325" on="1"/>
        <pt x="250" y="325" on="1"/>
        <pt x="414" y="325" on="0"/>
        <pt x="414" y="491" on="1"/>
        <pt x="414" y="569" on="0"/>
        <pt x="335" y="655" on="0"/>
        <pt x="254" y="655" on="1"/>
      </contour>
    </TTGlyph>
    <TTGlyph name="Q" xMin="70" yMin="-168" xMax="588" yMax="735">
      <contour>
        <pt x="70" y="360" on="1"/>
        <pt x="70" y="465" on="0"/>
        <pt x="114" y="608" on="0"/>
        <pt x="186" y="696" on="0"/>
        <pt x="279" y="735" on="0"/>
        <pt x="329" y="735" on="1"/>
        <pt x="379" y="735" on="0"/>
        <pt x="472" y="696" on="0"/>
        <pt x="544" y="608" on="0"/>
        <pt x="588" y="465" on="0"/>
        <pt x="588" y="360" on="1"/>
        <pt x="588" y="277" on="0"/>
        <pt x="560" y="154" on="0"/>
        <pt x="511" y="67" on="0"/>
        <pt x="446" y="13" on="0"/>
        <pt x="409" y="0" on="1"/>
        <pt x="556" y="-88" on="1"/>
        <pt x="499" y="-168" on="1"/>
        <pt x="320" y="-15" on="1"/>
        <pt x="272" y="-13" on="0"/>
        <pt x="181" y="28" on="0"/>
        <pt x="112" y="116" on="0"/>
        <pt x="70" y="258" on="0"/>
      </contour>
      <contour>
        <pt x="157" y="360" on="1"/>
        <pt x="157" y="208" on="0"/>
        <pt x="243" y="50" on="0"/>
        <pt x="329" y="50" on="1"/>
        <pt x="415" y="50" on="0"/>
        <pt x="501" y="208" on="0"/>
        <pt x="501" y="360" on="1"/>
        <pt x="501" y="512" on="0"/>
        <pt x="415" y="670" on="0"/>
        <pt x="329" y="670" on="1"/>
        <pt x="243" y="670" on="0"/>
        <pt x="157" y="512" on="0"/>
      </contour>
    </TTGlyph>
    <TTGlyph name="R" xMin="90" yMin="0" xMax="542" yMax="720">
      <contour>
        <pt x="441" y="0" on="1"/>
        <pt x="280" y="282" on="1"/>
        <pt x="175" y="282" on="1"/>
        <pt x="175" y="0" on="1"/>
        <pt x="90" y="0" on="1"/>
        <pt x="90" y="720" on="1"/>
        <pt x="240" y="720" on="1"/>
        <pt x="357" y="720" on="0"/>
        <pt x="489" y="613" on="0"/>
        <pt x="489" y="498" on="1"/>
        <pt x="489" y="457" on="0"/>
        <pt x="469" y="394" on="0"/>
        <pt x="435" y="346" on="0"/>
        <pt x="389" y="312" on="0"/>
        <pt x="363" y="301" on="1"/>
        <pt x="542" y="0" on="1"/>
      </contour>
      <contour>
        <pt x="175" y="655" on="1"/>
        <pt x="175" y="347" on="1"/>
        <pt x="242" y="347" on="1"/>
        <pt x="320" y="347" on="0"/>
        <pt x="402" y="422" on="0"/>
        <pt x="402" y="498" on="1"/>
        <pt x="402" y="574" on="0"/>
        <pt x="328" y="655" on="0"/>
        <pt x="239" y="655" on="1"/>
      </contour>
    </TTGlyph>
    <TTGlyph name="Racute" xMin="90" yMin="0" xMax="542" yMax="905">
      <component glyphName="R" x="0" y="0" flags="0x204"/>
      <component glyphName="acute.cap" x="187" y="0" flags="0x4"/>
    </TTGlyph>
    <TTGlyph name="Rcaron" xMin="90" yMin="0" xMax="542" yMax="903">
      <component glyphName="R" x="0" y="0" flags="0x204"/>
      <component glyphName="caron.cap" x="88" y="0" flags="0x4"/>
    </TTGlyph>
    <TTGlyph name="Rcommaaccent" xMin="90" yMin="-270" xMax="542" yMax="720">
      <component glyphName="R" x="0" y="0" flags="0x204"/>
      <component glyphName="commaaccent" x="222" y="0" flags="0x4"/>
    </TTGlyph>
    <TTGlyph name="S" xMin="43" yMin="-15" xMax="490" yMax="735">
      <contour>
        <pt x="284" y="669" on="1"/>
        <pt x="228" y="669" on="0"/>
        <pt x="156" y="616" on="0"/>
        <pt x="156" y="559" on="1"/>
        <pt x="156" y="533" on="0"/>
        <pt x="170" y="493" on="0"/>
        <pt x="203" y="461" on="0"/>
        <pt x="257" y="432" on="0"/>
        <pt x="297" y="417" on="1"/>
        <pt x="336" y="402" on="0"/>
        <pt x="406" y="366" on="0"/>
        <pt x="459" y="314" on="0"/>
        <pt x="490" y="240" on="0"/>
        <pt x="490" y="187" on="1"/>
        <pt x="490" y="146" on="0"/>
        <pt x="457" y="72" on="0"/>
        <pt x="398" y="17" on="0"/>
        <pt x="316" y="-15" on="0"/>
        <pt x="267" y="-15" on="1"/>
        <pt x="217" y="-15" on="0"/>
        <pt x="142" y="10" on="0"/>
        <pt x="88" y="51" on="0"/>
        <pt x="53" y="103" on="0"/>
        <pt x="43" y="131" on="1"/>
        <pt x="115" y="158" on="1"/>
        <pt x="122" y="138" on="0"/>
        <pt x="145" y="100" on="0"/>
        <pt x="181" y="71" on="0"/>
        <pt x="232" y="53" on="0"/>
        <pt x="268" y="53" on="1"/>
        <pt x="292" y="53" on="0"/>
        <pt x="340" y="66" on="0"/>
        <pt x="379" y="96" on="0"/>
        <pt x="403" y="146" on="0"/>
        <pt x="403" y="182" on="1"/>
        <pt x="403" y="220" on="0"/>
        <pt x="384" y="270" on="0"/>
        <pt x="343" y="308" on="0"/>
        <pt x="277" y="338" on="0"/>
        <pt x="231" y="357" on="1"/>
        <pt x="150" y="390" on="0"/>
        <pt x="73" y="484" on="0"/>
        <pt x="73" y="553" on="1"/>
        <pt x="73" y="591" on="0"/>
        <pt x="101" y="658" on="0"/>
        <pt x="155" y="707" on="0"/>
        <pt x="232" y="735" on="0"/>
        <pt x="282" y="735" on="1"/>
        <pt x="367" y="735" on="0"/>
        <pt x="463" y="666" on="0"/>
        <pt x="489" y="607" on="1"/>
        <pt x="415" y="581" on="1"/>
        <pt x="398" y="623" on="0"/>
        <pt x="338" y="669" on="0"/>
      </contour>
    </TTGlyph>
    <TTGlyph name="T" xMin="20" yMin="0" xMax="455" yMax="720">
      <contour>
        <pt x="455" y="646" on="1"/>
        <pt x="279" y="646" on="1"/>
        <pt x="279" y="0" on="1"/>
        <pt x="194" y="0" on="1"/>
        <pt x="194" y="646" on="1"/>
        <pt x="20" y="646" on="1"/>
        <pt x="20" y="720" on="1"/>
        <pt x="455" y="720" on="1"/>
      </contour>
    </TTGlyph>
    <TTGlyph name="Thorn" xMin="90" yMin="0" xMax="501" yMax="720">
      <contour>
        <pt x="175" y="720" on="1"/>
        <pt x="175" y="595" on="1"/>
        <pt x="252" y="595" on="1"/>
        <pt x="307" y="595" on="0"/>
        <pt x="399" y="568" on="0"/>
        <pt x="465" y="511" on="0"/>
        <pt x="501" y="425" on="0"/>
        <pt x="501" y="366" on="1"/>
        <pt x="501" y="307" on="0"/>
        <pt x="464" y="220" on="0"/>
        <pt x="398" y="163" on="0"/>
        <pt x="306" y="135" on="0"/>
        <pt x="251" y="135" on="1"/>
        <pt x="175" y="135" on="1"/>
        <pt x="175" y="0" on="1"/>
        <pt x="90" y="0" on="1"/>
        <pt x="90" y="720" on="1"/>
      </contour>
      <contour>
        <pt x="175" y="530" on="1"/>
        <pt x="175" y="200" on="1"/>
        <pt x="250" y="200" on="1"/>
        <pt x="414" y="200" on="0"/>
        <pt x="414" y="366" on="1"/>
        <pt x="414" y="444" on="0"/>
        <pt x="335" y="530" on="0"/>
        <pt x="254" y="530" on="1"/>
      </contour>
    </TTGlyph>
    <TTGlyph name="U" xMin="85" yMin="-15" xMax="524" yMax="720">
      <contour>
        <pt x="170" y="720" on="1"/>
        <pt x="170" y="210" on="1"/>
        <pt x="170" y="135" on="0"/>
        <pt x="232" y="53" on="0"/>
        <pt x="305" y="53" on="1"/>
        <pt x="378" y="53" on="0"/>
        <pt x="443" y="135" on="0"/>
        <pt x="443" y="210" on="1"/>
        <pt x="443" y="720" on="1"/>
        <pt x="524" y="720" on="1"/>
        <pt x="524" y="209" on="1"/>
        <pt x="524" y="99" on="0"/>
        <pt x="411" y="-15" on="0"/>
        <pt x="305" y="-15" on="1"/>
        <pt x="199" y="-15" on="0"/>
        <pt x="85" y="99" on="0"/>
        <pt x="85" y="209" on="1"/>
        <pt x="85" y="720" on="1"/>
      </contour>
    </TTGlyph>
    <TTGlyph name="Uacute" xMin="85" yMin="-15" xMax="524" yMax="905">
      <component glyphName="U" x="0" y="0" flags="0x204"/>
      <component glyphName="acute.cap" x="219" y="0" flags="0x4"/>
    </TTGlyph>
    <TTGlyph name="Ucircumflex" xMin="85" yMin="-15" xMax="524" yMax="893">
      <component glyphName="U" x="0" y="0" flags="0x204"/>
      <component glyphName="circumflex.cap" x="117" y="-2" flags="0x4"/>
    </TTGlyph>
    <TTGlyph name="Udieresis" xMin="85" yMin="-15" xMax="524" yMax="875">
      <component glyphName="U" x="0" y="0" flags="0x204"/>
      <component glyphName="dieresis.cap" x="126" y="0" flags="0x4"/>
    </TTGlyph>
    <TTGlyph name="Ugrave" xMin="85" yMin="-15" xMax="524" yMax="905">
      <component glyphName="U" x="0" y="0" flags="0x204"/>
      <component glyphName="grave.cap" x="119" y="0" flags="0x4"/>
    </TTGlyph>
    <TTGlyph name="V" xMin="10" yMin="0" xMax="515" yMax="720">
      <contour>
        <pt x="515" y="720" on="1"/>
        <pt x="321" y="0" on="1"/>
        <pt x="207" y="0" on="1"/>
        <pt x="10" y="720" on="1"/>
        <pt x="98" y="720" on="1"/>
        <pt x="265" y="61" on="1"/>
        <pt x="437" y="720" on="1"/>
      </contour>
    </TTGlyph>
    <TTGlyph name="W" xMin="25" yMin="0" xMax="734" yMax="720">
      <contour>
        <pt x="734" y="720" on="1"/>
        <pt x="614" y="0" on="1"/>
        <pt x="512" y="0" on="1"/>
        <pt x="385" y="536" on="1"/>
        <pt x="254" y="0" on="1"/>
        <pt x="145" y="0" on="1"/>
        <pt x="25" y="720" on="1"/>
        <pt x="112" y="720" on="1"/>
        <pt x="207" y="89" on="1"/>
        <pt x="334" y="627" on="1"/>
        <pt x="443" y="627" on="1"/>
        <pt x="562" y="91" on="1"/>
        <pt x="656" y="720" on="1"/>
      </contour>
    </TTGlyph>
    <TTGlyph name="X" xMin="35" yMin="0" xMax="515" yMax="720">
      <contour>
        <pt x="320" y="375" on="1"/>
        <pt x="515" y="0" on="1"/>
        <pt x="418" y="0" on="1"/>
        <pt x="274" y="292" on="1"/>
        <pt x="122" y="0" on="1"/>
        <pt x="35" y="0" on="1"/>
        <pt x="232" y="372" on="1"/>
        <pt x="53" y="720" on="1"/>
        <pt x="148" y="720" on="1"/>
        <pt x="281" y="452" on="1"/>
        <pt x="420" y="720" on="1"/>
        <pt x="508" y="720" on="1"/>
      </contour>
    </TTGlyph>
    <TTGlyph name="Y" xMin="10" yMin="0" xMax="502" yMax="720">
      <contour>
        <pt x="502" y="720" on="1"/>
        <pt x="300" y="288" on="1"/>
        <pt x="300" y="0" on="1"/>
        <pt x="216" y="0" on="1"/>
        <pt x="216" y="288" on="1"/>
        <pt x="10" y="720" on="1"/>
        <pt x="103" y="720" on="1"/>
        <pt x="260" y="376" on="1"/>
        <pt x="419" y="720" on="1"/>
      </contour>
    </TTGlyph>
    <TTGlyph name="Yacute" xMin="10" yMin="0" xMax="502" yMax="905">
      <component glyphName="Y" x="0" y="0" flags="0x204"/>
      <component glyphName="acute.cap" x="183" y="0" flags="0x4"/>
    </TTGlyph>
    <TTGlyph name="Z" xMin="40" yMin="0" xMax="450" yMax="720">
      <contour>
        <pt x="129" y="67" on="1"/>
        <pt x="440" y="67" on="1"/>
        <pt x="440" y="0" on="1"/>
        <pt x="40" y="0" on="1"/>
        <pt x="40" y="75" on="1"/>
        <pt x="362" y="653" on="1"/>
        <pt x="63" y="653" on="1"/>
        <pt x="63" y="720" on="1"/>
        <pt x="450" y="720" on="1"/>
        <pt x="450" y="648" on="1"/>
      </contour>
    </TTGlyph>
    <TTGlyph name="a" xMin="10" yMin="0" xMax="527" yMax="560">
      <contour>
        <pt x="438" y="0" on="1"/>
        <pt x="391" y="135" on="1"/>
        <pt x="141" y="135" on="1"/>
        <pt x="93" y="0" on="1"/>
        <pt x="10" y="0" on="1"/>
        <pt x="220" y="560" on="1"/>
        <pt x="318" y="560" on="1"/>
        <pt x="527" y="0" on="1"/>
      </contour>
      <contour>
        <pt x="163" y="199" on="1"/>
        <pt x="369" y="199" on="1"/>
        <pt x="268" y="494" on="1"/>
      </contour>
    </TTGlyph>
    <TTGlyph name="aacute" xMin="10" yMin="0" xMax="527" yMax="775">
      <component glyphName="a" x="0" y="0" flags="0x204"/>
      <component glyphName="acute" x="188" y="0" flags="0x4"/>
    </TTGlyph>
    <TTGlyph name="acircumflex" xMin="10" yMin="0" xMax="527" yMax="765">
      <component glyphName="a" x="0" y="0" flags="0x204"/>
      <component glyphName="circumflex" x="80" y="0" flags="0x4"/>
    </TTGlyph>
    <TTGlyph name="acute" xMin="20" yMin="608" xMax="220" yMax="775">
      <contour>
        <pt x="165" y="775" on="1"/>
        <pt x="220" y="706" on="1"/>
        <pt x="54" y="608" on="1"/>
        <pt x="20" y="651" on="1"/>
      </contour>
    </TTGlyph>
    <TTGlyph name="acute.cap" xMin="45" yMin="758" xMax="244" yMax="905">
      <contour>
        <pt x="201" y="905" on="1"/>
        <pt x="244" y="836" on="1"/>
        <pt x="69" y="758" on="1"/>
        <pt x="45" y="802" on="1"/>
      </contour>
    </TTGlyph>
    <TTGlyph name="adieresis" xMin="10" yMin="0" xMax="527" yMax="745">
      <component glyphName="a" x="0" y="0" flags="0x204"/>
      <component glyphName="dieresis" x="88" y="0" flags="0x4"/>
    </TTGlyph>
    <TTGlyph name="ae" xMin="10" yMin="0" xMax="732" yMax="560">
      <contour>
        <pt x="732" y="0" on="1"/>
        <pt x="442" y="0" on="1"/>
        <pt x="402" y="135" on="1"/>
        <pt x="149" y="135" on="1"/>
        <pt x="93" y="0" on="1"/>
        <pt x="10" y="0" on="1"/>
        <pt x="253" y="560" on="1"/>
        <pt x="714" y="560" on="1"/>
        <pt x="714" y="493" on="1"/>
        <pt x="372" y="493" on="1"/>
        <pt x="427" y="317" on="1"/>
        <pt x="698" y="317" on="1"/>
        <pt x="698" y="252" on="1"/>
        <pt x="448" y="252" on="1"/>
        <pt x="506" y="67" on="1"/>
        <pt x="732" y="67" on="1"/>
      </contour>
      <contour>
        <pt x="176" y="199" on="1"/>
        <pt x="383" y="199" on="1"/>
        <pt x="297" y="488" on="1"/>
      </contour>
    </TTGlyph>
    <TTGlyph name="agrave" xMin="10" yMin="0" xMax="527" yMax="775">
      <component glyphName="a" x="0" y="0" flags="0x204"/>
      <component glyphName="grave" x="78" y="0" flags="0x4"/>
    </TTGlyph>
    <TTGlyph name="ampersand" xMin="80" yMin="-26" xMax="658" yMax="710">
      <contour>
        <pt x="600" y="349" on="1"/>
        <pt x="594" y="290" on="0"/>
        <pt x="565" y="184" on="0"/>
        <pt x="541" y="139" on="1"/>
        <pt x="658" y="21" on="1"/>
        <pt x="604" y="-26" on="1"/>
        <pt x="500" y="79" on="1"/>
        <pt x="463" y="37" on="0"/>
        <pt x="359" y="-10" on="0"/>
        <pt x="289" y="-10" on="1"/>
        <pt x="244" y="-10" on="0"/>
        <pt x="167" y="18" on="0"/>
        <pt x="111" y="67" on="0"/>
        <pt x="80" y="134" on="0"/>
        <pt x="80" y="173" on="1"/>
        <pt x="80" y="208" on="0"/>
        <pt x="98" y="263" on="0"/>
        <pt x="133" y="310" on="0"/>
        <pt x="182" y="350" on="0"/>
        <pt x="213" y="370" on="1"/>
        <pt x="191" y="392" on="0"/>
        <pt x="154" y="433" on="0"/>
        <pt x="126" y="476" on="0"/>
        <pt x="110" y="522" on="0"/>
        <pt x="110" y="548" on="1"/>
        <pt x="110" y="578" on="0"/>
        <pt x="132" y="637" on="0"/>
        <pt x="177" y="682" on="0"/>
        <pt x="245" y="710" on="0"/>
        <pt x="290" y="710" on="1"/>
        <pt x="333" y="710" on="0"/>
        <pt x="399" y="686" on="0"/>
        <pt x="445" y="645" on="0"/>
        <pt x="469" y="592" on="0"/>
        <pt x="469" y="564" on="1"/>
        <pt x="469" y="530" on="0"/>
        <pt x="449" y="476" on="0"/>
        <pt x="412" y="429" on="0"/>
        <pt x="356" y="386" on="0"/>
        <pt x="320" y="364" on="1"/>
        <pt x="489" y="192" on="1"/>
        <pt x="506" y="229" on="0"/>
        <pt x="525" y="312" on="0"/>
        <pt x="528" y="357" on="1"/>
      </contour>
      <contour>
        <pt x="301" y="55" on="1"/>
        <pt x="349" y="55" on="0"/>
        <pt x="423" y="95" on="0"/>
        <pt x="450" y="129" on="1"/>
        <pt x="258" y="325" on="1"/>
        <pt x="232" y="308" on="0"/>
        <pt x="196" y="276" on="0"/>
        <pt x="174" y="242" on="0"/>
        <pt x="163" y="204" on="0"/>
        <pt x="163" y="180" on="1"/>
        <pt x="163" y="158" on="0"/>
        <pt x="177" y="113" on="0"/>
        <pt x="210" y="77" on="0"/>
        <pt x="263" y="55" on="0"/>
      </contour>
      <contour>
        <pt x="188" y="553" on="1"/>
        <pt x="188" y="536" on="0"/>
        <pt x="197" y="507" on="0"/>
        <pt x="218" y="474" on="0"/>
        <pt x="251" y="435" on="0"/>
        <pt x="276" y="409" on="1"/>
        <pt x="311" y="431" on="0"/>
        <pt x="357" y="468" on="0"/>
        <pt x="384" y="503" on="0"/>
        <pt x="395" y="539" on="0"/>
        <pt x="395" y="561" on="1"/>
        <pt x="395" y="600" on="0"/>
        <pt x="334" y="649" on="0"/>
        <pt x="292" y="649" on="1"/>
        <pt x="241" y="649" on="0"/>
        <pt x="188" y="599" on="0"/>
      </contour>
    </TTGlyph>
    <TTGlyph name="aring" xMin="10" yMin="0" xMax="527" yMax="776">
      <contour>
        <pt x="438" y="0" on="1"/>
        <pt x="391" y="135" on="1"/>
        <pt x="141" y="135" on="1"/>
        <pt x="93" y="0" on="1"/>
        <pt x="10" y="0" on="1"/>
        <pt x="218" y="556" on="1"/>
        <pt x="186" y="568" on="0"/>
        <pt x="145" y="622" on="0"/>
        <pt x="145" y="662" on="1"/>
        <pt x="145" y="689" on="0"/>
        <pt x="165" y="731" on="0"/>
        <pt x="198" y="761" on="0"/>
        <pt x="243" y="776" on="0"/>
        <pt x="268" y="776" on="1"/>
        <pt x="293" y="776" on="0"/>
        <pt x="338" y="761" on="0"/>
        <pt x="371" y="731" on="0"/>
        <pt x="391" y="689" on="0"/>
        <pt x="391" y="662" on="1"/>
        <pt x="391" y="622" on="0"/>
        <pt x="351" y="569" on="0"/>
        <pt x="319" y="557" on="1"/>
        <pt x="527" y="0" on="1"/>
      </contour>
      <contour>
        <pt x="163" y="199" on="1"/>
        <pt x="369" y="199" on="1"/>
        <pt x="268" y="494" on="1"/>
      </contour>
      <contour>
        <pt x="268" y="597" on="1"/>
        <pt x="293" y="597" on="0"/>
        <pt x="328" y="630" on="0"/>
        <pt x="328" y="662" on="1"/>
        <pt x="328" y="694" on="0"/>
        <pt x="293" y="727" on="0"/>
        <pt x="268" y="727" on="1"/>
        <pt x="243" y="727" on="0"/>
        <pt x="208" y="694" on="0"/>
        <pt x="208" y="662" on="1"/>
        <pt x="208" y="630" on="0"/>
        <pt x="243" y="597" on="0"/>
      </contour>
    </TTGlyph>
    <TTGlyph name="asciicircum" xMin="40" yMin="400" xMax="460" yMax="720">
      <contour>
        <pt x="207" y="720" on="1"/>
        <pt x="297" y="720" on="1"/>
        <pt x="460" y="400" on="1"/>
        <pt x="376" y="400" on="1"/>
        <pt x="252" y="658" on="1"/>
        <pt x="124" y="400" on="1"/>
        <pt x="40" y="400" on="1"/>
      </contour>
    </TTGlyph>
    <TTGlyph name="asciitilde" xMin="40" yMin="259" xMax="519" yMax="382">
      <contour>
        <pt x="375" y="259" on="1"/>
        <pt x="340" y="259" on="0"/>
        <pt x="289" y="274" on="0"/>
        <pt x="247" y="292" on="0"/>
        <pt x="208" y="307" on="0"/>
        <pt x="184" y="307" on="1"/>
        <pt x="153" y="307" on="0"/>
        <pt x="112" y="282" on="0"/>
        <pt x="90" y="262" on="1"/>
        <pt x="40" y="315" on="1"/>
        <pt x="75" y="349" on="0"/>
        <pt x="149" y="382" on="0"/>
        <pt x="184" y="382" on="1"/>
        <pt x="219" y="382" on="0"/>
        <pt x="270" y="367" on="0"/>
        <pt x="312" y="349" on="0"/>
        <pt x="351" y="334" on="0"/>
        <pt x="375" y="334" on="1"/>
        <pt x="406" y="334" on="0"/>
        <pt x="447" y="359" on="0"/>
        <pt x="469" y="379" on="1"/>
        <pt x="519" y="326" on="1"/>
        <pt x="484" y="292" on="0"/>
        <pt x="410" y="259" on="0"/>
      </contour>
    </TTGlyph>
    <TTGlyph name="asterisk" xMin="49" yMin="383" xMax="420" yMax="735">
      <contour>
        <pt x="258" y="584" on="1"/>
        <pt x="397" y="644" on="1"/>
        <pt x="420" y="572" on="1"/>
        <pt x="275" y="540" on="1"/>
        <pt x="377" y="426" on="1"/>
        <pt x="312" y="384" on="1"/>
        <pt x="235" y="513" on="1"/>
        <pt x="158" y="383" on="1"/>
        <pt x="94" y="426" on="1"/>
        <pt x="195" y="540" on="1"/>
        <pt x="49" y="571" on="1"/>
        <pt x="73" y="643" on="1"/>
        <pt x="211" y="583" on="1"/>
        <pt x="195" y="735" on="1"/>
        <pt x="275" y="735" on="1"/>
      </contour>
    </TTGlyph>
    <TTGlyph name="at" xMin="80" yMin="-91" xMax="840" yMax="735">
      <contour>
        <pt x="654" y="98" on="1"/>
        <pt x="629" y="98" on="0"/>
        <pt x="593" y="113" on="0"/>
        <pt x="568" y="137" on="0"/>
        <pt x="555" y="168" on="0"/>
        <pt x="553" y="184" on="1"/>
        <pt x="539" y="150" on="0"/>
        <pt x="475" y="100" on="0"/>
        <pt x="422" y="100" on="1"/>
        <pt x="395" y="100" on="0"/>
        <pt x="345" y="119" on="0"/>
        <pt x="306" y="163" on="0"/>
        <pt x="283" y="232" on="0"/>
        <pt x="283" y="282" on="1"/>
        <pt x="283" y="328" on="0"/>
        <pt x="304" y="428" on="0"/>
        <pt x="353" y="510" on="0"/>
        <pt x="432" y="563" on="0"/>
        <pt x="490" y="563" on="1"/>
        <pt x="534" y="563" on="0"/>
        <pt x="598" y="540" on="0"/>
        <pt x="627" y="514" on="1"/>
        <pt x="597" y="274" on="1"/>
        <pt x="595" y="263" on="0"/>
        <pt x="594" y="241" on="0"/>
        <pt x="594" y="233" on="1"/>
        <pt x="594" y="188" on="0"/>
        <pt x="623" y="151" on="0"/>
        <pt x="651" y="151" on="1"/>
        <pt x="672" y="151" on="0"/>
        <pt x="712" y="179" on="0"/>
        <pt x="743" y="234" on="0"/>
        <pt x="761" y="316" on="0"/>
        <pt x="761" y="370" on="1"/>
        <pt x="761" y="516" on="0"/>
        <pt x="622" y="678" on="0"/>
        <pt x="486" y="678" on="1"/>
        <pt x="432" y="678" on="0"/>
        <pt x="316" y="635" on="0"/>
        <pt x="220" y="546" on="0"/>
        <pt x="159" y="407" on="0"/>
        <pt x="159" y="311" on="1"/>
        <pt x="159" y="226" on="0"/>
        <pt x="208" y="98" on="0"/>
        <pt x="291" y="13" on="0"/>
        <pt x="400" y="-30" on="0"/>
        <pt x="461" y="-30" on="1"/>
        <pt x="486" y="-30" on="0"/>
        <pt x="525" y="-27" on="0"/>
        <pt x="558" y="-22" on="0"/>
        <pt x="589" y="-15" on="0"/>
        <pt x="606" y="-11" on="1"/>
        <pt x="622" y="-68" on="1"/>
        <pt x="591" y="-76" on="0"/>
        <pt x="519" y="-91" on="0"/>
        <pt x="463" y="-91" on="1"/>
        <pt x="380" y="-91" on="0"/>
        <pt x="240" y="-37" on="0"/>
        <pt x="138" y="66" on="0"/>
        <pt x="80" y="216" on="0"/>
        <pt x="80" y="312" on="1"/>
        <pt x="80" y="429" on="0"/>
        <pt x="158" y="590" on="0"/>
        <pt x="277" y="690" on="0"/>
        <pt x="420" y="735" on="0"/>
        <pt x="486" y="735" on="1"/>
        <pt x="565" y="735" on="0"/>
        <pt x="695" y="690" on="0"/>
        <pt x="788" y="600" on="0"/>
        <pt x="840" y="463" on="0"/>
        <pt x="840" y="371" on="1"/>
        <pt x="840" y="322" on="0"/>
        <pt x="816" y="224" on="0"/>
        <pt x="769" y="146" on="0"/>
        <pt x="699" y="98" on="0"/>
      </contour>
      <contour>
        <pt x="441" y="157" on="1"/>
        <pt x="471" y="157" on="0"/>
        <pt x="517" y="206" on="0"/>
        <pt x="525" y="271" on="1"/>
        <pt x="551" y="490" on="1"/>
        <pt x="541" y="499" on="0"/>
        <pt x="517" y="508" on="0"/>
        <pt x="496" y="508" on="1"/>
        <pt x="454" y="508" on="0"/>
        <pt x="401" y="461" on="0"/>
        <pt x="372" y="391" on="0"/>
        <pt x="361" y="310" on="0"/>
        <pt x="361" y="275" on="1"/>
        <pt x="361" y="239" on="0"/>
        <pt x="374" y="193" on="0"/>
        <pt x="397" y="167" on="0"/>
        <pt x="426" y="157" on="0"/>
      </contour>
    </TTGlyph>
    <TTGlyph name="atilde" xMin="10" yMin="0" xMax="527" yMax="744">
      <component glyphName="a" x="0" y="0" flags="0x204"/>
      <component glyphName="tilde" x="93" y="0" flags="0x4"/>
    </TTGlyph>
    <TTGlyph name="b" xMin="90" yMin="0" xMax="496" yMax="560">
      <contour>
        <pt x="258" y="560" on="1"/>
        <pt x="375" y="560" on="0"/>
        <pt x="474" y="486" on="0"/>
        <pt x="474" y="415" on="1"/>
        <pt x="474" y="365" on="0"/>
        <pt x="417" y="302" on="0"/>
        <pt x="371" y="295" on="1"/>
        <pt x="397" y="292" on="0"/>
        <pt x="442" y="273" on="0"/>
        <pt x="476" y="239" on="0"/>
        <pt x="496" y="189" on="0"/>
        <pt x="496" y="156" on="1"/>
        <pt x="496" y="113" on="0"/>
        <pt x="461" y="53" on="0"/>
        <pt x="398" y="16" on="0"/>
        <pt x="309" y="0" on="0"/>
        <pt x="256" y="0" on="1"/>
        <pt x="90" y="0" on="1"/>
        <pt x="90" y="560" on="1"/>
      </contour>
      <contour>
        <pt x="172" y="262" on="1"/>
        <pt x="172" y="65" on="1"/>
        <pt x="271" y="65" on="1"/>
        <pt x="299" y="65" on="0"/>
        <pt x="350" y="70" on="0"/>
        <pt x="388" y="89" on="0"/>
        <pt x="410" y="125" on="0"/>
        <pt x="410" y="156" on="1"/>
        <pt x="410" y="207" on="0"/>
        <pt x="351" y="262" on="0"/>
        <pt x="275" y="262" on="1"/>
      </contour>
      <contour>
        <pt x="172" y="500" on="1"/>
        <pt x="172" y="324" on="1"/>
        <pt x="272" y="324" on="1"/>
        <pt x="338" y="324" on="0"/>
        <pt x="392" y="370" on="0"/>
        <pt x="392" y="415" on="1"/>
        <pt x="392" y="463" on="0"/>
        <pt x="330" y="500" on="0"/>
        <pt x="266" y="500" on="1"/>
      </contour>
    </TTGlyph>
    <TTGlyph name="backslash" xMin="-12" yMin="-100" xMax="277" yMax="720">
      <contour>
        <pt x="277" y="-85" on="1"/>
        <pt x="208" y="-100" on="1"/>
        <pt x="-12" y="705" on="1"/>
        <pt x="57" y="720" on="1"/>
      </contour>
    </TTGlyph>
    <TTGlyph name="bar" xMin="119" yMin="-120" xMax="201" yMax="800">
      <contour>
        <pt x="201" y="800" on="1"/>
        <pt x="201" y="-120" on="1"/>
        <pt x="119" y="-120" on="1"/>
        <pt x="119" y="800" on="1"/>
      </contour>
    </TTGlyph>
    <TTGlyph name="braceleft" xMin="34" yMin="-170" xMax="287" yMax="810">
      <contour>
        <pt x="34" y="358" on="1"/>
        <pt x="70" y="358" on="0"/>
        <pt x="113" y="398" on="0"/>
        <pt x="113" y="446" on="1"/>
        <pt x="113" y="643" on="1"/>
        <pt x="113" y="685" on="0"/>
        <pt x="131" y="748" on="0"/>
        <pt x="171" y="790" on="0"/>
        <pt x="238" y="810" on="0"/>
        <pt x="287" y="810" on="1"/>
        <pt x="287" y="750" on="1"/>
        <pt x="228" y="750" on="0"/>
        <pt x="188" y="710" on="0"/>
        <pt x="188" y="658" on="1"/>
        <pt x="188" y="468" on="1"/>
        <pt x="188" y="402" on="0"/>
        <pt x="147" y="335" on="0"/>
        <pt x="109" y="321" on="1"/>
        <pt x="147" y="307" on="0"/>
        <pt x="188" y="239" on="0"/>
        <pt x="188" y="173" on="1"/>
        <pt x="188" y="-18" on="1"/>
        <pt x="188" y="-44" on="0"/>
        <pt x="197" y="-80" on="0"/>
        <pt x="219" y="-101" on="0"/>
        <pt x="257" y="-110" on="0"/>
        <pt x="287" y="-110" on="1"/>
        <pt x="287" y="-170" on="1"/>
        <pt x="238" y="-170" on="0"/>
        <pt x="171" y="-150" on="0"/>
        <pt x="131" y="-108" on="0"/>
        <pt x="113" y="-45" on="0"/>
        <pt x="113" y="-3" on="1"/>
        <pt x="113" y="195" on="1"/>
        <pt x="113" y="243" on="0"/>
        <pt x="70" y="283" on="0"/>
        <pt x="34" y="283" on="1"/>
      </contour>
    </TTGlyph>
    <TTGlyph name="braceright" xMin="53" yMin="-170" xMax="306" yMax="810">
      <contour>
        <pt x="306" y="283" on="1"/>
        <pt x="270" y="283" on="0"/>
        <pt x="227" y="243" on="0"/>
        <pt x="227" y="195" on="1"/>
        <pt x="227" y="-3" on="1"/>
        <pt x="227" y="-45" on="0"/>
        <pt x="209" y="-108" on="0"/>
        <pt x="169" y="-150" on="0"/>
        <pt x="102" y="-170" on="0"/>
        <pt x="53" y="-170" on="1"/>
        <pt x="53" y="-110" on="1"/>
        <pt x="83" y="-110" on="0"/>
        <pt x="121" y="-101" on="0"/>
        <pt x="143" y="-80" on="0"/>
        <pt x="152" y="-44" on="0"/>
        <pt x="152" y="-18" on="1"/>
        <pt x="152" y="173" on="1"/>
        <pt x="152" y="239" on="0"/>
        <pt x="193" y="307" on="0"/>
        <pt x="231" y="321" on="1"/>
        <pt x="193" y="335" on="0"/>
        <pt x="152" y="402" on="0"/>
        <pt x="152" y="468" on="1"/>
        <pt x="152" y="658" on="1"/>
        <pt x="152" y="710" on="0"/>
        <pt x="112" y="750" on="0"/>
        <pt x="53" y="750" on="1"/>
        <pt x="53" y="810" on="1"/>
        <pt x="102" y="810" on="0"/>
        <pt x="169" y="790" on="0"/>
        <pt x="209" y="748" on="0"/>
        <pt x="227" y="685" on="0"/>
        <pt x="227" y="643" on="1"/>
        <pt x="227" y="446" on="1"/>
        <pt x="227" y="398" on="0"/>
        <pt x="270" y="358" on="0"/>
        <pt x="306" y="358" on="1"/>
      </contour>
    </TTGlyph>
    <TTGlyph name="bracketleft" xMin="75" yMin="-170" xMax="278" yMax="810">
      <contour>
        <pt x="278" y="-170" on="1"/>
        <pt x="75" y="-170" on="1"/>
        <pt x="75" y="810" on="1"/>
        <pt x="278" y="810" on="1"/>
        <pt x="278" y="742" on="1"/>
        <pt x="153" y="742" on="1"/>
        <pt x="153" y="-102" on="1"/>
        <pt x="278" y="-102" on="1"/>
      </contour>
    </TTGlyph>
    <TTGlyph name="bracketright" xMin="62" yMin="-170" xMax="265" yMax="810">
      <contour>
        <pt x="62" y="-102" on="1"/>
        <pt x="187" y="-102" on="1"/>
        <pt x="187" y="742" on="1"/>
        <pt x="62" y="742" on="1"/>
        <pt x="62" y="810" on="1"/>
        <pt x="265" y="810" on="1"/>
        <pt x="265" y="-170" on="1"/>
        <pt x="62" y="-170" on="1"/>
      </contour>
    </TTGlyph>
    <TTGlyph name="brokenbar" xMin="119" yMin="-120" xMax="201" yMax="800">
      <contour>
        <pt x="201" y="800" on="1"/>
        <pt x="201" y="420" on="1"/>
        <pt x="119" y="420" on="1"/>
        <pt x="119" y="800" on="1"/>
      </contour>
      <contour>
        <pt x="201" y="260" on="1"/>
        <pt x="201" y="-120" on="1"/>
        <pt x="119" y="-120" on="1"/>
        <pt x="119" y="260" on="1"/>
      </contour>
    </TTGlyph>
    <TTGlyph name="bullet" xMin="80" yMin="252" xMax="235" yMax="397">
      <contour>
        <pt x="80" y="252" on="1"/>
        <pt x="80" y="397" on="1"/>
        <pt x="235" y="397" on="1"/>
        <pt x="235" y="252" on="1"/>
      </contour>
    </TTGlyph>
    <TTGlyph name="c" xMin="70" yMin="-15" xMax="507" yMax="575">
      <contour>
        <pt x="507" y="96" on="1"/>
        <pt x="482" y="48" on="0"/>
        <pt x="383" y="-15" on="0"/>
        <pt x="308" y="-15" on="1"/>
        <pt x="269" y="-15" on="0"/>
        <pt x="185" y="13" on="0"/>
        <pt x="115" y="80" on="0"/>
        <pt x="70" y="194" on="0"/>
        <pt x="70" y="280" on="1"/>
        <pt x="70" y="364" on="0"/>
        <pt x="116" y="478" on="0"/>
        <pt x="187" y="546" on="0"/>
        <pt x="273" y="575" on="0"/>
        <pt x="312" y="575" on="1"/>
        <pt x="382" y="575" on="0"/>
        <pt x="472" y="516" on="0"/>
        <pt x="498" y="474" on="1"/>
        <pt x="429" y="440" on="1"/>
        <pt x="413" y="471" on="0"/>
        <pt x="354" y="509" on="0"/>
        <pt x="312" y="509" on="1"/>
        <pt x="285" y="509" on="0"/>
        <pt x="229" y="488" on="0"/>
        <pt x="184" y="435" on="0"/>
        <pt x="155" y="347" on="0"/>
        <pt x="155" y="280" on="1"/>
        <pt x="155" y="214" on="0"/>
        <pt x="184" y="126" on="0"/>
        <pt x="229" y="73" on="0"/>
        <pt x="284" y="52" on="0"/>
        <pt x="311" y="52" on="1"/>
        <pt x="357" y="52" on="0"/>
        <pt x="422" y="95" on="0"/>
        <pt x="439" y="133" on="1"/>
      </contour>
    </TTGlyph>
    <TTGlyph name="caron" xMin="30" yMin="619" xMax="346" yMax="767">
      <contour>
        <pt x="308" y="767" on="1"/>
        <pt x="346" y="720" on="1"/>
        <pt x="224" y="619" on="1"/>
        <pt x="152" y="619" on="1"/>
        <pt x="30" y="720" on="1"/>
        <pt x="68" y="767" on="1"/>
        <pt x="188" y="688" on="1"/>
      </contour>
    </TTGlyph>
    <TTGlyph name="caron.cap" xMin="30" yMin="764" xMax="346" yMax="903">
      <contour>
        <pt x="310" y="903" on="1"/>
        <pt x="346" y="855" on="1"/>
        <pt x="224" y="764" on="1"/>
        <pt x="152" y="764" on="1"/>
        <pt x="30" y="855" on="1"/>
        <pt x="66" y="903" on="1"/>
        <pt x="188" y="833" on="1"/>
      </contour>
    </TTGlyph>
    <TTGlyph name="ccedilla" xMin="70" yMin="-241" xMax="507" yMax="575">
      <contour>
        <pt x="407" y="-142" on="1"/>
        <pt x="407" y="-186" on="0"/>
        <pt x="341" y="-241" on="0"/>
        <pt x="290" y="-241" on="1"/>
        <pt x="261" y="-241" on="0"/>
        <pt x="212" y="-228" on="0"/>
        <pt x="193" y="-217" on="1"/>
        <pt x="218" y="-168" on="1"/>
        <pt x="229" y="-173" on="0"/>
        <pt x="262" y="-182" on="0"/>
        <pt x="277" y="-182" on="1"/>
        <pt x="300" y="-182" on="0"/>
        <pt x="334" y="-164" on="0"/>
        <pt x="334" y="-138" on="1"/>
        <pt x="334" y="-115" on="0"/>
        <pt x="285" y="-94" on="0"/>
        <pt x="248" y="-89" on="1"/>
        <pt x="262" y="-10" on="1"/>
        <pt x="227" y="-4" on="0"/>
        <pt x="158" y="33" on="0"/>
        <pt x="104" y="102" on="0"/>
        <pt x="70" y="206" on="0"/>
        <pt x="70" y="280" on="1"/>
        <pt x="70" y="364" on="0"/>
        <pt x="116" y="478" on="0"/>
        <pt x="187" y="546" on="0"/>
        <pt x="273" y="575" on="0"/>
        <pt x="312" y="575" on="1"/>
        <pt x="382" y="575" on="0"/>
        <pt x="472" y="516" on="0"/>
        <pt x="498" y="474" on="1"/>
        <pt x="429" y="440" on="1"/>
        <pt x="413" y="471" on="0"/>
        <pt x="354" y="509" on="0"/>
        <pt x="312" y="509" on="1"/>
        <pt x="285" y="509" on="0"/>
        <pt x="229" y="488" on="0"/>
        <pt x="184" y="435" on="0"/>
        <pt x="155" y="347" on="0"/>
        <pt x="155" y="280" on="1"/>
        <pt x="155" y="214" on="0"/>
        <pt x="184" y="126" on="0"/>
        <pt x="229" y="73" on="0"/>
        <pt x="284" y="52" on="0"/>
        <pt x="311" y="52" on="1"/>
        <pt x="357" y="52" on="0"/>
        <pt x="422" y="95" on="0"/>
        <pt x="439" y="133" on="1"/>
        <pt x="507" y="96" on="1"/>
        <pt x="484" y="51" on="0"/>
        <pt x="396" y="-9" on="0"/>
        <pt x="330" y="-14" on="1"/>
        <pt x="328" y="-51" on="1"/>
        <pt x="370" y="-60" on="0"/>
        <pt x="407" y="-110" on="0"/>
      </contour>
    </TTGlyph>
    <TTGlyph name="cedilla" xMin="35" yMin="-241" xMax="249" yMax="20">
      <contour>
        <pt x="249" y="-142" on="1"/>
        <pt x="249" y="-186" on="0"/>
        <pt x="183" y="-241" on="0"/>
        <pt x="132" y="-241" on="1"/>
        <pt x="103" y="-241" on="0"/>
        <pt x="54" y="-228" on="0"/>
        <pt x="35" y="-217" on="1"/>
        <pt x="60" y="-168" on="1"/>
        <pt x="71" y="-173" on="0"/>
        <pt x="104" y="-182" on="0"/>
        <pt x="119" y="-182" on="1"/>
        <pt x="142" y="-182" on="0"/>
        <pt x="176" y="-164" on="0"/>
        <pt x="176" y="-138" on="1"/>
        <pt x="176" y="-115" on="0"/>
        <pt x="127" y="-94" on="0"/>
        <pt x="90" y="-89" on="1"/>
        <pt x="110" y="20" on="1"/>
        <pt x="175" y="20" on="1"/>
        <pt x="170" y="-51" on="1"/>
        <pt x="212" y="-60" on="0"/>
        <pt x="249" y="-110" on="0"/>
      </contour>
    </TTGlyph>
    <TTGlyph name="cent" xMin="63" yMin="-135" xMax="473" yMax="690">
      <contour>
        <pt x="147" y="271" on="1"/>
        <pt x="147" y="157" on="0"/>
        <pt x="221" y="53" on="0"/>
        <pt x="283" y="53" on="1"/>
        <pt x="326" y="53" on="0"/>
        <pt x="382" y="94" on="0"/>
        <pt x="408" y="137" on="1"/>
        <pt x="473" y="95" on="1"/>
        <pt x="447" y="55" on="0"/>
        <pt x="370" y="-2" on="0"/>
        <pt x="316" y="-10" on="1"/>
        <pt x="316" y="-135" on="1"/>
        <pt x="244" y="-135" on="1"/>
        <pt x="244" y="-10" on="1"/>
        <pt x="206" y="-4" on="0"/>
        <pt x="140" y="34" on="0"/>
        <pt x="91" y="101" on="0"/>
        <pt x="63" y="201" on="0"/>
        <pt x="63" y="269" on="1"/>
        <pt x="63" y="334" on="0"/>
        <pt x="90" y="434" on="0"/>
        <pt x="139" y="503" on="0"/>
        <pt x="205" y="544" on="0"/>
        <pt x="244" y="551" on="1"/>
        <pt x="244" y="690" on="1"/>
        <pt x="316" y="690" on="1"/>
        <pt x="316" y="553" on="1"/>
        <pt x="361" y="548" on="0"/>
        <pt x="431" y="509" on="0"/>
        <pt x="462" y="468" on="1"/>
        <pt x="400" y="423" on="1"/>
        <pt x="374" y="461" on="0"/>
        <pt x="321" y="491" on="0"/>
        <pt x="285" y="491" on="1"/>
        <pt x="223" y="491" on="0"/>
        <pt x="147" y="385" on="0"/>
      </contour>
    </TTGlyph>
    <TTGlyph name="circumflex" xMin="30" yMin="617" xMax="346" yMax="765">
      <contour>
        <pt x="68" y="617" on="1"/>
        <pt x="30" y="664" on="1"/>
        <pt x="152" y="765" on="1"/>
        <pt x="224" y="765" on="1"/>
        <pt x="346" y="664" on="1"/>
        <pt x="308" y="617" on="1"/>
        <pt x="188" y="696" on="1"/>
      </contour>
    </TTGlyph>
    <TTGlyph name="circumflex.cap" xMin="30" yMin="756" xMax="346" yMax="895">
      <contour>
        <pt x="66" y="756" on="1"/>
        <pt x="30" y="804" on="1"/>
        <pt x="152" y="895" on="1"/>
        <pt x="224" y="895" on="1"/>
        <pt x="346" y="804" on="1"/>
        <pt x="310" y="756" on="1"/>
        <pt x="188" y="826" on="1"/>
      </contour>
    </TTGlyph>
    <TTGlyph name="colon" xMin="65" yMin="0" xMax="165" yMax="540">
      <contour>
        <pt x="65" y="0" on="1"/>
        <pt x="65" y="100" on="1"/>
        <pt x="165" y="100" on="1"/>
        <pt x="165" y="0" on="1"/>
      </contour>
      <contour>
        <pt x="65" y="440" on="1"/>
        <pt x="65" y="540" on="1"/>
        <pt x="165" y="540" on="1"/>
        <pt x="165" y="440" on="1"/>
      </contour>
    </TTGlyph>
    <TTGlyph name="comma" xMin="39" yMin="-152" xMax="165" yMax="100">
      <contour>
        <pt x="95" y="-152" on="1"/>
        <pt x="39" y="-152" on="1"/>
        <pt x="65" y="0" on="1"/>
        <pt x="65" y="100" on="1"/>
        <pt x="165" y="100" on="1"/>
        <pt x="165" y="1" on="1"/>
      </contour>
    </TTGlyph>
    <TTGlyph name="commaaccent" xMin="26" yMin="-270" xMax="136" yMax="-60">
      <contour>
        <pt x="82" y="-270" on="1"/>
        <pt x="26" y="-270" on="1"/>
        <pt x="36" y="-150" on="1"/>
        <pt x="36" y="-60" on="1"/>
        <pt x="136" y="-60" on="1"/>
        <pt x="136" y="-149" on="1"/>
      </contour>
    </TTGlyph>
    <TTGlyph name="copyright" xMin="59" yMin="-15" xMax="783" yMax="735">
      <contour>
        <pt x="551" y="239" on="1"/>
        <pt x="537" y="203" on="0"/>
        <pt x="474" y="155" on="0"/>
        <pt x="420" y="155" on="1"/>
        <pt x="398" y="155" on="0"/>
        <pt x="348" y="172" on="0"/>
        <pt x="306" y="218" on="0"/>
        <pt x="279" y="298" on="0"/>
        <pt x="279" y="361" on="1"/>
        <pt x="279" y="423" on="0"/>
        <pt x="307" y="503" on="0"/>
        <pt x="350" y="549" on="0"/>
        <pt x="402" y="567" on="0"/>
        <pt x="426" y="567" on="1"/>
        <pt x="474" y="567" on="0"/>
        <pt x="531" y="517" on="0"/>
        <pt x="546" y="481" on="1"/>
        <pt x="487" y="460" on="1"/>
        <pt x="483" y="472" on="0"/>
        <pt x="474" y="492" on="0"/>
        <pt x="460" y="507" on="0"/>
        <pt x="440" y="516" on="0"/>
        <pt x="425" y="516" on="1"/>
        <pt x="410" y="516" on="0"/>
        <pt x="382" y="501" on="0"/>
        <pt x="360" y="465" on="0"/>
        <pt x="346" y="406" on="0"/>
        <pt x="346" y="361" on="1"/>
        <pt x="346" y="316" on="0"/>
        <pt x="360" y="257" on="0"/>
        <pt x="383" y="222" on="0"/>
        <pt x="411" y="207" on="0"/>
        <pt x="426" y="207" on="1"/>
        <pt x="457" y="207" on="0"/>
        <pt x="485" y="238" on="0"/>
        <pt x="492" y="261" on="1"/>
      </contour>
      <contour>
        <pt x="783" y="360" on="1"/>
        <pt x="783" y="261" on="0"/>
        <pt x="719" y="120" on="0"/>
        <pt x="616" y="28" on="0"/>
        <pt x="486" y="-15" on="0"/>
        <pt x="421" y="-15" on="1"/>
        <pt x="356" y="-15" on="0"/>
        <pt x="226" y="28" on="0"/>
        <pt x="123" y="120" on="0"/>
        <pt x="59" y="261" on="0"/>
        <pt x="59" y="360" on="1"/>
        <pt x="59" y="459" on="0"/>
        <pt x="123" y="600" on="0"/>
        <pt x="226" y="692" on="0"/>
        <pt x="356" y="735" on="0"/>
        <pt x="421" y="735" on="1"/>
        <pt x="486" y="735" on="0"/>
        <pt x="616" y="692" on="0"/>
        <pt x="719" y="600" on="0"/>
        <pt x="783" y="459" on="0"/>
      </contour>
      <contour>
        <pt x="715" y="360" on="1"/>
        <pt x="715" y="441" on="0"/>
        <pt x="665" y="562" on="0"/>
        <pt x="583" y="641" on="0"/>
        <pt x="477" y="681" on="0"/>
        <pt x="421" y="681" on="1"/>
        <pt x="365" y="681" on="0"/>
        <pt x="259" y="641" on="0"/>
        <pt x="177" y="562" on="0"/>
        <pt x="127" y="441" on="0"/>
        <pt x="127" y="360" on="1"/>
        <pt x="127" y="279" on="0"/>
        <pt x="177" y="158" on="0"/>
        <pt x="259" y="79" on="0"/>
        <pt x="365" y="39" on="0"/>
        <pt x="421" y="39" on="1"/>
        <pt x="477" y="39" on="0"/>
        <pt x="583" y="79" on="0"/>
        <pt x="665" y="158" on="0"/>
        <pt x="715" y="279" on="0"/>
      </contour>
    </TTGlyph>
    <TTGlyph name="currency" xMin="41" yMin="79" xMax="559" yMax="597">
      <contour>
        <pt x="105" y="191" on="1"/>
        <pt x="86" y="219" on="0"/>
        <pt x="64" y="292" on="0"/>
        <pt x="64" y="340" on="1"/>
        <pt x="64" y="385" on="0"/>
        <pt x="84" y="458" on="0"/>
        <pt x="102" y="487" on="1"/>
        <pt x="41" y="549" on="1"/>
        <pt x="89" y="597" on="1"/>
        <pt x="147" y="539" on="1"/>
        <pt x="180" y="567" on="0"/>
        <pt x="260" y="594" on="0"/>
        <pt x="299" y="594" on="1"/>
        <pt x="338" y="594" on="0"/>
        <pt x="418" y="566" on="0"/>
        <pt x="451" y="537" on="1"/>
        <pt x="511" y="597" on="1"/>
        <pt x="559" y="549" on="1"/>
        <pt x="495" y="485" on="1"/>
        <pt x="512" y="456" on="0"/>
        <pt x="533" y="385" on="0"/>
        <pt x="533" y="340" on="1"/>
        <pt x="533" y="293" on="0"/>
        <pt x="512" y="221" on="0"/>
        <pt x="493" y="192" on="1"/>
        <pt x="559" y="127" on="1"/>
        <pt x="511" y="79" on="1"/>
        <pt x="448" y="142" on="1"/>
        <pt x="415" y="116" on="0"/>
        <pt x="337" y="91" on="0"/>
        <pt x="299" y="91" on="1"/>
        <pt x="261" y="91" on="0"/>
        <pt x="183" y="115" on="0"/>
        <pt x="151" y="141" on="1"/>
        <pt x="89" y="79" on="1"/>
        <pt x="41" y="127" on="1"/>
      </contour>
      <contour>
        <pt x="134" y="340" on="1"/>
        <pt x="134" y="250" on="0"/>
        <pt x="227" y="152" on="0"/>
        <pt x="300" y="152" on="1"/>
        <pt x="373" y="152" on="0"/>
        <pt x="463" y="250" on="0"/>
        <pt x="463" y="340" on="1"/>
        <pt x="463" y="385" on="0"/>
        <pt x="439" y="456" on="0"/>
        <pt x="396" y="505" on="0"/>
        <pt x="335" y="532" on="0"/>
        <pt x="299" y="532" on="1"/>
        <pt x="263" y="532" on="0"/>
        <pt x="202" y="505" on="0"/>
        <pt x="158" y="456" on="0"/>
        <pt x="134" y="385" on="0"/>
      </contour>
    </TTGlyph>
    <TTGlyph name="d" xMin="90" yMin="0" xMax="518" yMax="560">
      <contour>
        <pt x="235" y="560" on="1"/>
        <pt x="285" y="560" on="0"/>
        <pt x="386" y="536" on="0"/>
        <pt x="467" y="473" on="0"/>
        <pt x="518" y="364" on="0"/>
        <pt x="518" y="280" on="1"/>
        <pt x="518" y="196" on="0"/>
        <pt x="462" y="87" on="0"/>
        <pt x="378" y="24" on="0"/>
        <pt x="278" y="0" on="0"/>
        <pt x="234" y="0" on="1"/>
        <pt x="90" y="0" on="1"/>
        <pt x="90" y="560" on="1"/>
      </contour>
      <contour>
        <pt x="171" y="499" on="1"/>
        <pt x="171" y="63" on="1"/>
        <pt x="238" y="63" on="1"/>
        <pt x="275" y="63" on="0"/>
        <pt x="347" y="81" on="0"/>
        <pt x="403" y="129" on="0"/>
        <pt x="437" y="213" on="0"/>
        <pt x="437" y="280" on="1"/>
        <pt x="437" y="347" on="0"/>
        <pt x="401" y="432" on="0"/>
        <pt x="343" y="481" on="0"/>
        <pt x="272" y="499" on="0"/>
        <pt x="237" y="499" on="1"/>
      </contour>
    </TTGlyph>
    <TTGlyph name="degree" xMin="40" yMin="424" xMax="315" yMax="710">
      <contour>
        <pt x="40" y="566" on="1"/>
        <pt x="40" y="601" on="0"/>
        <pt x="63" y="655" on="0"/>
        <pt x="101" y="691" on="0"/>
        <pt x="151" y="710" on="0"/>
        <pt x="178" y="710" on="1"/>
        <pt x="205" y="710" on="0"/>
        <pt x="255" y="691" on="0"/>
        <pt x="293" y="655" on="0"/>
        <pt x="315" y="601" on="0"/>
        <pt x="315" y="566" on="1"/>
        <pt x="315" y="531" on="0"/>
        <pt x="293" y="478" on="0"/>
        <pt x="255" y="442" on="0"/>
        <pt x="205" y="424" on="0"/>
        <pt x="178" y="424" on="1"/>
        <pt x="151" y="424" on="0"/>
        <pt x="101" y="442" on="0"/>
        <pt x="63" y="478" on="0"/>
        <pt x="40" y="531" on="0"/>
      </contour>
      <contour>
        <pt x="108" y="566" on="1"/>
        <pt x="108" y="524" on="0"/>
        <pt x="145" y="476" on="0"/>
        <pt x="178" y="476" on="1"/>
        <pt x="211" y="476" on="0"/>
        <pt x="248" y="524" on="0"/>
        <pt x="248" y="566" on="1"/>
        <pt x="248" y="608" on="0"/>
        <pt x="211" y="658" on="0"/>
        <pt x="178" y="658" on="1"/>
        <pt x="145" y="658" on="0"/>
        <pt x="108" y="608" on="0"/>
      </contour>
    </TTGlyph>
    <TTGlyph name="dieresis" xMin="30" yMin="655" xMax="330" yMax="745">
      <contour>
        <pt x="30" y="655" on="1"/>
        <pt x="30" y="745" on="1"/>
        <pt x="125" y="745" on="1"/>
        <pt x="125" y="655" on="1"/>
      </contour>
      <contour>
        <pt x="235" y="655" on="1"/>
        <pt x="235" y="745" on="1"/>
        <pt x="330" y="745" on="1"/>
        <pt x="330" y="655" on="1"/>
      </contour>
    </TTGlyph>
    <TTGlyph name="dieresis.cap" xMin="30" yMin="785" xMax="330" yMax="875">
      <contour>
        <pt x="30" y="785" on="1"/>
        <pt x="30" y="875" on="1"/>
        <pt x="125" y="875" on="1"/>
        <pt x="125" y="785" on="1"/>
      </contour>
      <contour>
        <pt x="235" y="785" on="1"/>
        <pt x="235" y="875" on="1"/>
        <pt x="330" y="875" on="1"/>
        <pt x="330" y="785" on="1"/>
      </contour>
    </TTGlyph>
    <TTGlyph name="divide" xMin="65" yMin="51" xMax="475" yMax="589">
      <contour>
        <pt x="220" y="51" on="1"/>
        <pt x="220" y="151" on="1"/>
        <pt x="320" y="151" on="1"/>
        <pt x="320" y="51" on="1"/>
      </contour>
      <contour>
        <pt x="220" y="489" on="1"/>
        <pt x="220" y="589" on="1"/>
        <pt x="320" y="589" on="1"/>
        <pt x="320" y="489" on="1"/>
      </contour>
      <contour>
        <pt x="65" y="288" on="1"/>
        <pt x="65" y="358" on="1"/>
        <pt x="475" y="358" on="1"/>
        <pt x="475" y="288" on="1"/>
      </contour>
    </TTGlyph>
    <TTGlyph name="dollar" xMin="51" yMin="-135" xMax="490" yMax="820">
      <contour>
        <pt x="280" y="644" on="1"/>
        <pt x="256" y="644" on="0"/>
        <pt x="212" y="632" on="0"/>
        <pt x="179" y="606" on="0"/>
        <pt x="159" y="565" on="0"/>
        <pt x="159" y="537" on="1"/>
        <pt x="159" y="516" on="0"/>
        <pt x="170" y="481" on="0"/>
        <pt x="201" y="449" on="0"/>
        <pt x="257" y="418" on="0"/>
        <pt x="301" y="402" on="1"/>
        <pt x="337" y="389" on="0"/>
        <pt x="406" y="355" on="0"/>
        <pt x="458" y="304" on="0"/>
        <pt x="490" y="232" on="0"/>
        <pt x="490" y="182" on="1"/>
        <pt x="490" y="147" on="0"/>
        <pt x="466" y="82" on="0"/>
        <pt x="421" y="30" on="0"/>
        <pt x="356" y="-6" on="0"/>
        <pt x="316" y="-12" on="1"/>
        <pt x="316" y="-135" on="1"/>
        <pt x="244" y="-135" on="1"/>
        <pt x="244" y="-13" on="1"/>
        <pt x="202" y="-8" on="0"/>
        <pt x="137" y="24" on="0"/>
        <pt x="89" y="69" on="0"/>
        <pt x="58" y="121" on="0"/>
        <pt x="51" y="146" on="1"/>
        <pt x="129" y="160" on="1"/>
        <pt x="135" y="140" on="0"/>
        <pt x="157" y="102" on="0"/>
        <pt x="193" y="72" on="0"/>
        <pt x="245" y="53" on="0"/>
        <pt x="280" y="53" on="1"/>
        <pt x="300" y="53" on="0"/>
        <pt x="345" y="66" on="0"/>
        <pt x="382" y="96" on="0"/>
        <pt x="407" y="142" on="0"/>
        <pt x="407" y="175" on="1"/>
        <pt x="407" y="213" on="0"/>
        <pt x="385" y="262" on="0"/>
        <pt x="340" y="298" on="0"/>
        <pt x="271" y="328" on="0"/>
        <pt x="224" y="347" on="1"/>
        <pt x="146" y="378" on="0"/>
        <pt x="78" y="471" on="0"/>
        <pt x="78" y="528" on="1"/>
        <pt x="78" y="602" on="0"/>
        <pt x="165" y="698" on="0"/>
        <pt x="244" y="708" on="1"/>
        <pt x="244" y="820" on="1"/>
        <pt x="316" y="820" on="1"/>
        <pt x="316" y="707" on="1"/>
        <pt x="351" y="702" on="0"/>
        <pt x="407" y="673" on="0"/>
        <pt x="448" y="633" on="0"/>
        <pt x="477" y="584" on="0"/>
        <pt x="485" y="559" on="1"/>
        <pt x="411" y="545" on="1"/>
        <pt x="399" y="584" on="0"/>
        <pt x="336" y="644" on="0"/>
      </contour>
    </TTGlyph>
    <TTGlyph name="dotaccentcmb" xMin="-92" yMin="658" xMax="0" yMax="755">
      <contour>
        <pt x="-92" y="658" on="1"/>
        <pt x="-92" y="755" on="1"/>
        <pt x="0" y="755" on="1"/>
        <pt x="0" y="658" on="1"/>
      </contour>
    </TTGlyph>
    <TTGlyph name="dotaccentcmb.cap" xMin="-92" yMin="788" xMax="0" yMax="885">
      <contour>
        <pt x="-92" y="788" on="1"/>
        <pt x="-92" y="885" on="1"/>
        <pt x="0" y="885" on="1"/>
        <pt x="0" y="788" on="1"/>
      </contour>
    </TTGlyph>
    <TTGlyph name="dotlessi" xMin="90" yMin="0" xMax="172" yMax="560">
      <contour>
        <pt x="172" y="560" on="1"/>
        <pt x="172" y="0" on="1"/>
        <pt x="90" y="0" on="1"/>
        <pt x="90" y="560" on="1"/>
      </contour>
    </TTGlyph>
    <TTGlyph name="dotlessj" xMin="15" yMin="-13" xMax="232" yMax="560">
      <contour>
        <pt x="150" y="560" on="1"/>
        <pt x="232" y="560" on="1"/>
        <pt x="232" y="130" on="1"/>
        <pt x="232" y="62" on="0"/>
        <pt x="167" y="-13" on="0"/>
        <pt x="98" y="-13" on="1"/>
        <pt x="73" y="-13" on="0"/>
        <pt x="31" y="-5" on="0"/>
        <pt x="15" y="0" on="1"/>
        <pt x="15" y="68" on="1"/>
        <pt x="30" y="63" on="0"/>
        <pt x="69" y="55" on="0"/>
        <pt x="89" y="55" on="1"/>
        <pt x="122" y="55" on="0"/>
        <pt x="150" y="85" on="0"/>
        <pt x="150" y="134" on="1"/>
      </contour>
    </TTGlyph>
    <TTGlyph name="e" xMin="90" yMin="0" xMax="429" yMax="560">
      <contour>
        <pt x="400" y="252" on="1"/>
        <pt x="172" y="252" on="1"/>
        <pt x="172" y="67" on="1"/>
        <pt x="429" y="67" on="1"/>
        <pt x="429" y="0" on="1"/>
        <pt x="90" y="0" on="1"/>
        <pt x="90" y="560" on="1"/>
        <pt x="429" y="560" on="1"/>
        <pt x="429" y="493" on="1"/>
        <pt x="172" y="493" on="1"/>
        <pt x="172" y="317" on="1"/>
        <pt x="400" y="317" on="1"/>
      </contour>
    </TTGlyph>
    <TTGlyph name="eacute" xMin="90" yMin="0" xMax="429" yMax="775">
      <component glyphName="e" x="0" y="0" flags="0x204"/>
      <component glyphName="acute" x="164" y="0" flags="0x4"/>
    </TTGlyph>
    <TTGlyph name="ecircumflex" xMin="90" yMin="0" xMax="429" yMax="765">
      <component glyphName="e" x="0" y="0" flags="0x204"/>
      <component glyphName="circumflex" x="74" y="0" flags="0x4"/>
    </TTGlyph>
    <TTGlyph name="edieresis" xMin="90" yMin="0" xMax="429" yMax="745">
      <component glyphName="e" x="0" y="0" flags="0x204"/>
      <component glyphName="dieresis" x="80" y="0" flags="0x4"/>
    </TTGlyph>
    <TTGlyph name="egrave" xMin="90" yMin="0" xMax="429" yMax="775">
      <component glyphName="e" x="0" y="0" flags="0x204"/>
      <component glyphName="grave" x="84" y="0" flags="0x4"/>
    </TTGlyph>
    <TTGlyph name="eight" xMin="54" yMin="-10" xMax="486" yMax="710">
      <contour>
        <pt x="54" y="177" on="1"/>
        <pt x="54" y="219" on="0"/>
        <pt x="80" y="285" on="0"/>
        <pt x="120" y="333" on="0"/>
        <pt x="167" y="365" on="0"/>
        <pt x="187" y="374" on="1"/>
        <pt x="169" y="384" on="0"/>
        <pt x="132" y="411" on="0"/>
        <pt x="102" y="449" on="0"/>
        <pt x="83" y="498" on="0"/>
        <pt x="83" y="530" on="1"/>
        <pt x="83" y="576" on="0"/>
        <pt x="115" y="644" on="0"/>
        <pt x="167" y="689" on="0"/>
        <pt x="234" y="710" on="0"/>
        <pt x="270" y="710" on="1"/>
        <pt x="306" y="710" on="0"/>
        <pt x="373" y="691" on="0"/>
        <pt x="425" y="650" on="0"/>
        <pt x="457" y="584" on="0"/>
        <pt x="457" y="537" on="1"/>
        <pt x="457" y="507" on="0"/>
        <pt x="437" y="456" on="0"/>
        <pt x="406" y="416" on="0"/>
        <pt x="366" y="386" on="0"/>
        <pt x="346" y="376" on="1"/>
        <pt x="373" y="363" on="0"/>
        <pt x="423" y="329" on="0"/>
        <pt x="462" y="282" on="0"/>
        <pt x="486" y="223" on="0"/>
        <pt x="486" y="184" on="1"/>
        <pt x="486" y="142" on="0"/>
        <pt x="456" y="71" on="0"/>
        <pt x="399" y="19" on="0"/>
        <pt x="319" y="-10" on="0"/>
        <pt x="270" y="-10" on="1"/>
        <pt x="220" y="-10" on="0"/>
        <pt x="141" y="19" on="0"/>
        <pt x="84" y="70" on="0"/>
        <pt x="54" y="138" on="0"/>
      </contour>
      <contour>
        <pt x="400" y="184" on="1"/>
        <pt x="400" y="219" on="0"/>
        <pt x="374" y="268" on="0"/>
        <pt x="330" y="305" on="0"/>
        <pt x="270" y="334" on="0"/>
        <pt x="237" y="349" on="1"/>
        <pt x="218" y="338" on="0"/>
        <pt x="183" y="309" on="0"/>
        <pt x="156" y="270" on="0"/>
        <pt x="140" y="218" on="0"/>
        <pt x="140" y="184" on="1"/>
        <pt x="140" y="155" on="0"/>
        <pt x="159" y="107" on="0"/>
        <pt x="193" y="72" on="0"/>
        <pt x="241" y="52" on="0"/>
        <pt x="270" y="52" on="1"/>
        <pt x="328" y="52" on="0"/>
        <pt x="400" y="122" on="0"/>
      </contour>
      <contour>
        <pt x="162" y="535" on="1"/>
        <pt x="162" y="507" on="0"/>
        <pt x="185" y="466" on="0"/>
        <pt x="222" y="435" on="0"/>
        <pt x="269" y="411" on="0"/>
        <pt x="293" y="401" on="1"/>
        <pt x="327" y="422" on="0"/>
        <pt x="376" y="485" on="0"/>
        <pt x="376" y="535" on="1"/>
        <pt x="376" y="568" on="0"/>
        <pt x="359" y="612" on="0"/>
        <pt x="330" y="640" on="0"/>
        <pt x="291" y="652" on="0"/>
        <pt x="270" y="652" on="1"/>
        <pt x="249" y="652" on="0"/>
        <pt x="210" y="639" on="0"/>
        <pt x="180" y="611" on="0"/>
        <pt x="162" y="567" on="0"/>
      </contour>
    </TTGlyph>
    <TTGlyph name="emdash" xMin="0" yMin="287" xMax="600" yMax="359">
      <contour>
        <pt x="0" y="287" on="1"/>
        <pt x="0" y="359" on="1"/>
        <pt x="600" y="359" on="1"/>
        <pt x="600" y="287" on="1"/>
      </contour>
    </TTGlyph>
    <TTGlyph name="endash" xMin="0" yMin="287" xMax="400" yMax="359">
      <contour>
        <pt x="0" y="287" on="1"/>
        <pt x="0" y="359" on="1"/>
        <pt x="400" y="359" on="1"/>
        <pt x="400" y="287" on="1"/>
      </contour>
    </TTGlyph>
    <TTGlyph name="equal" xMin="65" yMin="191" xMax="475" yMax="461">
      <contour>
        <pt x="65" y="391" on="1"/>
        <pt x="65" y="461" on="1"/>
        <pt x="475" y="461" on="1"/>
        <pt x="475" y="391" on="1"/>
      </contour>
      <contour>
        <pt x="65" y="191" on="1"/>
        <pt x="65" y="261" on="1"/>
        <pt x="475" y="261" on="1"/>
        <pt x="475" y="191" on="1"/>
      </contour>
    </TTGlyph>
    <TTGlyph name="eth" xMin="40" yMin="0" xMax="528" yMax="560">
      <contour>
        <pt x="100" y="250" on="1"/>
        <pt x="40" y="250" on="1"/>
        <pt x="40" y="313" on="1"/>
        <pt x="100" y="313" on="1"/>
        <pt x="100" y="560" on="1"/>
        <pt x="245" y="560" on="1"/>
        <pt x="295" y="560" on="0"/>
        <pt x="396" y="536" on="0"/>
        <pt x="477" y="473" on="0"/>
        <pt x="528" y="364" on="0"/>
        <pt x="528" y="280" on="1"/>
        <pt x="528" y="196" on="0"/>
        <pt x="472" y="87" on="0"/>
        <pt x="388" y="24" on="0"/>
        <pt x="288" y="0" on="0"/>
        <pt x="244" y="0" on="1"/>
        <pt x="100" y="0" on="1"/>
      </contour>
      <contour>
        <pt x="181" y="250" on="1"/>
        <pt x="181" y="63" on="1"/>
        <pt x="248" y="63" on="1"/>
        <pt x="285" y="63" on="0"/>
        <pt x="357" y="81" on="0"/>
        <pt x="413" y="129" on="0"/>
        <pt x="447" y="213" on="0"/>
        <pt x="447" y="280" on="1"/>
        <pt x="447" y="347" on="0"/>
        <pt x="411" y="432" on="0"/>
        <pt x="353" y="481" on="0"/>
        <pt x="282" y="499" on="0"/>
        <pt x="247" y="499" on="1"/>
        <pt x="181" y="499" on="1"/>
        <pt x="181" y="313" on="1"/>
        <pt x="344" y="313" on="1"/>
        <pt x="344" y="250" on="1"/>
      </contour>
    </TTGlyph>
    <TTGlyph name="exclam" xMin="85" yMin="0" xMax="185" yMax="720">
      <contour>
        <pt x="98" y="240" on="1"/>
        <pt x="88" y="720" on="1"/>
        <pt x="178" y="720" on="1"/>
        <pt x="168" y="240" on="1"/>
      </contour>
      <contour>
        <pt x="85" y="0" on="1"/>
        <pt x="85" y="100" on="1"/>
        <pt x="185" y="100" on="1"/>
        <pt x="185" y="0" on="1"/>
      </contour>
    </TTGlyph>
    <TTGlyph name="exclamdown" xMin="85" yMin="-180" xMax="185" yMax="540">
      <contour>
        <pt x="172" y="300" on="1"/>
        <pt x="182" y="-180" on="1"/>
        <pt x="92" y="-180" on="1"/>
        <pt x="102" y="300" on="1"/>
      </contour>
      <contour>
        <pt x="185" y="540" on="1"/>
        <pt x="185" y="440" on="1"/>
        <pt x="85" y="440" on="1"/>
        <pt x="85" y="540" on="1"/>
      </contour>
    </TTGlyph>
    <TTGlyph name="f" xMin="90" yMin="0" xMax="411" yMax="560">
      <contour>
        <pt x="382" y="242" on="1"/>
        <pt x="172" y="242" on="1"/>
        <pt x="172" y="0" on="1"/>
        <pt x="90" y="0" on="1"/>
        <pt x="90" y="560" on="1"/>
        <pt x="411" y="560" on="1"/>
        <pt x="411" y="493" on="1"/>
        <pt x="172" y="493" on="1"/>
        <pt x="172" y="307" on="1"/>
        <pt x="382" y="307" on="1"/>
      </contour>
    </TTGlyph>
    <TTGlyph name="five" xMin="74" yMin="-10" xMax="470" yMax="700">
      <contour>
        <pt x="145" y="128" on="1"/>
        <pt x="157" y="98" on="0"/>
        <pt x="213" y="54" on="0"/>
        <pt x="257" y="54" on="1"/>
        <pt x="276" y="54" on="0"/>
        <pt x="322" y="69" on="0"/>
        <pt x="361" y="108" on="0"/>
        <pt x="387" y="176" on="0"/>
        <pt x="387" y="230" on="1"/>
        <pt x="387" y="275" on="0"/>
        <pt x="369" y="337" on="0"/>
        <pt x="337" y="374" on="0"/>
        <pt x="294" y="391" on="0"/>
        <pt x="269" y="391" on="1"/>
        <pt x="245" y="391" on="0"/>
        <pt x="191" y="371" on="0"/>
        <pt x="164" y="343" on="1"/>
        <pt x="98" y="350" on="1"/>
        <pt x="117" y="700" on="1"/>
        <pt x="431" y="700" on="1"/>
        <pt x="431" y="636" on="1"/>
        <pt x="189" y="636" on="1"/>
        <pt x="177" y="413" on="1"/>
        <pt x="200" y="429" on="0"/>
        <pt x="257" y="450" on="0"/>
        <pt x="290" y="450" on="1"/>
        <pt x="326" y="450" on="0"/>
        <pt x="391" y="429" on="0"/>
        <pt x="441" y="378" on="0"/>
        <pt x="470" y="292" on="0"/>
        <pt x="470" y="226" on="1"/>
        <pt x="470" y="174" on="0"/>
        <pt x="439" y="88" on="0"/>
        <pt x="383" y="25" on="0"/>
        <pt x="304" y="-10" on="0"/>
        <pt x="256" y="-10" on="1"/>
        <pt x="186" y="-10" on="0"/>
        <pt x="97" y="50" on="0"/>
        <pt x="74" y="98" on="1"/>
      </contour>
    </TTGlyph>
    <TTGlyph name="foundryicon" xMin="144" yMin="0" xMax="720" yMax="576">
      <contour>
        <pt x="144" y="0" on="1"/>
        <pt x="144" y="576" on="1"/>
        <pt x="432" y="576" on="1"/>
        <pt x="432" y="288" on="1"/>
        <pt x="720" y="288" on="1"/>
        <pt x="720" y="0" on="1"/>
      </contour>
      <contour>
        <pt x="576" y="432" on="1"/>
        <pt x="576" y="576" on="1"/>
        <pt x="720" y="576" on="1"/>
        <pt x="720" y="432" on="1"/>
      </contour>
    </TTGlyph>
    <TTGlyph name="four" xMin="71" yMin="0" xMax="485" yMax="708">
      <contour>
        <pt x="389" y="444" on="1"/>
        <pt x="389" y="202" on="1"/>
        <pt x="485" y="202" on="1"/>
        <pt x="485" y="137" on="1"/>
        <pt x="389" y="137" on="1"/>
        <pt x="389" y="0" on="1"/>
        <pt x="312" y="0" on="1"/>
        <pt x="312" y="137" on="1"/>
        <pt x="71" y="137" on="1"/>
        <pt x="71" y="209" on="1"/>
        <pt x="220" y="708" on="1"/>
        <pt x="294" y="694" on="1"/>
        <pt x="149" y="202" on="1"/>
        <pt x="312" y="202" on="1"/>
        <pt x="312" y="338" on="1"/>
        <pt x="331" y="444" on="1"/>
      </contour>
    </TTGlyph>
    <TTGlyph name="g" xMin="70" yMin="-15" xMax="498" yMax="575">
      <contour>
        <pt x="430" y="444" on="1"/>
        <pt x="410" y="477" on="0"/>
        <pt x="356" y="513" on="0"/>
        <pt x="311" y="513" on="1"/>
        <pt x="284" y="513" on="0"/>
        <pt x="228" y="492" on="0"/>
        <pt x="182" y="439" on="0"/>
        <pt x="153" y="349" on="0"/>
        <pt x="153" y="280" on="1"/>
        <pt x="153" y="214" on="0"/>
        <pt x="178" y="125" on="0"/>
        <pt x="220" y="71" on="0"/>
        <pt x="273" y="48" on="0"/>
        <pt x="300" y="48" on="1"/>
        <pt x="343" y="48" on="0"/>
        <pt x="406" y="93" on="0"/>
        <pt x="426" y="121" on="1"/>
        <pt x="426" y="246" on="1"/>
        <pt x="308" y="246" on="1"/>
        <pt x="308" y="309" on="1"/>
        <pt x="498" y="309" on="1"/>
        <pt x="498" y="0" on="1"/>
        <pt x="442" y="0" on="1"/>
        <pt x="437" y="56" on="1"/>
        <pt x="418" y="25" on="0"/>
        <pt x="342" y="-15" on="0"/>
        <pt x="298" y="-15" on="1"/>
        <pt x="257" y="-15" on="0"/>
        <pt x="176" y="15" on="0"/>
        <pt x="111" y="85" on="0"/>
        <pt x="70" y="197" on="0"/>
        <pt x="70" y="280" on="1"/>
        <pt x="70" y="366" on="0"/>
        <pt x="116" y="480" on="0"/>
        <pt x="187" y="547" on="0"/>
        <pt x="272" y="575" on="0"/>
        <pt x="310" y="575" on="1"/>
        <pt x="344" y="575" on="0"/>
        <pt x="400" y="559" on="0"/>
        <pt x="445" y="533" on="0"/>
        <pt x="478" y="498" on="0"/>
        <pt x="489" y="480" on="1"/>
      </contour>
    </TTGlyph>
    <TTGlyph name="germandbls" xMin="50" yMin="-15" xMax="963" yMax="567">
      <contour>
        <pt x="119" y="136" on="1"/>
        <pt x="125" y="122" on="0"/>
        <pt x="149" y="91" on="0"/>
        <pt x="185" y="65" on="0"/>
        <pt x="234" y="49" on="0"/>
        <pt x="264" y="49" on="1"/>
        <pt x="286" y="49" on="0"/>
        <pt x="330" y="59" on="0"/>
        <pt x="364" y="81" on="0"/>
        <pt x="386" y="116" on="0"/>
        <pt x="386" y="141" on="1"/>
        <pt x="386" y="166" on="0"/>
        <pt x="371" y="199" on="0"/>
        <pt x="335" y="224" on="0"/>
        <pt x="275" y="247" on="0"/>
        <pt x="230" y="262" on="1"/>
        <pt x="158" y="286" on="0"/>
        <pt x="75" y="358" on="0"/>
        <pt x="75" y="421" on="1"/>
        <pt x="75" y="449" on="0"/>
        <pt x="101" y="502" on="0"/>
        <pt x="150" y="543" on="0"/>
        <pt x="221" y="567" on="0"/>
        <pt x="267" y="567" on="1"/>
        <pt x="336" y="567" on="0"/>
        <pt x="433" y="509" on="0"/>
        <pt x="459" y="461" on="1"/>
        <pt x="389" y="433" on="1"/>
        <pt x="371" y="468" on="0"/>
        <pt x="314" y="505" on="0"/>
        <pt x="269" y="505" on="1"/>
        <pt x="247" y="505" on="0"/>
        <pt x="205" y="496" on="0"/>
        <pt x="173" y="477" on="0"/>
        <pt x="153" y="448" on="0"/>
        <pt x="153" y="427" on="1"/>
        <pt x="153" y="406" on="0"/>
        <pt x="168" y="377" on="0"/>
        <pt x="200" y="353" on="0"/>
        <pt x="252" y="332" on="0"/>
        <pt x="290" y="318" on="1"/>
        <pt x="334" y="302" on="0"/>
        <pt x="400" y="273" on="0"/>
        <pt x="445" y="235" on="0"/>
        <pt x="467" y="183" on="0"/>
        <pt x="467" y="144" on="1"/>
        <pt x="467" y="109" on="0"/>
        <pt x="438" y="51" on="0"/>
        <pt x="385" y="9" on="0"/>
        <pt x="310" y="-15" on="0"/>
        <pt x="264" y="-15" on="1"/>
        <pt x="219" y="-15" on="0"/>
        <pt x="148" y="7" on="0"/>
        <pt x="95" y="42" on="0"/>
        <pt x="59" y="84" on="0"/>
        <pt x="50" y="104" on="1"/>
      </contour>
      <contour>
        <pt x="615" y="136" on="1"/>
        <pt x="621" y="122" on="0"/>
        <pt x="645" y="91" on="0"/>
        <pt x="681" y="65" on="0"/>
        <pt x="730" y="49" on="0"/>
        <pt x="760" y="49" on="1"/>
        <pt x="782" y="49" on="0"/>
        <pt x="826" y="59" on="0"/>
        <pt x="860" y="81" on="0"/>
        <pt x="882" y="116" on="0"/>
        <pt x="882" y="141" on="1"/>
        <pt x="882" y="166" on="0"/>
        <pt x="867" y="199" on="0"/>
        <pt x="831" y="224" on="0"/>
        <pt x="771" y="247" on="0"/>
        <pt x="726" y="262" on="1"/>
        <pt x="654" y="286" on="0"/>
        <pt x="571" y="358" on="0"/>
        <pt x="571" y="421" on="1"/>
        <pt x="571" y="449" on="0"/>
        <pt x="597" y="502" on="0"/>
        <pt x="646" y="543" on="0"/>
        <pt x="717" y="567" on="0"/>
        <pt x="763" y="567" on="1"/>
        <pt x="832" y="567" on="0"/>
        <pt x="929" y="509" on="0"/>
        <pt x="955" y="461" on="1"/>
        <pt x="885" y="433" on="1"/>
        <pt x="867" y="468" on="0"/>
        <pt x="810" y="505" on="0"/>
        <pt x="765" y="505" on="1"/>
        <pt x="743" y="505" on="0"/>
        <pt x="701" y="496" on="0"/>
        <pt x="669" y="477" on="0"/>
        <pt x="649" y="448" on="0"/>
        <pt x="649" y="427" on="1"/>
        <pt x="649" y="406" on="0"/>
        <pt x="664" y="377" on="0"/>
        <pt x="696" y="353" on="0"/>
        <pt x="748" y="332" on="0"/>
        <pt x="786" y="318" on="1"/>
        <pt x="830" y="302" on="0"/>
        <pt x="896" y="273" on="0"/>
        <pt x="941" y="235" on="0"/>
        <pt x="963" y="183" on="0"/>
        <pt x="963" y="144" on="1"/>
        <pt x="963" y="109" on="0"/>
        <pt x="934" y="51" on="0"/>
        <pt x="881" y="9" on="0"/>
        <pt x="806" y="-15" on="0"/>
        <pt x="760" y="-15" on="1"/>
        <pt x="715" y="-15" on="0"/>
        <pt x="644" y="7" on="0"/>
        <pt x="591" y="42" on="0"/>
        <pt x="555" y="84" on="0"/>
        <pt x="546" y="104" on="1"/>
      </contour>
    </TTGlyph>
    <TTGlyph name="grave" xMin="50" yMin="608" xMax="250" yMax="775">
      <contour>
        <pt x="250" y="651" on="1"/>
        <pt x="216" y="608" on="1"/>
        <pt x="50" y="706" on="1"/>
        <pt x="105" y="775" on="1"/>
      </contour>
    </TTGlyph>
    <TTGlyph name="grave.cap" xMin="31" yMin="758" xMax="230" yMax="905">
      <contour>
        <pt x="230" y="802" on="1"/>
        <pt x="206" y="758" on="1"/>
        <pt x="31" y="836" on="1"/>
        <pt x="74" y="905" on="1"/>
      </contour>
    </TTGlyph>
    <TTGlyph name="greater" xMin="60" yMin="99" xMax="475" yMax="533">
      <contour>
        <pt x="83" y="99" on="1"/>
        <pt x="60" y="168" on="1"/>
        <pt x="412" y="325" on="1"/>
        <pt x="60" y="464" on="1"/>
        <pt x="83" y="533" on="1"/>
        <pt x="475" y="371" on="1"/>
        <pt x="475" y="281" on="1"/>
      </contour>
    </TTGlyph>
    <TTGlyph name="guillemotleft" xMin="60" yMin="81" xMax="410" yMax="511">
      <contour>
        <pt x="60" y="306" on="1"/>
        <pt x="177" y="511" on="1"/>
        <pt x="231" y="491" on="1"/>
        <pt x="149" y="303" on="1"/>
        <pt x="221" y="101" on="1"/>
        <pt x="167" y="81" on="1"/>
      </contour>
      <contour>
        <pt x="239" y="306" on="1"/>
        <pt x="356" y="511" on="1"/>
        <pt x="410" y="491" on="1"/>
        <pt x="328" y="303" on="1"/>
        <pt x="400" y="101" on="1"/>
        <pt x="346" y="81" on="1"/>
      </contour>
    </TTGlyph>
    <TTGlyph name="guillemotright" xMin="80" yMin="81" xMax="430" yMax="511">
      <contour>
        <pt x="323" y="81" on="1"/>
        <pt x="269" y="101" on="1"/>
        <pt x="341" y="303" on="1"/>
        <pt x="259" y="491" on="1"/>
        <pt x="313" y="511" on="1"/>
        <pt x="430" y="306" on="1"/>
      </contour>
      <contour>
        <pt x="144" y="81" on="1"/>
        <pt x="90" y="101" on="1"/>
        <pt x="162" y="303" on="1"/>
        <pt x="80" y="491" on="1"/>
        <pt x="134" y="511" on="1"/>
        <pt x="251" y="306" on="1"/>
      </contour>
    </TTGlyph>
    <TTGlyph name="guilsinglleft" xMin="60" yMin="81" xMax="231" yMax="511">
      <contour>
        <pt x="60" y="306" on="1"/>
        <pt x="177" y="511" on="1"/>
        <pt x="231" y="491" on="1"/>
        <pt x="149" y="303" on="1"/>
        <pt x="221" y="101" on="1"/>
        <pt x="167" y="81" on="1"/>
      </contour>
    </TTGlyph>
    <TTGlyph name="guilsinglright" xMin="80" yMin="81" xMax="251" yMax="511">
      <contour>
        <pt x="144" y="81" on="1"/>
        <pt x="90" y="101" on="1"/>
        <pt x="162" y="303" on="1"/>
        <pt x="80" y="491" on="1"/>
        <pt x="134" y="511" on="1"/>
        <pt x="251" y="306" on="1"/>
      </contour>
    </TTGlyph>
    <TTGlyph name="h" xMin="90" yMin="0" xMax="517" yMax="560">
      <contour>
        <pt x="517" y="560" on="1"/>
        <pt x="517" y="0" on="1"/>
        <pt x="434" y="0" on="1"/>
        <pt x="434" y="251" on="1"/>
        <pt x="172" y="251" on="1"/>
        <pt x="172" y="0" on="1"/>
        <pt x="90" y="0" on="1"/>
        <pt x="90" y="560" on="1"/>
        <pt x="172" y="560" on="1"/>
        <pt x="172" y="318" on="1"/>
        <pt x="434" y="318" on="1"/>
        <pt x="434" y="560" on="1"/>
      </contour>
    </TTGlyph>
    <TTGlyph name="hbar" xMin="40" yMin="0" xMax="587" yMax="560">
      <contour>
        <pt x="527" y="560" on="1"/>
        <pt x="527" y="482" on="1"/>
        <pt x="587" y="482" on="1"/>
        <pt x="587" y="423" on="1"/>
        <pt x="527" y="423" on="1"/>
        <pt x="527" y="0" on="1"/>
        <pt x="444" y="0" on="1"/>
        <pt x="444" y="251" on="1"/>
        <pt x="182" y="251" on="1"/>
        <pt x="182" y="0" on="1"/>
        <pt x="100" y="0" on="1"/>
        <pt x="100" y="423" on="1"/>
        <pt x="40" y="423" on="1"/>
        <pt x="40" y="482" on="1"/>
        <pt x="100" y="482" on="1"/>
        <pt x="100" y="560" on="1"/>
        <pt x="182" y="560" on="1"/>
        <pt x="182" y="482" on="1"/>
        <pt x="444" y="482" on="1"/>
        <pt x="444" y="560" on="1"/>
      </contour>
      <contour>
        <pt x="182" y="318" on="1"/>
        <pt x="444" y="318" on="1"/>
        <pt x="444" y="423" on="1"/>
        <pt x="182" y="423" on="1"/>
      </contour>
    </TTGlyph>
    <TTGlyph name="hyphen" xMin="60" yMin="287" xMax="365" yMax="359">
      <contour>
        <pt x="60" y="287" on="1"/>
        <pt x="60" y="359" on="1"/>
        <pt x="365" y="359" on="1"/>
        <pt x="365" y="287" on="1"/>
      </contour>
    </TTGlyph>
    <TTGlyph name="i" xMin="90" yMin="0" xMax="172" yMax="560">
      <contour>
        <pt x="172" y="560" on="1"/>
        <pt x="172" y="0" on="1"/>
        <pt x="90" y="0" on="1"/>
        <pt x="90" y="560" on="1"/>
      </contour>
    </TTGlyph>
    <TTGlyph name="iacute" xMin="71" yMin="0" xMax="271" yMax="775">
      <component glyphName="dotlessi" x="0" y="0" flags="0x204"/>
      <component glyphName="acute" x="51" y="0" flags="0x4"/>
    </TTGlyph>
    <TTGlyph name="icircumflex" xMin="-26" yMin="0" xMax="290" yMax="765">
      <component glyphName="dotlessi" x="0" y="0" flags="0x204"/>
      <component glyphName="circumflex" x="-56" y="0" flags="0x4"/>
    </TTGlyph>
    <TTGlyph name="idieresis" xMin="-18" yMin="0" xMax="282" yMax="745">
      <component glyphName="dotlessi" x="0" y="0" flags="0x204"/>
      <component glyphName="dieresis" x="-48" y="0" flags="0x4"/>
    </TTGlyph>
    <TTGlyph name="igrave" xMin="-8" yMin="0" xMax="192" yMax="775">
      <component glyphName="dotlessi" x="0" y="0" flags="0x204"/>
      <component glyphName="grave" x="-58" y="0" flags="0x4"/>
    </TTGlyph>
    <TTGlyph name="ij" xMin="90" yMin="-13" xMax="494" yMax="560">
      <component glyphName="i" x="0" y="0" flags="0x4"/>
      <component glyphName="j" x="198" y="0" flags="0x4"/>
    </TTGlyph>
    <TTGlyph name="itilde" xMin="-23" yMin="0" xMax="287" yMax="744">
      <component glyphName="dotlessi" x="0" y="0" flags="0x204"/>
      <component glyphName="tilde" x="-43" y="0" flags="0x4"/>
    </TTGlyph>
    <TTGlyph name="j" xMin="5" yMin="-13" xMax="296" yMax="560">
      <contour>
        <pt x="73" y="109" on="1"/>
        <pt x="95" y="55" on="0"/>
        <pt x="143" y="55" on="1"/>
        <pt x="181" y="55" on="0"/>
        <pt x="214" y="100" on="0"/>
        <pt x="214" y="146" on="1"/>
        <pt x="214" y="560" on="1"/>
        <pt x="296" y="560" on="1"/>
        <pt x="296" y="148" on="1"/>
        <pt x="296" y="67" on="0"/>
        <pt x="211" y="-13" on="0"/>
        <pt x="142" y="-13" on="1"/>
        <pt x="94" y="-13" on="0"/>
        <pt x="23" y="37" on="0"/>
        <pt x="5" y="77" on="1"/>
      </contour>
    </TTGlyph>
    <TTGlyph name="jcircumflex" xMin="79" yMin="-13" xMax="412" yMax="765">
      <component glyphName="dotlessj" x="64" y="0" flags="0x4"/>
      <component glyphName="circumflex" x="66" y="0" flags="0x4"/>
    </TTGlyph>
    <TTGlyph name="k" xMin="90" yMin="0" xMax="506" yMax="560">
      <contour>
        <pt x="402" y="0" on="1"/>
        <pt x="171" y="257" on="1"/>
        <pt x="171" y="0" on="1"/>
        <pt x="90" y="0" on="1"/>
        <pt x="90" y="560" on="1"/>
        <pt x="171" y="560" on="1"/>
        <pt x="171" y="318" on="1"/>
        <pt x="378" y="560" on="1"/>
        <pt x="476" y="560" on="1"/>
        <pt x="244" y="293" on="1"/>
        <pt x="506" y="0" on="1"/>
      </contour>
    </TTGlyph>
    <TTGlyph name="kcommaaccent" xMin="90" yMin="-270" xMax="506" yMax="560">
      <component glyphName="k" x="0" y="0" flags="0x204"/>
      <component glyphName="commaaccent" x="189" y="0" flags="0x4"/>
    </TTGlyph>
    <TTGlyph name="kgreenlandic" xMin="90" yMin="0" xMax="506" yMax="560">
      <component glyphName="k" x="0" y="0" flags="0x204"/>
    </TTGlyph>
    <TTGlyph name="l" xMin="90" yMin="0" xMax="441" yMax="560">
      <contour>
        <pt x="172" y="560" on="1"/>
        <pt x="172" y="71" on="1"/>
        <pt x="441" y="71" on="1"/>
        <pt x="441" y="0" on="1"/>
        <pt x="90" y="0" on="1"/>
        <pt x="90" y="560" on="1"/>
      </contour>
    </TTGlyph>
    <TTGlyph name="ldot" xMin="90" yMin="0" xMax="441" yMax="560">
      <component glyphName="l" x="0" y="0" flags="0x4"/>
      <component glyphName="periodcentered" x="150" y="0" flags="0x4"/>
    </TTGlyph>
    <TTGlyph name="less" xMin="65" yMin="99" xMax="480" yMax="533">
      <contour>
        <pt x="65" y="281" on="1"/>
        <pt x="65" y="371" on="1"/>
        <pt x="457" y="533" on="1"/>
        <pt x="480" y="464" on="1"/>
        <pt x="128" y="325" on="1"/>
        <pt x="480" y="168" on="1"/>
        <pt x="457" y="99" on="1"/>
      </contour>
    </TTGlyph>
    <TTGlyph name="logicalnot" xMin="65" yMin="141" xMax="475" yMax="358">
      <contour>
        <pt x="402" y="141" on="1"/>
        <pt x="402" y="288" on="1"/>
        <pt x="65" y="288" on="1"/>
        <pt x="65" y="358" on="1"/>
        <pt x="475" y="358" on="1"/>
        <pt x="475" y="141" on="1"/>
      </contour>
    </TTGlyph>
    <TTGlyph name="lslash" xMin="15" yMin="0" xMax="451" yMax="560">
      <contour>
        <pt x="182" y="560" on="1"/>
        <pt x="182" y="342" on="1"/>
        <pt x="323" y="426" on="1"/>
        <pt x="359" y="369" on="1"/>
        <pt x="182" y="263" on="1"/>
        <pt x="182" y="71" on="1"/>
        <pt x="451" y="71" on="1"/>
        <pt x="451" y="0" on="1"/>
        <pt x="100" y="0" on="1"/>
        <pt x="100" y="214" on="1"/>
        <pt x="51" y="185" on="1"/>
        <pt x="15" y="242" on="1"/>
        <pt x="100" y="293" on="1"/>
        <pt x="100" y="560" on="1"/>
      </contour>
    </TTGlyph>
    <TTGlyph name="m" xMin="90" yMin="0" xMax="629" yMax="560">
      <contour>
        <pt x="321" y="0" on="1"/>
        <pt x="167" y="440" on="1"/>
        <pt x="167" y="0" on="1"/>
        <pt x="90" y="0" on="1"/>
        <pt x="90" y="560" on="1"/>
        <pt x="205" y="560" on="1"/>
        <pt x="366" y="92" on="1"/>
        <pt x="514" y="560" on="1"/>
        <pt x="629" y="560" on="1"/>
        <pt x="629" y="0" on="1"/>
        <pt x="549" y="0" on="1"/>
        <pt x="549" y="440" on="1"/>
        <pt x="407" y="0" on="1"/>
      </contour>
    </TTGlyph>
    <TTGlyph name="macron" xMin="30" yMin="666" xMax="300" yMax="735">
      <contour>
        <pt x="30" y="666" on="1"/>
        <pt x="30" y="735" on="1"/>
        <pt x="300" y="735" on="1"/>
        <pt x="300" y="666" on="1"/>
      </contour>
    </TTGlyph>
    <TTGlyph name="mu" xMin="80" yMin="-180" xMax="456" yMax="540">
      <contour>
        <pt x="80" y="-180" on="1"/>
        <pt x="80" y="540" on="1"/>
        <pt x="160" y="540" on="1"/>
        <pt x="160" y="180" on="1"/>
        <pt x="160" y="142" on="0"/>
        <pt x="175" y="94" on="0"/>
        <pt x="202" y="66" on="0"/>
        <pt x="239" y="55" on="0"/>
        <pt x="261" y="55" on="1"/>
        <pt x="298" y="55" on="0"/>
        <pt x="353" y="97" on="0"/>
        <pt x="376" y="138" on="1"/>
        <pt x="376" y="540" on="1"/>
        <pt x="456" y="540" on="1"/>
        <pt x="456" y="0" on="1"/>
        <pt x="386" y="0" on="1"/>
        <pt x="382" y="62" on="1"/>
        <pt x="361" y="27" on="0"/>
        <pt x="298" y="-10" on="0"/>
        <pt x="258" y="-10" on="1"/>
        <pt x="230" y="-10" on="0"/>
        <pt x="177" y="10" on="0"/>
        <pt x="160" y="30" on="1"/>
        <pt x="160" y="-180" on="1"/>
      </contour>
    </TTGlyph>
    <TTGlyph name="multiply" xMin="80" yMin="131" xMax="460" yMax="511">
      <contour>
        <pt x="270" y="267" on="1"/>
        <pt x="134" y="131" on="1"/>
        <pt x="80" y="185" on="1"/>
        <pt x="216" y="321" on="1"/>
        <pt x="80" y="457" on="1"/>
        <pt x="134" y="511" on="1"/>
        <pt x="270" y="375" on="1"/>
        <pt x="406" y="511" on="1"/>
        <pt x="460" y="457" on="1"/>
        <pt x="324" y="321" on="1"/>
        <pt x="460" y="185" on="1"/>
        <pt x="406" y="131" on="1"/>
      </contour>
    </TTGlyph>
    <TTGlyph name="n" xMin="90" yMin="0" xMax="490" yMax="560">
      <contour>
        <pt x="490" y="560" on="1"/>
        <pt x="490" y="0" on="1"/>
        <pt x="374" y="0" on="1"/>
        <pt x="167" y="468" on="1"/>
        <pt x="167" y="0" on="1"/>
        <pt x="90" y="0" on="1"/>
        <pt x="90" y="560" on="1"/>
        <pt x="208" y="560" on="1"/>
        <pt x="415" y="97" on="1"/>
        <pt x="415" y="560" on="1"/>
      </contour>
    </TTGlyph>
    <TTGlyph name="nacute" xMin="90" yMin="0" xMax="490" yMax="775">
      <component glyphName="n" x="0" y="0" flags="0x204"/>
      <component glyphName="acute" x="200" y="0" flags="0x4"/>
    </TTGlyph>
    <TTGlyph name="nine" xMin="81" yMin="-23" xMax="478" yMax="710">
      <contour>
        <pt x="123" y="42" on="1"/>
        <pt x="176" y="47" on="0"/>
        <pt x="267" y="86" on="0"/>
        <pt x="337" y="158" on="0"/>
        <pt x="384" y="262" on="0"/>
        <pt x="393" y="332" on="1"/>
        <pt x="367" y="302" on="0"/>
        <pt x="295" y="265" on="0"/>
        <pt x="252" y="265" on="1"/>
        <pt x="210" y="265" on="0"/>
        <pt x="146" y="296" on="0"/>
        <pt x="103" y="353" on="0"/>
        <pt x="81" y="432" on="0"/>
        <pt x="81" y="479" on="1"/>
        <pt x="81" y="537" on="0"/>
        <pt x="113" y="624" on="0"/>
        <pt x="168" y="682" on="0"/>
        <pt x="240" y="710" on="0"/>
        <pt x="280" y="710" on="1"/>
        <pt x="384" y="710" on="0"/>
        <pt x="478" y="565" on="0"/>
        <pt x="478" y="424" on="1"/>
        <pt x="478" y="312" on="0"/>
        <pt x="422" y="149" on="0"/>
        <pt x="327" y="40" on="0"/>
        <pt x="202" y="-17" on="0"/>
        <pt x="133" y="-23" on="1"/>
      </contour>
      <contour>
        <pt x="269" y="328" on="1"/>
        <pt x="309" y="328" on="0"/>
        <pt x="374" y="370" on="0"/>
        <pt x="398" y="396" on="1"/>
        <pt x="398" y="417" on="1"/>
        <pt x="398" y="538" on="0"/>
        <pt x="342" y="649" on="0"/>
        <pt x="279" y="649" on="1"/>
        <pt x="258" y="649" on="0"/>
        <pt x="216" y="632" on="0"/>
        <pt x="183" y="593" on="0"/>
        <pt x="162" y="531" on="0"/>
        <pt x="162" y="485" on="1"/>
        <pt x="162" y="401" on="0"/>
        <pt x="219" y="328" on="0"/>
      </contour>
    </TTGlyph>
    <TTGlyph name="ntilde" xMin="90" yMin="0" xMax="490" yMax="744">
      <component glyphName="n" x="0" y="0" flags="0x204"/>
      <component glyphName="tilde" x="115" y="0" flags="0x4"/>
    </TTGlyph>
    <TTGlyph name="numbersign" xMin="51" yMin="0" xMax="524" yMax="700">
      <contour>
        <pt x="498" y="197" on="1"/>
        <pt x="414" y="197" on="1"/>
        <pt x="397" y="0" on="1"/>
        <pt x="326" y="0" on="1"/>
        <pt x="343" y="197" on="1"/>
        <pt x="201" y="197" on="1"/>
        <pt x="184" y="0" on="1"/>
        <pt x="113" y="0" on="1"/>
        <pt x="130" y="197" on="1"/>
        <pt x="51" y="197" on="1"/>
        <pt x="55" y="258" on="1"/>
        <pt x="135" y="258" on="1"/>
        <pt x="152" y="447" on="1"/>
        <pt x="71" y="447" on="1"/>
        <pt x="77" y="508" on="1"/>
        <pt x="157" y="508" on="1"/>
        <pt x="174" y="700" on="1"/>
        <pt x="245" y="700" on="1"/>
        <pt x="228" y="508" on="1"/>
        <pt x="370" y="508" on="1"/>
        <pt x="387" y="700" on="1"/>
        <pt x="458" y="700" on="1"/>
        <pt x="441" y="508" on="1"/>
        <pt x="524" y="508" on="1"/>
        <pt x="518" y="447" on="1"/>
        <pt x="436" y="447" on="1"/>
        <pt x="419" y="258" on="1"/>
        <pt x="502" y="258" on="1"/>
      </contour>
      <contour>
        <pt x="206" y="258" on="1"/>
        <pt x="348" y="258" on="1"/>
        <pt x="365" y="447" on="1"/>
        <pt x="223" y="447" on="1"/>
      </contour>
    </TTGlyph>
    <TTGlyph name="o" xMin="70" yMin="-15" xMax="572" yMax="575">
      <contour>
        <pt x="70" y="280" on="1"/>
        <pt x="70" y="358" on="0"/>
        <pt x="112" y="470" on="0"/>
        <pt x="182" y="542" on="0"/>
        <pt x="273" y="575" on="0"/>
        <pt x="321" y="575" on="1"/>
        <pt x="369" y="575" on="0"/>
        <pt x="460" y="542" on="0"/>
        <pt x="530" y="470" on="0"/>
        <pt x="572" y="358" on="0"/>
        <pt x="572" y="280" on="1"/>
        <pt x="572" y="202" on="0"/>
        <pt x="530" y="90" on="0"/>
        <pt x="459" y="18" on="0"/>
        <pt x="369" y="-15" on="0"/>
        <pt x="321" y="-15" on="1"/>
        <pt x="273" y="-15" on="0"/>
        <pt x="183" y="18" on="0"/>
        <pt x="112" y="90" on="0"/>
        <pt x="70" y="202" on="0"/>
      </contour>
      <contour>
        <pt x="154" y="280" on="1"/>
        <pt x="154" y="166" on="0"/>
        <pt x="243" y="51" on="0"/>
        <pt x="321" y="51" on="1"/>
        <pt x="399" y="51" on="0"/>
        <pt x="488" y="166" on="0"/>
        <pt x="488" y="280" on="1"/>
        <pt x="488" y="394" on="0"/>
        <pt x="399" y="510" on="0"/>
        <pt x="321" y="510" on="1"/>
        <pt x="243" y="510" on="0"/>
        <pt x="154" y="395" on="0"/>
      </contour>
    </TTGlyph>
    <TTGlyph name="oacute" xMin="70" yMin="-15" xMax="572" yMax="775">
      <component glyphName="o" x="0" y="0" flags="0x204"/>
      <component glyphName="acute" x="241" y="0" flags="0x4"/>
    </TTGlyph>
    <TTGlyph name="ocircumflex" xMin="70" yMin="-15" xMax="572" yMax="765">
      <component glyphName="o" x="0" y="0" flags="0x204"/>
      <component glyphName="circumflex" x="133" y="0" flags="0x4"/>
    </TTGlyph>
    <TTGlyph name="odieresis" xMin="70" yMin="-15" xMax="572" yMax="745">
      <component glyphName="o" x="0" y="0" flags="0x204"/>
      <component glyphName="dieresis" x="141" y="0" flags="0x4"/>
    </TTGlyph>
    <TTGlyph name="oe" xMin="70" yMin="-15" xMax="835" yMax="575">
      <contour>
        <pt x="806" y="252" on="1"/>
        <pt x="571" y="252" on="1"/>
        <pt x="567" y="191" on="0"/>
        <pt x="533" y="99" on="0"/>
        <pt x="506" y="67" on="1"/>
        <pt x="835" y="67" on="1"/>
        <pt x="835" y="0" on="1"/>
        <pt x="409" y="0" on="1"/>
        <pt x="367" y="-15" on="0"/>
        <pt x="321" y="-15" on="1"/>
        <pt x="273" y="-15" on="0"/>
        <pt x="183" y="18" on="0"/>
        <pt x="112" y="90" on="0"/>
        <pt x="70" y="202" on="0"/>
        <pt x="70" y="280" on="1"/>
        <pt x="70" y="358" on="0"/>
        <pt x="112" y="470" on="0"/>
        <pt x="182" y="542" on="0"/>
        <pt x="273" y="575" on="0"/>
        <pt x="321" y="575" on="1"/>
        <pt x="366" y="575" on="0"/>
        <pt x="410" y="560" on="1"/>
        <pt x="835" y="560" on="1"/>
        <pt x="835" y="493" on="1"/>
        <pt x="506" y="493" on="1"/>
        <pt x="532" y="461" on="0"/>
        <pt x="566" y="375" on="0"/>
        <pt x="570" y="317" on="1"/>
        <pt x="806" y="317" on="1"/>
      </contour>
      <contour>
        <pt x="154" y="280" on="1"/>
        <pt x="154" y="166" on="0"/>
        <pt x="243" y="51" on="0"/>
        <pt x="321" y="51" on="1"/>
        <pt x="399" y="51" on="0"/>
        <pt x="488" y="166" on="0"/>
        <pt x="488" y="280" on="1"/>
        <pt x="488" y="394" on="0"/>
        <pt x="399" y="510" on="0"/>
        <pt x="321" y="510" on="1"/>
        <pt x="243" y="510" on="0"/>
        <pt x="154" y="395" on="0"/>
      </contour>
    </TTGlyph>
    <TTGlyph name="ograve" xMin="70" yMin="-15" xMax="572" yMax="775">
      <component glyphName="o" x="0" y="0" flags="0x204"/>
      <component glyphName="grave" x="131" y="0" flags="0x4"/>
    </TTGlyph>
    <TTGlyph name="one" xMin="94" yMin="0" xMax="456" yMax="700">
      <contour>
        <pt x="135" y="0" on="1"/>
        <pt x="135" y="69" on="1"/>
        <pt x="268" y="69" on="1"/>
        <pt x="268" y="624" on="1"/>
        <pt x="131" y="540" on="1"/>
        <pt x="94" y="597" on="1"/>
        <pt x="262" y="700" on="1"/>
        <pt x="347" y="700" on="1"/>
        <pt x="347" y="69" on="1"/>
        <pt x="456" y="69" on="1"/>
        <pt x="456" y="0" on="1"/>
      </contour>
    </TTGlyph>
    <TTGlyph name="onehalf" xMin="57" yMin="-99" xMax="770" yMax="810">
      <contour>
        <pt x="243" y="-99" on="1"/>
        <pt x="179" y="-70" on="1"/>
        <pt x="626" y="810" on="1"/>
        <pt x="690" y="781" on="1"/>
      </contour>
      <contour>
        <pt x="639" y="334" on="1"/>
        <pt x="615" y="334" on="0"/>
        <pt x="585" y="301" on="0"/>
        <pt x="581" y="282" on="1"/>
        <pt x="512" y="300" on="1"/>
        <pt x="526" y="339" on="0"/>
        <pt x="591" y="390" on="0"/>
        <pt x="645" y="390" on="1"/>
        <pt x="670" y="390" on="0"/>
        <pt x="715" y="377" on="0"/>
        <pt x="749" y="349" on="0"/>
        <pt x="770" y="305" on="0"/>
        <pt x="770" y="274" on="1"/>
        <pt x="770" y="236" on="0"/>
        <pt x="719" y="171" on="0"/>
        <pt x="687" y="139" on="1"/>
        <pt x="608" y="60" on="1"/>
        <pt x="768" y="60" on="1"/>
        <pt x="768" y="0" on="1"/>
        <pt x="517" y="0" on="1"/>
        <pt x="517" y="60" on="1"/>
        <pt x="649" y="194" on="1"/>
        <pt x="665" y="210" on="0"/>
        <pt x="694" y="253" on="0"/>
        <pt x="694" y="277" on="1"/>
        <pt x="694" y="298" on="0"/>
        <pt x="670" y="334" on="0"/>
      </contour>
      <contour>
        <pt x="72" y="320" on="1"/>
        <pt x="72" y="381" on="1"/>
        <pt x="162" y="381" on="1"/>
        <pt x="162" y="630" on="1"/>
        <pt x="87" y="586" on="1"/>
        <pt x="57" y="639" on="1"/>
        <pt x="158" y="700" on="1"/>
        <pt x="233" y="700" on="1"/>
        <pt x="233" y="381" on="1"/>
        <pt x="307" y="381" on="1"/>
        <pt x="307" y="320" on="1"/>
      </contour>
    </TTGlyph>
    <TTGlyph name="onequarter" xMin="64" yMin="-99" xMax="763" yMax="810">
      <contour>
        <pt x="707" y="240" on="1"/>
        <pt x="707" y="129" on="1"/>
        <pt x="763" y="129" on="1"/>
        <pt x="763" y="71" on="1"/>
        <pt x="707" y="71" on="1"/>
        <pt x="707" y="0" on="1"/>
        <pt x="641" y="0" on="1"/>
        <pt x="641" y="71" on="1"/>
        <pt x="494" y="71" on="1"/>
        <pt x="494" y="133" on="1"/>
        <pt x="586" y="389" on="1"/>
        <pt x="646" y="371" on="1"/>
        <pt x="561" y="129" on="1"/>
        <pt x="643" y="129" on="1"/>
        <pt x="643" y="177" on="1"/>
        <pt x="654" y="240" on="1"/>
      </contour>
      <contour>
        <pt x="243" y="-99" on="1"/>
        <pt x="179" y="-70" on="1"/>
        <pt x="626" y="810" on="1"/>
        <pt x="690" y="781" on="1"/>
      </contour>
      <contour>
        <pt x="79" y="320" on="1"/>
        <pt x="79" y="381" on="1"/>
        <pt x="169" y="381" on="1"/>
        <pt x="169" y="630" on="1"/>
        <pt x="94" y="586" on="1"/>
        <pt x="64" y="639" on="1"/>
        <pt x="165" y="700" on="1"/>
        <pt x="240" y="700" on="1"/>
        <pt x="240" y="381" on="1"/>
        <pt x="314" y="381" on="1"/>
        <pt x="314" y="320" on="1"/>
      </contour>
    </TTGlyph>
    <TTGlyph name="onesuperior" xMin="39" yMin="420" xMax="289" yMax="800">
      <contour>
        <pt x="54" y="420" on="1"/>
        <pt x="54" y="481" on="1"/>
        <pt x="144" y="481" on="1"/>
        <pt x="144" y="730" on="1"/>
        <pt x="69" y="686" on="1"/>
        <pt x="39" y="739" on="1"/>
        <pt x="140" y="800" on="1"/>
        <pt x="215" y="800" on="1"/>
        <pt x="215" y="481" on="1"/>
        <pt x="289" y="481" on="1"/>
        <pt x="289" y="420" on="1"/>
      </contour>
    </TTGlyph>
    <TTGlyph name="ordfeminine" xMin="76" yMin="0" xMax="400" yMax="735">
      <contour>
        <pt x="331" y="318" on="1"/>
        <pt x="324" y="368" on="1"/>
        <pt x="304" y="343" on="0"/>
        <pt x="245" y="312" on="0"/>
        <pt x="202" y="312" on="1"/>
        <pt x="175" y="312" on="0"/>
        <pt x="129" y="329" on="0"/>
        <pt x="95" y="359" on="0"/>
        <pt x="76" y="401" on="0"/>
        <pt x="76" y="426" on="1"/>
        <pt x="76" y="505" on="0"/>
        <pt x="198" y="569" on="0"/>
        <pt x="317" y="569" on="1"/>
        <pt x="317" y="612" on="1"/>
        <pt x="317" y="644" on="0"/>
        <pt x="281" y="682" on="0"/>
        <pt x="243" y="682" on="1"/>
        <pt x="219" y="682" on="0"/>
        <pt x="176" y="653" on="0"/>
        <pt x="167" y="626" on="1"/>
        <pt x="97" y="653" on="1"/>
        <pt x="117" y="689" on="0"/>
        <pt x="188" y="735" on="0"/>
        <pt x="248" y="735" on="1"/>
        <pt x="278" y="735" on="0"/>
        <pt x="332" y="721" on="0"/>
        <pt x="371" y="692" on="0"/>
        <pt x="394" y="648" on="0"/>
        <pt x="394" y="618" on="1"/>
        <pt x="394" y="318" on="1"/>
      </contour>
      <contour>
        <pt x="95" y="0" on="1"/>
        <pt x="95" y="70" on="1"/>
        <pt x="400" y="70" on="1"/>
        <pt x="400" y="0" on="1"/>
      </contour>
      <contour>
        <pt x="228" y="366" on="1"/>
        <pt x="255" y="366" on="0"/>
        <pt x="302" y="390" on="0"/>
        <pt x="317" y="407" on="1"/>
        <pt x="317" y="519" on="1"/>
        <pt x="270" y="519" on="0"/>
        <pt x="208" y="508" on="0"/>
        <pt x="171" y="486" on="0"/>
        <pt x="155" y="453" on="0"/>
        <pt x="155" y="432" on="1"/>
        <pt x="155" y="412" on="0"/>
        <pt x="168" y="387" on="0"/>
        <pt x="189" y="372" on="0"/>
        <pt x="215" y="366" on="0"/>
      </contour>
    </TTGlyph>
    <TTGlyph name="ordmasculine" xMin="70" yMin="0" xMax="405" yMax="735">
      <contour>
        <pt x="70" y="521" on="1"/>
        <pt x="70" y="580" on="0"/>
        <pt x="98" y="662" on="0"/>
        <pt x="144" y="713" on="0"/>
        <pt x="205" y="735" on="0"/>
        <pt x="238" y="735" on="1"/>
        <pt x="271" y="735" on="0"/>
        <pt x="331" y="713" on="0"/>
        <pt x="378" y="662" on="0"/>
        <pt x="405" y="580" on="0"/>
        <pt x="405" y="521" on="1"/>
        <pt x="405" y="462" on="0"/>
        <pt x="378" y="381" on="0"/>
        <pt x="332" y="332" on="0"/>
        <pt x="271" y="311" on="0"/>
        <pt x="238" y="311" on="1"/>
        <pt x="205" y="311" on="0"/>
        <pt x="144" y="332" on="0"/>
        <pt x="97" y="381" on="0"/>
        <pt x="70" y="462" on="0"/>
      </contour>
      <contour>
        <pt x="150" y="521" on="1"/>
        <pt x="150" y="440" on="0"/>
        <pt x="201" y="367" on="0"/>
        <pt x="239" y="367" on="1"/>
        <pt x="277" y="367" on="0"/>
        <pt x="326" y="440" on="0"/>
        <pt x="326" y="521" on="1"/>
        <pt x="326" y="602" on="0"/>
        <pt x="277" y="678" on="0"/>
        <pt x="238" y="678" on="1"/>
        <pt x="199" y="678" on="0"/>
        <pt x="150" y="602" on="0"/>
      </contour>
      <contour>
        <pt x="87" y="0" on="1"/>
        <pt x="87" y="70" on="1"/>
        <pt x="390" y="70" on="1"/>
        <pt x="390" y="0" on="1"/>
      </contour>
    </TTGlyph>
    <TTGlyph name="oslash" xMin="70" yMin="-102" xMax="572" yMax="653">
      <contour>
        <pt x="70" y="280" on="1"/>
        <pt x="70" y="358" on="0"/>
        <pt x="112" y="470" on="0"/>
        <pt x="182" y="542" on="0"/>
        <pt x="273" y="575" on="0"/>
        <pt x="321" y="575" on="1"/>
        <pt x="366" y="575" on="0"/>
        <pt x="410" y="560" on="1"/>
        <pt x="452" y="653" on="1"/>
        <pt x="520" y="626" on="1"/>
        <pt x="474" y="525" on="1"/>
        <pt x="518" y="490" on="0"/>
        <pt x="572" y="370" on="0"/>
        <pt x="572" y="280" on="1"/>
        <pt x="572" y="202" on="0"/>
        <pt x="530" y="90" on="0"/>
        <pt x="459" y="18" on="0"/>
        <pt x="369" y="-15" on="0"/>
        <pt x="321" y="-15" on="1"/>
        <pt x="279" y="-15" on="0"/>
        <pt x="237" y="-1" on="1"/>
        <pt x="192" y="-102" on="1"/>
        <pt x="122" y="-74" on="1"/>
        <pt x="171" y="33" on="1"/>
        <pt x="126" y="68" on="0"/>
        <pt x="70" y="189" on="0"/>
      </contour>
      <contour>
        <pt x="154" y="280" on="1"/>
        <pt x="154" y="158" on="0"/>
        <pt x="206" y="100" on="1"/>
        <pt x="384" y="498" on="1"/>
        <pt x="355" y="510" on="0"/>
        <pt x="321" y="510" on="1"/>
        <pt x="243" y="510" on="0"/>
        <pt x="154" y="395" on="0"/>
      </contour>
      <contour>
        <pt x="488" y="280" on="1"/>
        <pt x="488" y="396" on="0"/>
        <pt x="440" y="456" on="1"/>
        <pt x="263" y="61" on="1"/>
        <pt x="287" y="51" on="0"/>
        <pt x="321" y="51" on="1"/>
        <pt x="399" y="51" on="0"/>
        <pt x="488" y="166" on="0"/>
      </contour>
    </TTGlyph>
    <TTGlyph name="otilde" xMin="70" yMin="-15" xMax="572" yMax="744">
      <component glyphName="o" x="0" y="0" flags="0x204"/>
      <component glyphName="tilde" x="146" y="0" flags="0x4"/>
    </TTGlyph>
    <TTGlyph name="p" xMin="90" yMin="0" xMax="473" yMax="560">
      <contour>
        <pt x="244" y="560" on="1"/>
        <pt x="295" y="560" on="0"/>
        <pt x="379" y="537" on="0"/>
        <pt x="439" y="492" on="0"/>
        <pt x="473" y="422" on="0"/>
        <pt x="473" y="376" on="1"/>
        <pt x="473" y="329" on="0"/>
        <pt x="438" y="260" on="0"/>
        <pt x="375" y="214" on="0"/>
        <pt x="290" y="192" on="0"/>
        <pt x="240" y="192" on="1"/>
        <pt x="171" y="192" on="1"/>
        <pt x="171" y="0" on="1"/>
        <pt x="90" y="0" on="1"/>
        <pt x="90" y="560" on="1"/>
      </contour>
      <contour>
        <pt x="171" y="498" on="1"/>
        <pt x="171" y="254" on="1"/>
        <pt x="242" y="254" on="1"/>
        <pt x="390" y="254" on="0"/>
        <pt x="390" y="376" on="1"/>
        <pt x="390" y="435" on="0"/>
        <pt x="317" y="498" on="0"/>
        <pt x="246" y="498" on="1"/>
      </contour>
    </TTGlyph>
    <TTGlyph name="paragraph" xMin="63" yMin="-170" xMax="450" yMax="700">
      <contour>
        <pt x="211" y="-170" on="1"/>
        <pt x="211" y="375" on="1"/>
        <pt x="192" y="375" on="0"/>
        <pt x="141" y="382" on="0"/>
        <pt x="95" y="414" on="0"/>
        <pt x="63" y="479" on="0"/>
        <pt x="63" y="537" on="1"/>
        <pt x="63" y="592" on="0"/>
        <pt x="95" y="656" on="0"/>
        <pt x="141" y="690" on="0"/>
        <pt x="192" y="700" on="0"/>
        <pt x="211" y="700" on="1"/>
        <pt x="287" y="700" on="1"/>
        <pt x="287" y="-170" on="1"/>
      </contour>
      <contour>
        <pt x="450" y="700" on="1"/>
        <pt x="450" y="-170" on="1"/>
        <pt x="374" y="-170" on="1"/>
        <pt x="374" y="700" on="1"/>
      </contour>
    </TTGlyph>
    <TTGlyph name="parenleft" xMin="75" yMin="-155" xMax="275" yMax="815">
      <contour>
        <pt x="75" y="330" on="1"/>
        <pt x="75" y="421" on="0"/>
        <pt x="100" y="564" on="0"/>
        <pt x="141" y="679" on="0"/>
        <pt x="193" y="772" on="0"/>
        <pt x="221" y="815" on="1"/>
        <pt x="275" y="790" on="1"/>
        <pt x="250" y="744" on="0"/>
        <pt x="205" y="650" on="0"/>
        <pt x="171" y="542" on="0"/>
        <pt x="151" y="412" on="0"/>
        <pt x="151" y="330" on="1"/>
        <pt x="151" y="247" on="0"/>
        <pt x="171" y="118" on="0"/>
        <pt x="205" y="10" on="0"/>
        <pt x="250" y="-84" on="0"/>
        <pt x="275" y="-130" on="1"/>
        <pt x="221" y="-155" on="1"/>
        <pt x="193" y="-112" on="0"/>
        <pt x="141" y="-19" on="0"/>
        <pt x="100" y="96" on="0"/>
        <pt x="75" y="238" on="0"/>
      </contour>
    </TTGlyph>
    <TTGlyph name="parenright" xMin="65" yMin="-155" xMax="265" yMax="815">
      <contour>
        <pt x="265" y="330" on="1"/>
        <pt x="265" y="238" on="0"/>
        <pt x="240" y="96" on="0"/>
        <pt x="199" y="-19" on="0"/>
        <pt x="147" y="-112" on="0"/>
        <pt x="119" y="-155" on="1"/>
        <pt x="65" y="-130" on="1"/>
        <pt x="90" y="-84" on="0"/>
        <pt x="135" y="10" on="0"/>
        <pt x="169" y="118" on="0"/>
        <pt x="189" y="247" on="0"/>
        <pt x="189" y="330" on="1"/>
        <pt x="189" y="412" on="0"/>
        <pt x="169" y="542" on="0"/>
        <pt x="135" y="650" on="0"/>
        <pt x="90" y="744" on="0"/>
        <pt x="65" y="790" on="1"/>
        <pt x="119" y="815" on="1"/>
        <pt x="147" y="772" on="0"/>
        <pt x="199" y="679" on="0"/>
        <pt x="240" y="564" on="0"/>
        <pt x="265" y="421" on="0"/>
      </contour>
    </TTGlyph>
    <TTGlyph name="percent" xMin="60" yMin="-23" xMax="680" yMax="722">
      <contour>
        <pt x="255" y="-23" on="1"/>
        <pt x="193" y="0" on="1"/>
        <pt x="479" y="722" on="1"/>
        <pt x="542" y="700" on="1"/>
      </contour>
      <contour>
        <pt x="60" y="541" on="1"/>
        <pt x="60" y="583" on="0"/>
        <pt x="82" y="647" on="0"/>
        <pt x="120" y="689" on="0"/>
        <pt x="168" y="710" on="0"/>
        <pt x="195" y="710" on="1"/>
        <pt x="222" y="710" on="0"/>
        <pt x="271" y="689" on="0"/>
        <pt x="308" y="647" on="0"/>
        <pt x="331" y="583" on="0"/>
        <pt x="331" y="541" on="1"/>
        <pt x="331" y="499" on="0"/>
        <pt x="308" y="436" on="0"/>
        <pt x="270" y="394" on="0"/>
        <pt x="221" y="374" on="0"/>
        <pt x="195" y="374" on="1"/>
        <pt x="169" y="374" on="0"/>
        <pt x="120" y="394" on="0"/>
        <pt x="82" y="436" on="0"/>
        <pt x="60" y="499" on="0"/>
      </contour>
      <contour>
        <pt x="130" y="541" on="1"/>
        <pt x="130" y="481" on="0"/>
        <pt x="166" y="429" on="0"/>
        <pt x="195" y="429" on="1"/>
        <pt x="224" y="429" on="0"/>
        <pt x="262" y="481" on="0"/>
        <pt x="262" y="541" on="1"/>
        <pt x="262" y="601" on="0"/>
        <pt x="224" y="653" on="0"/>
        <pt x="195" y="653" on="1"/>
        <pt x="166" y="653" on="0"/>
        <pt x="130" y="601" on="0"/>
      </contour>
      <contour>
        <pt x="409" y="159" on="1"/>
        <pt x="409" y="201" on="0"/>
        <pt x="431" y="265" on="0"/>
        <pt x="469" y="307" on="0"/>
        <pt x="517" y="328" on="0"/>
        <pt x="544" y="328" on="1"/>
        <pt x="571" y="328" on="0"/>
        <pt x="620" y="307" on="0"/>
        <pt x="657" y="265" on="0"/>
        <pt x="680" y="201" on="0"/>
        <pt x="680" y="159" on="1"/>
        <pt x="680" y="117" on="0"/>
        <pt x="657" y="54" on="0"/>
        <pt x="619" y="12" on="0"/>
        <pt x="570" y="-8" on="0"/>
        <pt x="544" y="-8" on="1"/>
        <pt x="518" y="-8" on="0"/>
        <pt x="469" y="12" on="0"/>
        <pt x="431" y="54" on="0"/>
        <pt x="409" y="117" on="0"/>
      </contour>
      <contour>
        <pt x="479" y="159" on="1"/>
        <pt x="479" y="99" on="0"/>
        <pt x="515" y="47" on="0"/>
        <pt x="544" y="47" on="1"/>
        <pt x="573" y="47" on="0"/>
        <pt x="611" y="99" on="0"/>
        <pt x="611" y="159" on="1"/>
        <pt x="611" y="219" on="0"/>
        <pt x="573" y="271" on="0"/>
        <pt x="544" y="271" on="1"/>
        <pt x="515" y="271" on="0"/>
        <pt x="479" y="219" on="0"/>
      </contour>
    </TTGlyph>
    <TTGlyph name="period" xMin="65" yMin="0" xMax="165" yMax="100">
      <contour>
        <pt x="65" y="0" on="1"/>
        <pt x="65" y="100" on="1"/>
        <pt x="165" y="100" on="1"/>
        <pt x="165" y="0" on="1"/>
      </contour>
    </TTGlyph>
    <TTGlyph name="periodcentered" xMin="107" yMin="273" xMax="207" yMax="373">
      <contour>
        <pt x="107" y="273" on="1"/>
        <pt x="107" y="373" on="1"/>
        <pt x="207" y="373" on="1"/>
        <pt x="207" y="273" on="1"/>
      </contour>
    </TTGlyph>
    <TTGlyph name="plus" xMin="65" yMin="122" xMax="475" yMax="521">
      <contour>
        <pt x="231" y="288" on="1"/>
        <pt x="65" y="288" on="1"/>
        <pt x="65" y="358" on="1"/>
        <pt x="231" y="358" on="1"/>
        <pt x="231" y="521" on="1"/>
        <pt x="309" y="521" on="1"/>
        <pt x="309" y="358" on="1"/>
        <pt x="475" y="358" on="1"/>
        <pt x="475" y="288" on="1"/>
        <pt x="309" y="288" on="1"/>
        <pt x="309" y="122" on="1"/>
        <pt x="231" y="122" on="1"/>
      </contour>
    </TTGlyph>
    <TTGlyph name="plusminus" xMin="65" yMin="0" xMax="475" yMax="521">
      <contour>
        <pt x="231" y="288" on="1"/>
        <pt x="65" y="288" on="1"/>
        <pt x="65" y="358" on="1"/>
        <pt x="231" y="358" on="1"/>
        <pt x="231" y="521" on="1"/>
        <pt x="309" y="521" on="1"/>
        <pt x="309" y="358" on="1"/>
        <pt x="475" y="358" on="1"/>
        <pt x="475" y="288" on="1"/>
        <pt x="309" y="288" on="1"/>
        <pt x="309" y="142" on="1"/>
        <pt x="231" y="142" on="1"/>
      </contour>
      <contour>
        <pt x="65" y="0" on="1"/>
        <pt x="65" y="70" on="1"/>
        <pt x="475" y="70" on="1"/>
        <pt x="475" y="0" on="1"/>
      </contour>
    </TTGlyph>
    <TTGlyph name="q" xMin="70" yMin="-157" xMax="572" yMax="575">
      <contour>
        <pt x="308" y="-15" on="1"/>
        <pt x="262" y="-13" on="0"/>
        <pt x="176" y="23" on="0"/>
        <pt x="110" y="95" on="0"/>
        <pt x="70" y="204" on="0"/>
        <pt x="70" y="280" on="1"/>
        <pt x="70" y="358" on="0"/>
        <pt x="112" y="470" on="0"/>
        <pt x="182" y="542" on="0"/>
        <pt x="273" y="575" on="0"/>
        <pt x="321" y="575" on="1"/>
        <pt x="369" y="575" on="0"/>
        <pt x="460" y="542" on="0"/>
        <pt x="530" y="470" on="0"/>
        <pt x="572" y="358" on="0"/>
        <pt x="572" y="280" on="1"/>
        <pt x="572" y="218" on="0"/>
        <pt x="544" y="122" on="0"/>
        <pt x="497" y="53" on="0"/>
        <pt x="433" y="9" on="0"/>
        <pt x="397" y="-1" on="1"/>
        <pt x="524" y="-84" on="1"/>
        <pt x="461" y="-157" on="1"/>
      </contour>
      <contour>
        <pt x="154" y="280" on="1"/>
        <pt x="154" y="166" on="0"/>
        <pt x="243" y="51" on="0"/>
        <pt x="321" y="51" on="1"/>
        <pt x="399" y="51" on="0"/>
        <pt x="488" y="166" on="0"/>
        <pt x="488" y="280" on="1"/>
        <pt x="488" y="394" on="0"/>
        <pt x="399" y="510" on="0"/>
        <pt x="321" y="510" on="1"/>
        <pt x="243" y="510" on="0"/>
        <pt x="154" y="395" on="0"/>
      </contour>
    </TTGlyph>
    <TTGlyph name="question" xMin="57" yMin="0" xMax="427" yMax="735">
      <contour>
        <pt x="57" y="594" on="1"/>
        <pt x="77" y="663" on="0"/>
        <pt x="180" y="735" on="0"/>
        <pt x="251" y="735" on="1"/>
        <pt x="332" y="735" on="0"/>
        <pt x="427" y="649" on="0"/>
        <pt x="427" y="574" on="1"/>
        <pt x="427" y="522" on="0"/>
        <pt x="385" y="446" on="0"/>
        <pt x="357" y="416" on="1"/>
        <pt x="285" y="336" on="1"/>
        <pt x="285" y="220" on="1"/>
        <pt x="203" y="220" on="1"/>
        <pt x="203" y="359" on="1"/>
        <pt x="295" y="459" on="1"/>
        <pt x="324" y="490" on="0"/>
        <pt x="344" y="544" on="0"/>
        <pt x="344" y="576" on="1"/>
        <pt x="344" y="613" on="0"/>
        <pt x="299" y="670" on="0"/>
        <pt x="247" y="670" on="1"/>
        <pt x="199" y="670" on="0"/>
        <pt x="145" y="614" on="0"/>
        <pt x="134" y="574" on="1"/>
      </contour>
      <contour>
        <pt x="194" y="0" on="1"/>
        <pt x="194" y="105" on="1"/>
        <pt x="299" y="105" on="1"/>
        <pt x="299" y="0" on="1"/>
      </contour>
    </TTGlyph>
    <TTGlyph name="questiondown" xMin="57" yMin="-195" xMax="427" yMax="540">
      <contour>
        <pt x="427" y="-54" on="1"/>
        <pt x="407" y="-123" on="0"/>
        <pt x="304" y="-195" on="0"/>
        <pt x="233" y="-195" on="1"/>
        <pt x="152" y="-195" on="0"/>
        <pt x="57" y="-109" on="0"/>
        <pt x="57" y="-34" on="1"/>
        <pt x="57" y="18" on="0"/>
        <pt x="99" y="94" on="0"/>
        <pt x="127" y="124" on="1"/>
        <pt x="199" y="204" on="1"/>
        <pt x="199" y="320" on="1"/>
        <pt x="281" y="320" on="1"/>
        <pt x="281" y="181" on="1"/>
        <pt x="189" y="81" on="1"/>
        <pt x="160" y="50" on="0"/>
        <pt x="140" y="-4" on="0"/>
        <pt x="140" y="-36" on="1"/>
        <pt x="140" y="-54" on="0"/>
        <pt x="151" y="-88" on="0"/>
        <pt x="174" y="-114" on="0"/>
        <pt x="211" y="-130" on="0"/>
        <pt x="237" y="-130" on="1"/>
        <pt x="285" y="-130" on="0"/>
        <pt x="339" y="-74" on="0"/>
        <pt x="350" y="-34" on="1"/>
      </contour>
      <contour>
        <pt x="290" y="540" on="1"/>
        <pt x="290" y="435" on="1"/>
        <pt x="185" y="435" on="1"/>
        <pt x="185" y="540" on="1"/>
      </contour>
    </TTGlyph>
    <TTGlyph name="quotedbl" xMin="75" yMin="502" xMax="325" yMax="735">
      <contour>
        <pt x="150" y="502" on="1"/>
        <pt x="100" y="502" on="1"/>
        <pt x="75" y="642" on="1"/>
        <pt x="75" y="735" on="1"/>
        <pt x="175" y="735" on="1"/>
        <pt x="175" y="643" on="1"/>
      </contour>
      <contour>
        <pt x="300" y="502" on="1"/>
        <pt x="250" y="502" on="1"/>
        <pt x="225" y="642" on="1"/>
        <pt x="225" y="735" on="1"/>
        <pt x="325" y="735" on="1"/>
        <pt x="325" y="643" on="1"/>
      </contour>
    </TTGlyph>
    <TTGlyph name="quotedblbase" xMin="61" yMin="-153" xMax="333" yMax="95">
      <contour>
        <pt x="233" y="0" on="1"/>
        <pt x="233" y="95" on="1"/>
        <pt x="333" y="95" on="1"/>
        <pt x="333" y="1" on="1"/>
        <pt x="258" y="-153" on="1"/>
        <pt x="211" y="-153" on="1"/>
      </contour>
      <contour>
        <pt x="83" y="0" on="1"/>
        <pt x="83" y="95" on="1"/>
        <pt x="183" y="95" on="1"/>
        <pt x="183" y="1" on="1"/>
        <pt x="108" y="-153" on="1"/>
        <pt x="61" y="-153" on="1"/>
      </contour>
    </TTGlyph>
    <TTGlyph name="quotedblleft" xMin="59" yMin="488" xMax="340" yMax="736">
      <contour>
        <pt x="318" y="583" on="1"/>
        <pt x="318" y="488" on="1"/>
        <pt x="218" y="488" on="1"/>
        <pt x="218" y="582" on="1"/>
        <pt x="293" y="736" on="1"/>
        <pt x="340" y="736" on="1"/>
      </contour>
      <contour>
        <pt x="159" y="583" on="1"/>
        <pt x="159" y="488" on="1"/>
        <pt x="59" y="488" on="1"/>
        <pt x="59" y="582" on="1"/>
        <pt x="134" y="736" on="1"/>
        <pt x="181" y="736" on="1"/>
      </contour>
    </TTGlyph>
    <TTGlyph name="quotedblright" xMin="61" yMin="457" xMax="333" yMax="705">
      <contour>
        <pt x="83" y="610" on="1"/>
        <pt x="83" y="705" on="1"/>
        <pt x="183" y="705" on="1"/>
        <pt x="183" y="611" on="1"/>
        <pt x="108" y="457" on="1"/>
        <pt x="61" y="457" on="1"/>
      </contour>
      <contour>
        <pt x="233" y="610" on="1"/>
        <pt x="233" y="705" on="1"/>
        <pt x="333" y="705" on="1"/>
        <pt x="333" y="611" on="1"/>
        <pt x="258" y="457" on="1"/>
        <pt x="211" y="457" on="1"/>
      </contour>
    </TTGlyph>
    <TTGlyph name="quoteleft" xMin="59" yMin="488" xMax="181" yMax="736">
      <contour>
        <pt x="159" y="583" on="1"/>
        <pt x="159" y="488" on="1"/>
        <pt x="59" y="488" on="1"/>
        <pt x="59" y="582" on="1"/>
        <pt x="134" y="736" on="1"/>
        <pt x="181" y="736" on="1"/>
      </contour>
    </TTGlyph>
    <TTGlyph name="quoteright" xMin="61" yMin="457" xMax="183" yMax="705">
      <contour>
        <pt x="83" y="610" on="1"/>
        <pt x="83" y="705" on="1"/>
        <pt x="183" y="705" on="1"/>
        <pt x="183" y="611" on="1"/>
        <pt x="108" y="457" on="1"/>
        <pt x="61" y="457" on="1"/>
      </contour>
    </TTGlyph>
    <TTGlyph name="quotesinglbase" xMin="61" yMin="-153" xMax="183" yMax="95">
      <contour>
        <pt x="83" y="0" on="1"/>
        <pt x="83" y="95" on="1"/>
        <pt x="183" y="95" on="1"/>
        <pt x="183" y="1" on="1"/>
        <pt x="108" y="-153" on="1"/>
        <pt x="61" y="-153" on="1"/>
      </contour>
    </TTGlyph>
    <TTGlyph name="quotesingle" xMin="75" yMin="482" xMax="175" yMax="735">
      <contour>
        <pt x="150" y="482" on="1"/>
        <pt x="100" y="482" on="1"/>
        <pt x="75" y="642" on="1"/>
        <pt x="75" y="735" on="1"/>
        <pt x="175" y="735" on="1"/>
        <pt x="175" y="643" on="1"/>
      </contour>
    </TTGlyph>
    <TTGlyph name="r" xMin="90" yMin="0" xMax="519" yMax="560">
      <contour>
        <pt x="423" y="0" on="1"/>
        <pt x="277" y="206" on="1"/>
        <pt x="171" y="206" on="1"/>
        <pt x="171" y="0" on="1"/>
        <pt x="90" y="0" on="1"/>
        <pt x="90" y="560" on="1"/>
        <pt x="239" y="560" on="1"/>
        <pt x="290" y="560" on="0"/>
        <pt x="374" y="540" on="0"/>
        <pt x="434" y="496" on="0"/>
        <pt x="468" y="429" on="0"/>
        <pt x="468" y="383" on="1"/>
        <pt x="468" y="313" on="0"/>
        <pt x="406" y="237" on="0"/>
        <pt x="358" y="220" on="1"/>
        <pt x="519" y="0" on="1"/>
      </contour>
      <contour>
        <pt x="171" y="498" on="1"/>
        <pt x="171" y="268" on="1"/>
        <pt x="237" y="268" on="1"/>
        <pt x="312" y="268" on="0"/>
        <pt x="385" y="321" on="0"/>
        <pt x="385" y="383" on="1"/>
        <pt x="385" y="442" on="0"/>
        <pt x="312" y="498" on="0"/>
        <pt x="241" y="498" on="1"/>
      </contour>
    </TTGlyph>
    <TTGlyph name="rcaron" xMin="90" yMin="0" xMax="519" yMax="767">
      <component glyphName="r" x="0" y="0" flags="0x204"/>
      <component glyphName="caron" x="69" y="0" flags="0x4"/>
    </TTGlyph>
    <TTGlyph name="rcommaaccent" xMin="90" yMin="-270" xMax="519" yMax="560">
      <component glyphName="r" x="0" y="0" flags="0x204"/>
      <component glyphName="commaaccent" x="189" y="0" flags="0x4"/>
    </TTGlyph>
    <TTGlyph name="registered" xMin="23" yMin="155" xMax="591" yMax="735">
      <contour>
        <pt x="591" y="445" on="1"/>
        <pt x="591" y="367" on="0"/>
        <pt x="538" y="257" on="0"/>
        <pt x="456" y="187" on="0"/>
        <pt x="355" y="155" on="0"/>
        <pt x="307" y="155" on="1"/>
        <pt x="259" y="155" on="0"/>
        <pt x="158" y="187" on="0"/>
        <pt x="76" y="257" on="0"/>
        <pt x="23" y="367" on="0"/>
        <pt x="23" y="445" on="1"/>
        <pt x="23" y="523" on="0"/>
        <pt x="76" y="633" on="0"/>
        <pt x="158" y="703" on="0"/>
        <pt x="259" y="735" on="0"/>
        <pt x="307" y="735" on="1"/>
        <pt x="355" y="735" on="0"/>
        <pt x="456" y="703" on="0"/>
        <pt x="538" y="633" on="0"/>
        <pt x="591" y="523" on="0"/>
      </contour>
      <contour>
        <pt x="525" y="445" on="1"/>
        <pt x="525" y="509" on="0"/>
        <pt x="488" y="599" on="0"/>
        <pt x="427" y="656" on="0"/>
        <pt x="348" y="682" on="0"/>
        <pt x="307" y="682" on="1"/>
        <pt x="266" y="682" on="0"/>
        <pt x="187" y="656" on="0"/>
        <pt x="126" y="599" on="0"/>
        <pt x="89" y="509" on="0"/>
        <pt x="89" y="445" on="1"/>
        <pt x="89" y="381" on="0"/>
        <pt x="126" y="291" on="0"/>
        <pt x="187" y="234" on="0"/>
        <pt x="266" y="208" on="0"/>
        <pt x="307" y="208" on="1"/>
        <pt x="348" y="208" on="0"/>
        <pt x="427" y="234" on="0"/>
        <pt x="488" y="291" on="0"/>
        <pt x="525" y="381" on="0"/>
      </contour>
      <contour>
        <pt x="361" y="294" on="1"/>
        <pt x="304" y="406" on="1"/>
        <pt x="275" y="406" on="1"/>
        <pt x="275" y="294" on="1"/>
        <pt x="217" y="294" on="1"/>
        <pt x="217" y="600" on="1"/>
        <pt x="306" y="600" on="1"/>
        <pt x="351" y="600" on="0"/>
        <pt x="414" y="552" on="0"/>
        <pt x="414" y="505" on="1"/>
        <pt x="414" y="474" on="0"/>
        <pt x="384" y="430" on="0"/>
        <pt x="359" y="419" on="1"/>
        <pt x="427" y="294" on="1"/>
      </contour>
      <contour>
        <pt x="275" y="553" on="1"/>
        <pt x="275" y="454" on="1"/>
        <pt x="307" y="454" on="1"/>
        <pt x="327" y="454" on="0"/>
        <pt x="352" y="482" on="0"/>
        <pt x="352" y="505" on="1"/>
        <pt x="352" y="527" on="0"/>
        <pt x="327" y="553" on="0"/>
        <pt x="304" y="553" on="1"/>
      </contour>
    </TTGlyph>
    <TTGlyph name="ring" xMin="25" yMin="582" xMax="271" yMax="810">
      <contour>
        <pt x="148" y="631" on="1"/>
        <pt x="173" y="631" on="0"/>
        <pt x="208" y="664" on="0"/>
        <pt x="208" y="696" on="1"/>
        <pt x="208" y="728" on="0"/>
        <pt x="173" y="761" on="0"/>
        <pt x="148" y="761" on="1"/>
        <pt x="123" y="761" on="0"/>
        <pt x="88" y="728" on="0"/>
        <pt x="88" y="696" on="1"/>
        <pt x="88" y="664" on="0"/>
        <pt x="123" y="631" on="0"/>
      </contour>
      <contour>
        <pt x="148" y="582" on="1"/>
        <pt x="123" y="582" on="0"/>
        <pt x="78" y="597" on="0"/>
        <pt x="45" y="627" on="0"/>
        <pt x="25" y="669" on="0"/>
        <pt x="25" y="696" on="1"/>
        <pt x="25" y="723" on="0"/>
        <pt x="45" y="765" on="0"/>
        <pt x="78" y="795" on="0"/>
        <pt x="123" y="810" on="0"/>
        <pt x="148" y="810" on="1"/>
        <pt x="173" y="810" on="0"/>
        <pt x="218" y="795" on="0"/>
        <pt x="251" y="765" on="0"/>
        <pt x="271" y="723" on="0"/>
        <pt x="271" y="696" on="1"/>
        <pt x="271" y="669" on="0"/>
        <pt x="251" y="627" on="0"/>
        <pt x="218" y="597" on="0"/>
        <pt x="173" y="582" on="0"/>
      </contour>
    </TTGlyph>
    <TTGlyph name="ring.cap" xMin="25" yMin="694" xMax="271" yMax="922">
      <contour>
        <pt x="148" y="743" on="1"/>
        <pt x="173" y="743" on="0"/>
        <pt x="208" y="776" on="0"/>
        <pt x="208" y="808" on="1"/>
        <pt x="208" y="840" on="0"/>
        <pt x="173" y="873" on="0"/>
        <pt x="148" y="873" on="1"/>
        <pt x="123" y="873" on="0"/>
        <pt x="88" y="840" on="0"/>
        <pt x="88" y="808" on="1"/>
        <pt x="88" y="776" on="0"/>
        <pt x="123" y="743" on="0"/>
      </contour>
      <contour>
        <pt x="148" y="694" on="1"/>
        <pt x="123" y="694" on="0"/>
        <pt x="78" y="709" on="0"/>
        <pt x="45" y="739" on="0"/>
        <pt x="25" y="781" on="0"/>
        <pt x="25" y="808" on="1"/>
        <pt x="25" y="835" on="0"/>
        <pt x="45" y="877" on="0"/>
        <pt x="78" y="907" on="0"/>
        <pt x="123" y="922" on="0"/>
        <pt x="148" y="922" on="1"/>
        <pt x="173" y="922" on="0"/>
        <pt x="218" y="907" on="0"/>
        <pt x="251" y="877" on="0"/>
        <pt x="271" y="835" on="0"/>
        <pt x="271" y="808" on="1"/>
        <pt x="271" y="781" on="0"/>
        <pt x="251" y="739" on="0"/>
        <pt x="218" y="709" on="0"/>
        <pt x="173" y="694" on="0"/>
      </contour>
    </TTGlyph>
    <TTGlyph name="s" xMin="50" yMin="-15" xMax="467" yMax="567">
      <contour>
        <pt x="119" y="136" on="1"/>
        <pt x="125" y="122" on="0"/>
        <pt x="149" y="91" on="0"/>
        <pt x="185" y="65" on="0"/>
        <pt x="234" y="49" on="0"/>
        <pt x="264" y="49" on="1"/>
        <pt x="286" y="49" on="0"/>
        <pt x="330" y="59" on="0"/>
        <pt x="364" y="81" on="0"/>
        <pt x="386" y="116" on="0"/>
        <pt x="386" y="141" on="1"/>
        <pt x="386" y="166" on="0"/>
        <pt x="371" y="199" on="0"/>
        <pt x="335" y="224" on="0"/>
        <pt x="275" y="247" on="0"/>
        <pt x="230" y="262" on="1"/>
        <pt x="158" y="286" on="0"/>
        <pt x="75" y="358" on="0"/>
        <pt x="75" y="421" on="1"/>
        <pt x="75" y="449" on="0"/>
        <pt x="101" y="502" on="0"/>
        <pt x="150" y="543" on="0"/>
        <pt x="221" y="567" on="0"/>
        <pt x="267" y="567" on="1"/>
        <pt x="336" y="567" on="0"/>
        <pt x="433" y="509" on="0"/>
        <pt x="459" y="461" on="1"/>
        <pt x="389" y="433" on="1"/>
        <pt x="371" y="468" on="0"/>
        <pt x="314" y="505" on="0"/>
        <pt x="269" y="505" on="1"/>
        <pt x="247" y="505" on="0"/>
        <pt x="205" y="496" on="0"/>
        <pt x="173" y="477" on="0"/>
        <pt x="153" y="448" on="0"/>
        <pt x="153" y="427" on="1"/>
        <pt x="153" y="406" on="0"/>
        <pt x="168" y="377" on="0"/>
        <pt x="200" y="353" on="0"/>
        <pt x="252" y="332" on="0"/>
        <pt x="290" y="318" on="1"/>
        <pt x="334" y="302" on="0"/>
        <pt x="400" y="273" on="0"/>
        <pt x="445" y="235" on="0"/>
        <pt x="467" y="183" on="0"/>
        <pt x="467" y="144" on="1"/>
        <pt x="467" y="109" on="0"/>
        <pt x="438" y="51" on="0"/>
        <pt x="385" y="9" on="0"/>
        <pt x="310" y="-15" on="0"/>
        <pt x="264" y="-15" on="1"/>
        <pt x="219" y="-15" on="0"/>
        <pt x="148" y="7" on="0"/>
        <pt x="95" y="42" on="0"/>
        <pt x="59" y="84" on="0"/>
        <pt x="50" y="104" on="1"/>
      </contour>
    </TTGlyph>
    <TTGlyph name="section" xMin="80" yMin="-101" xMax="457" yMax="710">
      <contour>
        <pt x="457" y="309" on="1"/>
        <pt x="457" y="257" on="0"/>
        <pt x="402" y="191" on="0"/>
        <pt x="365" y="171" on="1"/>
        <pt x="437" y="128" on="0"/>
        <pt x="437" y="50" on="1"/>
        <pt x="437" y="13" on="0"/>
        <pt x="407" y="-43" on="0"/>
        <pt x="357" y="-81" on="0"/>
        <pt x="294" y="-101" on="0"/>
        <pt x="260" y="-101" on="1"/>
        <pt x="194" y="-101" on="0"/>
        <pt x="100" y="-45" on="0"/>
        <pt x="80" y="3" on="1"/>
        <pt x="151" y="33" on="1"/>
        <pt x="165" y="0" on="0"/>
        <pt x="217" y="-39" on="0"/>
        <pt x="261" y="-39" on="1"/>
        <pt x="279" y="-39" on="0"/>
        <pt x="313" y="-29" on="0"/>
        <pt x="340" y="-10" on="0"/>
        <pt x="357" y="20" on="0"/>
        <pt x="357" y="41" on="1"/>
        <pt x="357" y="62" on="0"/>
        <pt x="344" y="91" on="0"/>
        <pt x="314" y="113" on="0"/>
        <pt x="265" y="131" on="0"/>
        <pt x="229" y="142" on="1"/>
        <pt x="163" y="162" on="0"/>
        <pt x="84" y="235" on="0"/>
        <pt x="84" y="300" on="1"/>
        <pt x="84" y="351" on="0"/>
        <pt x="138" y="417" on="0"/>
        <pt x="175" y="437" on="1"/>
        <pt x="104" y="478" on="0"/>
        <pt x="104" y="559" on="1"/>
        <pt x="104" y="596" on="0"/>
        <pt x="132" y="652" on="0"/>
        <pt x="180" y="690" on="0"/>
        <pt x="242" y="710" on="0"/>
        <pt x="276" y="710" on="1"/>
        <pt x="342" y="710" on="0"/>
        <pt x="433" y="656" on="0"/>
        <pt x="453" y="608" on="1"/>
        <pt x="382" y="578" on="1"/>
        <pt x="368" y="611" on="0"/>
        <pt x="319" y="648" on="0"/>
        <pt x="275" y="648" on="1"/>
        <pt x="257" y="648" on="0"/>
        <pt x="225" y="638" on="0"/>
        <pt x="199" y="619" on="0"/>
        <pt x="184" y="589" on="0"/>
        <pt x="184" y="568" on="1"/>
        <pt x="184" y="547" on="0"/>
        <pt x="199" y="519" on="0"/>
        <pt x="230" y="497" on="0"/>
        <pt x="279" y="478" on="0"/>
        <pt x="312" y="467" on="1"/>
        <pt x="345" y="456" on="0"/>
        <pt x="399" y="428" on="0"/>
        <pt x="436" y="390" on="0"/>
        <pt x="457" y="341" on="0"/>
      </contour>
      <contour>
        <pt x="237" y="411" on="1"/>
        <pt x="202" y="394" on="0"/>
        <pt x="161" y="350" on="0"/>
        <pt x="161" y="312" on="1"/>
        <pt x="161" y="284" on="0"/>
        <pt x="183" y="248" on="0"/>
        <pt x="221" y="224" on="0"/>
        <pt x="272" y="207" on="0"/>
        <pt x="300" y="199" on="1"/>
        <pt x="303" y="198" on="1"/>
        <pt x="338" y="215" on="0"/>
        <pt x="380" y="259" on="0"/>
        <pt x="380" y="297" on="1"/>
        <pt x="380" y="325" on="0"/>
        <pt x="357" y="362" on="0"/>
        <pt x="319" y="386" on="0"/>
        <pt x="269" y="402" on="0"/>
        <pt x="241" y="410" on="1"/>
      </contour>
    </TTGlyph>
    <TTGlyph name="semicolon" xMin="42" yMin="-152" xMax="165" yMax="540">
      <contour>
        <pt x="65" y="440" on="1"/>
        <pt x="65" y="540" on="1"/>
        <pt x="165" y="540" on="1"/>
        <pt x="165" y="440" on="1"/>
      </contour>
      <contour>
        <pt x="95" y="-152" on="1"/>
        <pt x="42" y="-152" on="1"/>
        <pt x="65" y="-1" on="1"/>
        <pt x="65" y="100" on="1"/>
        <pt x="165" y="100" on="1"/>
        <pt x="165" y="1" on="1"/>
      </contour>
    </TTGlyph>
    <TTGlyph name="seven" xMin="97" yMin="0" xMax="471" yMax="700">
      <contour>
        <pt x="221" y="0" on="1"/>
        <pt x="133" y="0" on="1"/>
        <pt x="395" y="630" on="1"/>
        <pt x="97" y="630" on="1"/>
        <pt x="97" y="700" on="1"/>
        <pt x="471" y="700" on="1"/>
        <pt x="471" y="620" on="1"/>
      </contour>
    </TTGlyph>
    <TTGlyph name="six" xMin="82" yMin="-10" xMax="476" yMax="723">
      <contour>
        <pt x="450" y="663" on="1"/>
        <pt x="407" y="650" on="0"/>
        <pt x="319" y="606" on="0"/>
        <pt x="242" y="540" on="0"/>
        <pt x="184" y="447" on="0"/>
        <pt x="171" y="384" on="1"/>
        <pt x="197" y="412" on="0"/>
        <pt x="264" y="445" on="0"/>
        <pt x="306" y="445" on="1"/>
        <pt x="350" y="445" on="0"/>
        <pt x="414" y="412" on="0"/>
        <pt x="456" y="353" on="0"/>
        <pt x="476" y="271" on="0"/>
        <pt x="476" y="221" on="1"/>
        <pt x="476" y="162" on="0"/>
        <pt x="444" y="76" on="0"/>
        <pt x="390" y="18" on="0"/>
        <pt x="320" y="-10" on="0"/>
        <pt x="282" y="-10" on="1"/>
        <pt x="178" y="-10" on="0"/>
        <pt x="82" y="144" on="0"/>
        <pt x="82" y="285" on="1"/>
        <pt x="82" y="387" on="0"/>
        <pt x="145" y="538" on="0"/>
        <pt x="244" y="643" on="0"/>
        <pt x="366" y="707" on="0"/>
        <pt x="425" y="723" on="1"/>
      </contour>
      <contour>
        <pt x="289" y="382" on="1"/>
        <pt x="249" y="382" on="0"/>
        <pt x="185" y="341" on="0"/>
        <pt x="162" y="315" on="1"/>
        <pt x="162" y="292" on="1"/>
        <pt x="162" y="168" on="0"/>
        <pt x="221" y="53" on="0"/>
        <pt x="283" y="53" on="1"/>
        <pt x="304" y="53" on="0"/>
        <pt x="345" y="67" on="0"/>
        <pt x="376" y="104" on="0"/>
        <pt x="395" y="167" on="0"/>
        <pt x="395" y="215" on="1"/>
        <pt x="395" y="305" on="0"/>
        <pt x="338" y="382" on="0"/>
      </contour>
    </TTGlyph>
    <TTGlyph name="slash" xMin="-12" yMin="-100" xMax="277" yMax="720">
      <contour>
        <pt x="208" y="720" on="1"/>
        <pt x="277" y="705" on="1"/>
        <pt x="57" y="-100" on="1"/>
        <pt x="-12" y="-85" on="1"/>
      </contour>
    </TTGlyph>
    <TTGlyph name="sterling" xMin="60" yMin="0" xMax="515" yMax="710">
      <contour>
        <pt x="331" y="648" on="1"/>
        <pt x="287" y="648" on="0"/>
        <pt x="231" y="585" on="0"/>
        <pt x="231" y="519" on="1"/>
        <pt x="231" y="414" on="1"/>
        <pt x="427" y="414" on="1"/>
        <pt x="427" y="354" on="1"/>
        <pt x="231" y="354" on="1"/>
        <pt x="231" y="172" on="1"/>
        <pt x="231" y="135" on="0"/>
        <pt x="207" y="82" on="0"/>
        <pt x="181" y="66" on="1"/>
        <pt x="472" y="66" on="1"/>
        <pt x="472" y="0" on="1"/>
        <pt x="60" y="0" on="1"/>
        <pt x="60" y="66" on="1"/>
        <pt x="67" y="66" on="1"/>
        <pt x="102" y="68" on="0"/>
        <pt x="148" y="116" on="0"/>
        <pt x="148" y="166" on="1"/>
        <pt x="148" y="354" on="1"/>
        <pt x="70" y="354" on="1"/>
        <pt x="70" y="414" on="1"/>
        <pt x="148" y="414" on="1"/>
        <pt x="148" y="521" on="1"/>
        <pt x="148" y="570" on="0"/>
        <pt x="178" y="641" on="0"/>
        <pt x="229" y="687" on="0"/>
        <pt x="295" y="710" on="0"/>
        <pt x="331" y="710" on="1"/>
        <pt x="402" y="710" on="0"/>
        <pt x="489" y="651" on="0"/>
        <pt x="515" y="592" on="1"/>
        <pt x="441" y="566" on="1"/>
        <pt x="424" y="608" on="0"/>
        <pt x="376" y="648" on="0"/>
      </contour>
    </TTGlyph>
    <TTGlyph name="t" xMin="25" yMin="0" xMax="437" yMax="560">
      <contour>
        <pt x="437" y="489" on="1"/>
        <pt x="271" y="489" on="1"/>
        <pt x="271" y="0" on="1"/>
        <pt x="189" y="0" on="1"/>
        <pt x="189" y="489" on="1"/>
        <pt x="25" y="489" on="1"/>
        <pt x="25" y="560" on="1"/>
        <pt x="437" y="560" on="1"/>
      </contour>
    </TTGlyph>
    <TTGlyph name="thorn" xMin="90" yMin="0" xMax="473" yMax="560">
      <contour>
        <pt x="171" y="560" on="1"/>
        <pt x="171" y="470" on="1"/>
        <pt x="244" y="470" on="1"/>
        <pt x="295" y="470" on="0"/>
        <pt x="379" y="447" on="0"/>
        <pt x="439" y="402" on="0"/>
        <pt x="473" y="332" on="0"/>
        <pt x="473" y="286" on="1"/>
        <pt x="473" y="239" on="0"/>
        <pt x="438" y="170" on="0"/>
        <pt x="375" y="124" on="0"/>
        <pt x="290" y="102" on="0"/>
        <pt x="240" y="102" on="1"/>
        <pt x="171" y="102" on="1"/>
        <pt x="171" y="0" on="1"/>
        <pt x="90" y="0" on="1"/>
        <pt x="90" y="560" on="1"/>
      </contour>
      <contour>
        <pt x="171" y="408" on="1"/>
        <pt x="171" y="164" on="1"/>
        <pt x="242" y="164" on="1"/>
        <pt x="390" y="164" on="0"/>
        <pt x="390" y="286" on="1"/>
        <pt x="390" y="345" on="0"/>
        <pt x="317" y="408" on="0"/>
        <pt x="246" y="408" on="1"/>
      </contour>
    </TTGlyph>
    <TTGlyph name="three" xMin="70" yMin="-10" xMax="470" yMax="710">
      <contour>
        <pt x="74" y="593" on="1"/>
        <pt x="99" y="652" on="0"/>
        <pt x="204" y="710" on="0"/>
        <pt x="263" y="710" on="1"/>
        <pt x="300" y="710" on="0"/>
        <pt x="368" y="688" on="0"/>
        <pt x="418" y="644" on="0"/>
        <pt x="448" y="578" on="0"/>
        <pt x="448" y="535" on="1"/>
        <pt x="448" y="502" on="0"/>
        <pt x="427" y="448" on="0"/>
        <pt x="391" y="406" on="0"/>
        <pt x="344" y="379" on="0"/>
        <pt x="318" y="374" on="1"/>
        <pt x="348" y="370" on="0"/>
        <pt x="376" y="358" on="1"/>
        <pt x="404" y="346" on="0"/>
        <pt x="446" y="303" on="0"/>
        <pt x="470" y="242" on="0"/>
        <pt x="470" y="203" on="1"/>
        <pt x="470" y="150" on="0"/>
        <pt x="432" y="70" on="0"/>
        <pt x="372" y="17" on="0"/>
        <pt x="297" y="-10" on="0"/>
        <pt x="259" y="-10" on="1"/>
        <pt x="195" y="-10" on="0"/>
        <pt x="99" y="43" on="0"/>
        <pt x="70" y="92" on="1"/>
        <pt x="133" y="128" on="1"/>
        <pt x="149" y="100" on="0"/>
        <pt x="207" y="53" on="0"/>
        <pt x="258" y="53" on="1"/>
        <pt x="281" y="53" on="0"/>
        <pt x="327" y="69" on="0"/>
        <pt x="365" y="104" on="0"/>
        <pt x="388" y="160" on="0"/>
        <pt x="388" y="200" on="1"/>
        <pt x="388" y="241" on="0"/>
        <pt x="366" y="293" on="0"/>
        <pt x="329" y="323" on="0"/>
        <pt x="280" y="334" on="0"/>
        <pt x="254" y="334" on="1"/>
        <pt x="210" y="334" on="1"/>
        <pt x="210" y="401" on="1"/>
        <pt x="257" y="401" on="1"/>
        <pt x="303" y="401" on="0"/>
        <pt x="366" y="471" on="0"/>
        <pt x="366" y="530" on="1"/>
        <pt x="366" y="595" on="0"/>
        <pt x="307" y="650" on="0"/>
        <pt x="259" y="650" on="1"/>
        <pt x="213" y="650" on="0"/>
        <pt x="152" y="598" on="0"/>
        <pt x="141" y="567" on="1"/>
      </contour>
    </TTGlyph>
    <TTGlyph name="threequarters" xMin="77" yMin="-99" xMax="763" yMax="810">
      <contour>
        <pt x="707" y="240" on="1"/>
        <pt x="707" y="129" on="1"/>
        <pt x="763" y="129" on="1"/>
        <pt x="763" y="71" on="1"/>
        <pt x="707" y="71" on="1"/>
        <pt x="707" y="0" on="1"/>
        <pt x="641" y="0" on="1"/>
        <pt x="641" y="71" on="1"/>
        <pt x="494" y="71" on="1"/>
        <pt x="494" y="133" on="1"/>
        <pt x="586" y="389" on="1"/>
        <pt x="646" y="371" on="1"/>
        <pt x="561" y="129" on="1"/>
        <pt x="643" y="129" on="1"/>
        <pt x="643" y="177" on="1"/>
        <pt x="654" y="240" on="1"/>
      </contour>
      <contour>
        <pt x="243" y="-99" on="1"/>
        <pt x="179" y="-70" on="1"/>
        <pt x="626" y="810" on="1"/>
        <pt x="690" y="781" on="1"/>
      </contour>
      <contour>
        <pt x="205" y="369" on="1"/>
        <pt x="236" y="369" on="0"/>
        <pt x="265" y="406" on="0"/>
        <pt x="265" y="436" on="1"/>
        <pt x="265" y="473" on="0"/>
        <pt x="225" y="495" on="0"/>
        <pt x="198" y="495" on="1"/>
        <pt x="185" y="495" on="1"/>
        <pt x="185" y="546" on="1"/>
        <pt x="203" y="546" on="1"/>
        <pt x="225" y="546" on="0"/>
        <pt x="255" y="575" on="0"/>
        <pt x="255" y="604" on="1"/>
        <pt x="255" y="624" on="0"/>
        <pt x="227" y="654" on="0"/>
        <pt x="202" y="654" on="1"/>
        <pt x="178" y="654" on="0"/>
        <pt x="148" y="625" on="0"/>
        <pt x="143" y="601" on="1"/>
        <pt x="77" y="621" on="1"/>
        <pt x="93" y="666" on="0"/>
        <pt x="162" y="710" on="0"/>
        <pt x="209" y="710" on="1"/>
        <pt x="230" y="710" on="0"/>
        <pt x="273" y="698" on="0"/>
        <pt x="307" y="672" on="0"/>
        <pt x="328" y="632" on="0"/>
        <pt x="328" y="605" on="1"/>
        <pt x="328" y="579" on="0"/>
        <pt x="298" y="535" on="0"/>
        <pt x="267" y="525" on="1"/>
        <pt x="281" y="522" on="0"/>
        <pt x="308" y="508" on="0"/>
        <pt x="329" y="486" on="0"/>
        <pt x="341" y="453" on="0"/>
        <pt x="341" y="431" on="1"/>
        <pt x="341" y="403" on="0"/>
        <pt x="320" y="359" on="0"/>
        <pt x="283" y="329" on="0"/>
        <pt x="234" y="314" on="0"/>
        <pt x="206" y="314" on="1"/>
        <pt x="179" y="314" on="0"/>
        <pt x="135" y="330" on="0"/>
        <pt x="102" y="355" on="0"/>
        <pt x="81" y="387" on="0"/>
        <pt x="77" y="403" on="1"/>
        <pt x="145" y="423" on="1"/>
        <pt x="149" y="403" on="0"/>
        <pt x="178" y="369" on="0"/>
      </contour>
    </TTGlyph>
    <TTGlyph name="threesuperior" xMin="39" yMin="414" xMax="303" yMax="810">
      <contour>
        <pt x="167" y="469" on="1"/>
        <pt x="198" y="469" on="0"/>
        <pt x="227" y="506" on="0"/>
        <pt x="227" y="536" on="1"/>
        <pt x="227" y="573" on="0"/>
        <pt x="187" y="595" on="0"/>
        <pt x="160" y="595" on="1"/>
        <pt x="147" y="595" on="1"/>
        <pt x="147" y="646" on="1"/>
        <pt x="165" y="646" on="1"/>
        <pt x="187" y="646" on="0"/>
        <pt x="217" y="675" on="0"/>
        <pt x="217" y="704" on="1"/>
        <pt x="217" y="724" on="0"/>
        <pt x="189" y="754" on="0"/>
        <pt x="164" y="754" on="1"/>
        <pt x="140" y="754" on="0"/>
        <pt x="110" y="725" on="0"/>
        <pt x="105" y="701" on="1"/>
        <pt x="39" y="721" on="1"/>
        <pt x="55" y="766" on="0"/>
        <pt x="124" y="810" on="0"/>
        <pt x="171" y="810" on="1"/>
        <pt x="192" y="810" on="0"/>
        <pt x="235" y="798" on="0"/>
        <pt x="269" y="772" on="0"/>
        <pt x="290" y="732" on="0"/>
        <pt x="290" y="705" on="1"/>
        <pt x="290" y="679" on="0"/>
        <pt x="260" y="635" on="0"/>
        <pt x="229" y="625" on="1"/>
        <pt x="243" y="622" on="0"/>
        <pt x="270" y="608" on="0"/>
        <pt x="291" y="586" on="0"/>
        <pt x="303" y="553" on="0"/>
        <pt x="303" y="531" on="1"/>
        <pt x="303" y="503" on="0"/>
        <pt x="282" y="459" on="0"/>
        <pt x="245" y="429" on="0"/>
        <pt x="196" y="414" on="0"/>
        <pt x="168" y="414" on="1"/>
        <pt x="141" y="414" on="0"/>
        <pt x="97" y="430" on="0"/>
        <pt x="64" y="455" on="0"/>
        <pt x="43" y="487" on="0"/>
        <pt x="39" y="503" on="1"/>
        <pt x="107" y="523" on="1"/>
        <pt x="111" y="503" on="0"/>
        <pt x="140" y="469" on="0"/>
      </contour>
    </TTGlyph>
    <TTGlyph name="tilde" xMin="20" yMin="642" xMax="330" yMax="744">
      <contour>
        <pt x="113" y="676" on="1"/>
        <pt x="93" y="676" on="0"/>
        <pt x="68" y="662" on="0"/>
        <pt x="54" y="651" on="1"/>
        <pt x="20" y="699" on="1"/>
        <pt x="38" y="718" on="0"/>
        <pt x="91" y="744" on="0"/>
        <pt x="117" y="744" on="1"/>
        <pt x="141" y="744" on="0"/>
        <pt x="172" y="733" on="0"/>
        <pt x="196" y="721" on="0"/>
        <pt x="220" y="710" on="0"/>
        <pt x="237" y="710" on="1"/>
        <pt x="257" y="710" on="0"/>
        <pt x="282" y="724" on="0"/>
        <pt x="296" y="735" on="1"/>
        <pt x="330" y="687" on="1"/>
        <pt x="312" y="668" on="0"/>
        <pt x="259" y="642" on="0"/>
        <pt x="233" y="642" on="1"/>
        <pt x="209" y="642" on="0"/>
        <pt x="178" y="653" on="0"/>
        <pt x="154" y="665" on="0"/>
        <pt x="130" y="676" on="0"/>
      </contour>
    </TTGlyph>
    <TTGlyph name="tilde.cap" xMin="20" yMin="782" xMax="330" yMax="884">
      <contour>
        <pt x="113" y="816" on="1"/>
        <pt x="93" y="816" on="0"/>
        <pt x="68" y="802" on="0"/>
        <pt x="54" y="791" on="1"/>
        <pt x="20" y="839" on="1"/>
        <pt x="38" y="858" on="0"/>
        <pt x="91" y="884" on="0"/>
        <pt x="117" y="884" on="1"/>
        <pt x="141" y="884" on="0"/>
        <pt x="172" y="873" on="0"/>
        <pt x="196" y="861" on="0"/>
        <pt x="220" y="850" on="0"/>
        <pt x="237" y="850" on="1"/>
        <pt x="257" y="850" on="0"/>
        <pt x="282" y="864" on="0"/>
        <pt x="296" y="875" on="1"/>
        <pt x="330" y="827" on="1"/>
        <pt x="312" y="808" on="0"/>
        <pt x="259" y="782" on="0"/>
        <pt x="233" y="782" on="1"/>
        <pt x="209" y="782" on="0"/>
        <pt x="178" y="793" on="0"/>
        <pt x="154" y="805" on="0"/>
        <pt x="130" y="816" on="0"/>
      </contour>
    </TTGlyph>
    <TTGlyph name="two" xMin="74" yMin="0" xMax="472" yMax="710">
      <contour>
        <pt x="74" y="555" on="1"/>
        <pt x="99" y="628" on="0"/>
        <pt x="203" y="710" on="0"/>
        <pt x="282" y="710" on="1"/>
        <pt x="321" y="710" on="0"/>
        <pt x="390" y="689" on="0"/>
        <pt x="442" y="645" on="0"/>
        <pt x="472" y="576" on="0"/>
        <pt x="472" y="528" on="1"/>
        <pt x="472" y="497" on="0"/>
        <pt x="458" y="439" on="0"/>
        <pt x="427" y="378" on="0"/>
        <pt x="376" y="309" on="0"/>
        <pt x="340" y="267" on="1"/>
        <pt x="172" y="71" on="1"/>
        <pt x="463" y="71" on="1"/>
        <pt x="463" y="0" on="1"/>
        <pt x="83" y="0" on="1"/>
        <pt x="83" y="79" on="1"/>
        <pt x="289" y="324" on="1"/>
        <pt x="316" y="357" on="0"/>
        <pt x="355" y="409" on="0"/>
        <pt x="379" y="456" on="0"/>
        <pt x="390" y="501" on="0"/>
        <pt x="390" y="528" on="1"/>
        <pt x="390" y="582" on="0"/>
        <pt x="338" y="646" on="0"/>
        <pt x="278" y="646" on="1"/>
        <pt x="230" y="646" on="0"/>
        <pt x="164" y="588" on="0"/>
        <pt x="150" y="534" on="1"/>
      </contour>
    </TTGlyph>
    <TTGlyph name="twosuperior" xMin="42" yMin="420" xMax="300" yMax="810">
      <contour>
        <pt x="169" y="754" on="1"/>
        <pt x="145" y="754" on="0"/>
        <pt x="115" y="721" on="0"/>
        <pt x="111" y="702" on="1"/>
        <pt x="42" y="720" on="1"/>
        <pt x="56" y="759" on="0"/>
        <pt x="121" y="810" on="0"/>
        <pt x="175" y="810" on="1"/>
        <pt x="200" y="810" on="0"/>
        <pt x="245" y="797" on="0"/>
        <pt x="279" y="769" on="0"/>
        <pt x="300" y="725" on="0"/>
        <pt x="300" y="694" on="1"/>
        <pt x="300" y="656" on="0"/>
        <pt x="249" y="591" on="0"/>
        <pt x="217" y="559" on="1"/>
        <pt x="138" y="480" on="1"/>
        <pt x="298" y="480" on="1"/>
        <pt x="298" y="420" on="1"/>
        <pt x="47" y="420" on="1"/>
        <pt x="47" y="480" on="1"/>
        <pt x="179" y="614" on="1"/>
        <pt x="195" y="630" on="0"/>
        <pt x="224" y="673" on="0"/>
        <pt x="224" y="697" on="1"/>
        <pt x="224" y="718" on="0"/>
        <pt x="200" y="754" on="0"/>
      </contour>
    </TTGlyph>
    <TTGlyph name="u" xMin="85" yMin="-15" xMax="511" yMax="560">
      <contour>
        <pt x="167" y="560" on="1"/>
        <pt x="167" y="175" on="1"/>
        <pt x="167" y="118" on="0"/>
        <pt x="228" y="52" on="0"/>
        <pt x="299" y="52" on="1"/>
        <pt x="370" y="52" on="0"/>
        <pt x="432" y="118" on="0"/>
        <pt x="432" y="175" on="1"/>
        <pt x="432" y="560" on="1"/>
        <pt x="511" y="560" on="1"/>
        <pt x="511" y="181" on="1"/>
        <pt x="511" y="93" on="0"/>
        <pt x="401" y="-15" on="0"/>
        <pt x="298" y="-15" on="1"/>
        <pt x="196" y="-15" on="0"/>
        <pt x="85" y="93" on="0"/>
        <pt x="85" y="181" on="1"/>
        <pt x="85" y="560" on="1"/>
      </contour>
    </TTGlyph>
    <TTGlyph name="uacute" xMin="85" yMin="-15" xMax="511" yMax="775">
      <component glyphName="u" x="0" y="0" flags="0x204"/>
      <component glyphName="acute" x="218" y="0" flags="0x4"/>
    </TTGlyph>
    <TTGlyph name="ucircumflex" xMin="85" yMin="-15" xMax="511" yMax="765">
      <component glyphName="u" x="0" y="0" flags="0x204"/>
      <component glyphName="circumflex" x="110" y="0" flags="0x4"/>
    </TTGlyph>
    <TTGlyph name="udieresis" xMin="85" yMin="-15" xMax="511" yMax="745">
      <component glyphName="u" x="0" y="0" flags="0x204"/>
      <component glyphName="dieresis" x="118" y="0" flags="0x4"/>
    </TTGlyph>
    <TTGlyph name="ugrave" xMin="85" yMin="-15" xMax="511" yMax="775">
      <component glyphName="u" x="0" y="0" flags="0x204"/>
      <component glyphName="grave" x="108" y="0" flags="0x4"/>
    </TTGlyph>
    <TTGlyph name="underscore" xMin="-2" yMin="-120" xMax="482" yMax="-52">
      <contour>
        <pt x="-2" y="-120" on="1"/>
        <pt x="-2" y="-52" on="1"/>
        <pt x="482" y="-52" on="1"/>
        <pt x="482" y="-120" on="1"/>
      </contour>
    </TTGlyph>
    <TTGlyph name="uni00AD" xMin="60" yMin="287" xMax="365" yMax="359">
      <component glyphName="hyphen" x="0" y="0" flags="0x204"/>
    </TTGlyph>
    <TTGlyph name="v" xMin="10" yMin="0" xMax="492" yMax="560">
      <contour>
        <pt x="492" y="560" on="1"/>
        <pt x="307" y="0" on="1"/>
        <pt x="195" y="0" on="1"/>
        <pt x="10" y="560" on="1"/>
        <pt x="100" y="560" on="1"/>
        <pt x="253" y="62" on="1"/>
        <pt x="410" y="560" on="1"/>
      </contour>
    </TTGlyph>
    <TTGlyph name="w" xMin="25" yMin="0" xMax="699" yMax="560">
      <contour>
        <pt x="699" y="560" on="1"/>
        <pt x="588" y="0" on="1"/>
        <pt x="485" y="0" on="1"/>
        <pt x="367" y="478" on="1"/>
        <pt x="246" y="0" on="1"/>
        <pt x="136" y="0" on="1"/>
        <pt x="25" y="560" on="1"/>
        <pt x="112" y="560" on="1"/>
        <pt x="197" y="86" on="1"/>
        <pt x="316" y="560" on="1"/>
        <pt x="425" y="560" on="1"/>
        <pt x="535" y="88" on="1"/>
        <pt x="619" y="560" on="1"/>
      </contour>
    </TTGlyph>
    <TTGlyph name="x" xMin="35" yMin="0" xMax="505" yMax="560">
      <contour>
        <pt x="320" y="295" on="1"/>
        <pt x="505" y="0" on="1"/>
        <pt x="407" y="0" on="1"/>
        <pt x="269" y="226" on="1"/>
        <pt x="125" y="0" on="1"/>
        <pt x="35" y="0" on="1"/>
        <pt x="222" y="288" on="1"/>
        <pt x="52" y="560" on="1"/>
        <pt x="148" y="560" on="1"/>
        <pt x="274" y="356" on="1"/>
        <pt x="406" y="560" on="1"/>
        <pt x="496" y="560" on="1"/>
      </contour>
    </TTGlyph>
    <TTGlyph name="y" xMin="10" yMin="0" xMax="477" yMax="560">
      <contour>
        <pt x="477" y="560" on="1"/>
        <pt x="285" y="216" on="1"/>
        <pt x="285" y="0" on="1"/>
        <pt x="205" y="0" on="1"/>
        <pt x="205" y="216" on="1"/>
        <pt x="10" y="560" on="1"/>
        <pt x="102" y="560" on="1"/>
        <pt x="247" y="290" on="1"/>
        <pt x="395" y="560" on="1"/>
      </contour>
    </TTGlyph>
    <TTGlyph name="yacute" xMin="10" yMin="0" xMax="477" yMax="775">
      <component glyphName="y" x="0" y="0" flags="0x204"/>
      <component glyphName="acute" x="163" y="0" flags="0x4"/>
    </TTGlyph>
    <TTGlyph name="ydieresis" xMin="10" yMin="0" xMax="477" yMax="745">
      <component glyphName="y" x="0" y="0" flags="0x204"/>
      <component glyphName="dieresis" x="63" y="0" flags="0x4"/>
    </TTGlyph>
    <TTGlyph name="yen" xMin="36" yMin="0" xMax="508" yMax="700">
      <contour>
        <pt x="236" y="0" on="1"/>
        <pt x="236" y="155" on="1"/>
        <pt x="80" y="155" on="1"/>
        <pt x="80" y="215" on="1"/>
        <pt x="236" y="215" on="1"/>
        <pt x="236" y="295" on="1"/>
        <pt x="80" y="295" on="1"/>
        <pt x="80" y="354" on="1"/>
        <pt x="200" y="354" on="1"/>
        <pt x="36" y="700" on="1"/>
        <pt x="126" y="700" on="1"/>
        <pt x="275" y="344" on="1"/>
        <pt x="426" y="700" on="1"/>
        <pt x="508" y="700" on="1"/>
        <pt x="347" y="355" on="1"/>
        <pt x="460" y="355" on="1"/>
        <pt x="460" y="295" on="1"/>
        <pt x="311" y="295" on="1"/>
        <pt x="311" y="215" on="1"/>
        <pt x="460" y="215" on="1"/>
        <pt x="460" y="155" on="1"/>
        <pt x="311" y="155" on="1"/>
        <pt x="311" y="0" on="1"/>
      </contour>
    </TTGlyph>
    <TTGlyph name="z" xMin="40" yMin="0" xMax="429" yMax="560">
      <contour>
        <pt x="131" y="64" on="1"/>
        <pt x="420" y="64" on="1"/>
        <pt x="420" y="0" on="1"/>
        <pt x="40" y="0" on="1"/>
        <pt x="40" y="70" on="1"/>
        <pt x="340" y="496" on="1"/>
        <pt x="62" y="496" on="1"/>
        <pt x="62" y="560" on="1"/>
        <pt x="429" y="560" on="1"/>
        <pt x="429" y="492" on="1"/>
      </contour>
    </TTGlyph>
    <TTGlyph name="zero" xMin="59" yMin="-10" xMax="483" yMax="700">
      <contour>
        <pt x="141" y="344" on="1"/>
        <pt x="141" y="262" on="0"/>
        <pt x="159" y="150" on="0"/>
        <pt x="193" y="82" on="0"/>
        <pt x="241" y="53" on="0"/>
        <pt x="271" y="53" on="1"/>
        <pt x="301" y="53" on="0"/>
        <pt x="349" y="82" on="0"/>
        <pt x="383" y="150" on="0"/>
        <pt x="401" y="262" on="0"/>
        <pt x="401" y="344" on="1"/>
        <pt x="401" y="426" on="0"/>
        <pt x="383" y="538" on="0"/>
        <pt x="349" y="607" on="0"/>
        <pt x="301" y="637" on="0"/>
        <pt x="271" y="637" on="1"/>
        <pt x="241" y="637" on="0"/>
        <pt x="193" y="607" on="0"/>
        <pt x="159" y="538" on="0"/>
        <pt x="141" y="426" on="0"/>
      </contour>
      <contour>
        <pt x="483" y="344" on="1"/>
        <pt x="483" y="247" on="0"/>
        <pt x="453" y="112" on="0"/>
        <pt x="398" y="28" on="0"/>
        <pt x="319" y="-10" on="0"/>
        <pt x="271" y="-10" on="1"/>
        <pt x="223" y="-10" on="0"/>
        <pt x="144" y="25" on="0"/>
        <pt x="89" y="107" on="0"/>
        <pt x="59" y="243" on="0"/>
        <pt x="59" y="344" on="1"/>
        <pt x="59" y="441" on="0"/>
        <pt x="89" y="577" on="0"/>
        <pt x="144" y="662" on="0"/>
        <pt x="223" y="700" on="0"/>
        <pt x="271" y="700" on="1"/>
        <pt x="319" y="700" on="0"/>
        <pt x="398" y="664" on="0"/>
        <pt x="453" y="581" on="0"/>
        <pt x="483" y="445" on="0"/>
      </contour>
    </TTGlyph>
</ttFont>
